<svg id="svg" version="1.1" xmlns="http://www.w3.org/2000/svg" xmlns:xlink="http://www.w3.org/1999/xlink" width="400" height="77.02052191537877" viewBox="0, 0, 400,77.02052191537877"><g id="svgg"><path id="path0" d="M3.833 25.333 L 3.833 27.167 11.250 27.167 L 18.667 27.167 18.667 42.000 L 18.667 56.833 21.333 56.833 L 24.000 56.833 24.000 42.000 L 24.000 27.167 31.417 27.167 L 38.833 27.167 38.833 25.333 L 38.833 23.500 21.333 23.500 L 3.833 23.500 3.833 25.333 M43.000 40.167 L 43.000 56.833 45.500 56.833 L 48.000 56.833 48.001 49.542 C 48.003 40.265,48.199 39.068,49.938 37.743 C 52.264 35.968,59.607 35.601,62.632 37.108 C 65.084 38.329,65.167 38.706,65.167 48.723 L 65.167 56.833 67.590 56.833 L 70.014 56.833 69.965 47.792 L 69.917 38.750 69.448 37.795 C 68.356 35.571,66.363 34.316,62.583 33.473 C 60.099 32.919,52.842 33.255,51.083 34.006 C 49.521 34.673,49.097 34.914,48.586 35.425 L 48.000 36.011 48.000 29.756 L 48.000 23.500 45.500 23.500 L 43.000 23.500 43.000 40.167 M87.500 33.268 C 79.809 33.958,77.494 36.674,77.503 45.000 C 77.509 50.542,78.635 53.925,80.917 55.256 C 85.444 57.895,99.535 57.848,103.523 55.180 C 104.960 54.218,106.049 51.831,105.810 50.167 L 105.750 49.750 103.208 49.704 L 100.667 49.658 100.667 50.559 C 100.667 53.378,99.158 54.000,92.309 54.000 C 84.366 54.000,82.667 52.789,82.667 47.125 L 82.667 46.000 94.172 46.000 C 104.840 46.000,105.685 45.979,105.786 45.717 C 105.967 45.244,105.505 40.156,105.176 39.000 C 104.162 35.440,102.833 34.411,98.167 33.573 C 96.789 33.326,89.261 33.111,87.500 33.268 M95.876 36.417 C 99.575 36.960,100.659 38.195,100.665 41.875 L 100.667 43.167 91.667 43.167 L 82.667 43.167 82.673 42.375 C 82.692 39.711,83.774 37.553,85.401 36.932 C 87.284 36.213,92.680 35.948,95.876 36.417 M308.542 46.282 C 308.702 46.323,308.965 46.323,309.125 46.282 C 309.285 46.240,309.154 46.205,308.833 46.205 C 308.512 46.205,308.381 46.240,308.542 46.282 M285.081 66.852 C 281.939 68.515,282.670 73.907,286.090 74.293 C 288.686 74.586,290.250 73.129,290.250 70.417 C 290.250 67.343,287.603 65.517,285.081 66.852 M200.667 70.417 L 200.667 74.167 202.661 74.167 C 205.844 74.167,206.702 73.463,206.809 70.763 C 206.940 67.492,206.133 66.669,202.792 66.668 L 200.667 66.667 200.667 70.417 M217.483 67.125 C 214.479 74.967,214.656 74.334,215.458 74.332 C 216.077 74.330,216.087 74.319,216.428 73.290 L 216.773 72.250 218.331 72.250 L 219.889 72.250 220.242 73.250 C 220.584 74.218,220.616 74.252,221.238 74.303 C 221.996 74.366,222.002 74.090,221.281 72.483 C 221.058 71.988,220.629 70.908,220.326 70.083 C 220.024 69.258,219.727 68.508,219.667 68.417 C 219.607 68.325,219.426 67.894,219.265 67.458 C 218.896 66.459,217.815 66.257,217.483 67.125 M230.000 70.500 L 230.000 74.333 230.583 74.333 L 231.167 74.333 231.167 72.667 L 231.167 71.000 232.061 71.000 C 233.135 71.000,233.435 71.249,234.587 73.098 C 235.332 74.294,235.378 74.333,236.012 74.333 C 236.372 74.333,236.667 74.263,236.667 74.176 C 236.667 73.943,235.336 71.818,234.869 71.305 L 234.464 70.861 234.972 70.598 C 236.166 69.980,236.451 68.055,235.482 67.150 L 234.965 66.667 232.482 66.667 L 230.000 66.667 230.000 70.500 M245.167 70.500 L 245.167 74.333 248.000 74.333 L 250.833 74.333 250.833 73.750 L 250.833 73.167 248.500 73.167 L 246.167 73.167 246.167 72.000 L 246.167 70.833 248.250 70.833 L 250.333 70.833 250.333 70.333 L 250.333 69.833 248.250 69.833 L 246.167 69.833 246.167 68.750 L 246.167 67.667 248.333 67.667 L 250.500 67.667 250.500 67.167 L 250.500 66.667 247.833 66.667 L 245.167 66.667 245.167 70.500 M269.167 67.167 L 269.167 67.667 270.333 67.667 L 271.500 67.667 271.500 71.010 L 271.500 74.353 272.125 74.302 L 272.750 74.250 272.795 70.958 L 272.840 67.667 274.004 67.667 L 275.167 67.667 275.167 67.167 L 275.167 66.667 272.167 66.667 L 269.167 66.667 269.167 67.167 M309.205 70.458 L 309.250 74.250 311.284 74.217 C 314.555 74.163,315.500 73.299,315.500 70.359 C 315.500 67.447,314.620 66.667,311.336 66.667 L 309.160 66.667 309.205 70.458 M324.205 70.458 L 324.250 74.250 324.875 74.302 L 325.500 74.353 325.500 72.677 L 325.500 71.000 326.389 71.000 C 327.429 71.000,327.637 71.180,328.833 73.125 C 329.569 74.320,329.584 74.333,330.288 74.333 C 330.680 74.333,331.000 74.268,331.000 74.189 C 331.000 73.967,329.188 71.278,328.881 71.045 C 328.645 70.865,328.687 70.808,329.218 70.586 C 330.499 70.051,330.751 68.048,329.652 67.131 C 329.099 66.669,329.084 66.667,326.628 66.667 L 324.160 66.667 324.205 70.458 M339.167 70.504 L 339.167 74.341 342.042 74.296 L 344.917 74.250 344.969 73.708 L 345.021 73.167 342.677 73.167 L 340.333 73.167 340.333 72.000 L 340.333 70.833 342.417 70.833 L 344.500 70.833 344.500 70.333 L 344.500 69.833 342.417 69.833 L 340.333 69.833 340.333 68.750 L 340.333 67.667 342.500 67.667 L 344.667 67.667 344.667 67.167 L 344.667 66.667 341.917 66.667 L 339.167 66.667 339.167 70.504 M355.496 67.094 C 355.406 67.329,355.333 67.583,355.333 67.658 C 355.333 67.734,355.221 68.010,355.084 68.273 C 354.947 68.535,354.835 68.866,354.834 69.008 C 354.834 69.150,354.768 69.338,354.688 69.425 C 354.608 69.512,354.301 70.258,354.007 71.083 C 353.712 71.908,353.408 72.705,353.330 72.854 C 352.864 73.752,352.940 74.333,353.523 74.332 C 354.062 74.330,354.097 74.290,354.428 73.290 L 354.773 72.250 356.337 72.250 L 357.900 72.250 358.298 73.292 C 358.677 74.283,358.723 74.333,359.255 74.333 C 360.115 74.333,360.077 74.192,357.559 68.125 L 356.954 66.667 356.306 66.667 C 355.764 66.667,355.632 66.736,355.496 67.094 M368.000 70.491 L 368.000 74.333 368.579 74.333 L 369.159 74.333 369.204 71.542 L 369.250 68.750 369.637 69.917 C 369.850 70.558,370.086 71.233,370.161 71.417 C 370.237 71.600,370.481 72.313,370.703 73.000 C 371.098 74.221,371.120 74.250,371.658 74.250 L 372.208 74.250 372.828 72.417 C 373.169 71.408,373.493 70.471,373.549 70.333 C 373.605 70.196,373.748 69.746,373.867 69.333 C 374.068 68.636,374.087 68.788,374.129 71.469 L 374.175 74.354 374.712 74.302 L 375.250 74.250 375.295 70.458 L 375.340 66.667 374.528 66.667 L 373.716 66.667 372.711 69.671 L 371.706 72.676 370.728 69.713 L 369.750 66.750 368.875 66.700 L 368.000 66.649 368.000 70.491 M287.823 67.805 C 290.051 68.999,289.144 73.333,286.666 73.333 C 284.944 73.333,283.886 71.309,284.496 69.181 C 284.915 67.718,286.466 67.077,287.823 67.805 M204.769 68.087 C 205.384 68.556,205.670 69.332,205.656 70.500 C 205.635 72.375,204.839 73.167,202.975 73.167 L 201.833 73.167 201.833 70.417 L 201.833 67.667 203.026 67.667 C 204.044 67.667,204.299 67.728,204.769 68.087 M234.423 67.936 C 235.693 68.768,234.623 69.833,232.516 69.833 L 231.167 69.833 231.167 68.750 L 231.167 67.667 232.589 67.667 C 233.618 67.667,234.125 67.741,234.423 67.936 M313.150 67.908 C 313.991 68.343,314.250 68.933,314.250 70.417 C 314.250 72.498,313.604 73.167,311.592 73.167 L 310.500 73.167 310.500 70.417 L 310.500 67.667 311.592 67.667 C 312.219 67.667,312.882 67.769,313.150 67.908 M328.728 68.012 C 329.875 68.915,328.951 69.833,326.894 69.833 L 325.500 69.833 325.500 68.750 L 325.500 67.667 326.894 67.667 C 328.052 67.667,328.363 67.725,328.728 68.012 M218.782 69.283 C 219.466 71.174,219.517 71.000,218.284 71.000 L 217.196 71.000 217.681 69.739 C 217.948 69.046,218.167 68.359,218.167 68.212 C 218.167 67.770,218.349 68.087,218.782 69.283 M357.285 70.708 C 357.361 70.964,357.246 71.000,356.353 71.000 C 355.792 71.000,355.333 70.934,355.333 70.853 C 355.333 70.691,356.135 68.520,356.283 68.280 C 356.360 68.155,356.950 69.585,357.285 70.708 " stroke="none" fill="#fcfcfc" fill-rule="evenodd"></path><path id="path1" d="M209.667 0.168 C 209.461 0.290,207.498 1.106,206.083 1.659 C 205.900 1.730,205.563 1.869,205.333 1.967 C 205.104 2.065,204.542 2.303,204.083 2.496 C 202.543 3.145,202.333 3.248,202.333 3.356 C 202.333 3.558,202.889 3.679,202.999 3.502 C 203.059 3.405,203.284 3.292,203.500 3.250 C 203.716 3.208,203.969 3.098,204.063 3.004 C 204.157 2.910,204.368 2.833,204.533 2.833 C 204.698 2.833,204.833 2.758,204.833 2.667 C 204.833 2.575,204.953 2.500,205.099 2.500 C 205.246 2.500,205.564 2.392,205.808 2.259 C 206.051 2.127,206.925 1.713,207.750 1.340 C 210.282 0.194,210.610 0.021,210.250 0.020 C 210.067 0.020,209.804 0.086,209.667 0.168 M208.041 11.762 C 207.651 11.995,207.218 12.407,207.078 12.677 L 206.825 13.167 201.621 13.201 C 198.758 13.220,197.110 13.261,197.958 13.291 C 199.493 13.346,199.589 13.388,199.509 13.975 C 199.492 14.099,199.550 14.156,199.638 14.101 C 199.726 14.047,199.843 14.118,199.897 14.260 C 199.954 14.407,199.926 14.474,199.831 14.415 C 199.741 14.359,199.666 14.449,199.664 14.615 C 199.662 14.871,199.637 14.879,199.500 14.667 C 199.361 14.451,199.338 14.456,199.336 14.698 C 199.334 14.854,199.411 15.029,199.507 15.088 C 199.602 15.146,199.635 15.338,199.579 15.514 C 199.481 15.822,199.609 15.834,203.114 15.844 L 206.750 15.854 207.255 16.552 C 209.093 19.096,213.396 17.224,212.926 14.085 C 212.592 11.862,209.961 10.611,208.041 11.762 M210.758 13.576 C 211.662 14.481,210.825 16.150,209.568 15.946 C 207.837 15.665,208.000 13.167,209.750 13.167 C 210.163 13.167,210.475 13.293,210.758 13.576 M372.707 32.666 C 369.886 33.239,367.629 34.309,366.195 35.754 C 365.694 36.259,365.271 36.653,365.255 36.628 C 363.704 34.259,360.348 32.359,359.362 33.293 C 359.240 33.409,359.059 33.453,358.961 33.392 C 358.857 33.328,358.830 33.360,358.896 33.467 C 358.959 33.569,359.133 33.605,359.283 33.548 C 359.464 33.478,359.515 33.508,359.434 33.638 C 359.368 33.746,359.393 33.833,359.490 33.833 C 359.587 33.833,359.667 33.746,359.667 33.639 C 359.667 33.532,359.723 33.501,359.791 33.569 C 359.860 33.638,359.771 33.800,359.593 33.930 C 359.289 34.153,359.419 34.264,359.887 34.182 C 359.963 34.169,359.981 34.229,359.928 34.314 C 359.875 34.400,359.701 34.445,359.541 34.415 C 359.381 34.384,359.194 34.353,359.125 34.346 C 359.056 34.339,359.000 34.232,359.000 34.109 C 359.000 33.986,358.847 33.747,358.660 33.577 C 358.321 33.271,358.321 33.271,358.575 33.760 C 358.814 34.219,358.808 34.267,358.483 34.512 L 358.136 34.775 358.562 35.054 C 359.060 35.381,359.234 35.410,359.067 35.141 C 358.994 35.022,359.022 34.994,359.141 35.067 C 359.247 35.133,359.333 35.107,359.333 35.010 C 359.333 34.830,359.180 34.788,358.583 34.803 C 358.308 34.810,358.301 34.797,358.542 34.727 C 358.702 34.680,358.833 34.560,358.833 34.459 C 358.833 34.358,359.002 34.424,359.208 34.606 C 359.415 34.788,359.752 34.924,359.958 34.908 C 360.345 34.878,360.461 35.068,360.167 35.250 C 360.075 35.307,359.999 35.255,359.997 35.135 C 359.996 34.977,359.951 34.985,359.836 35.167 C 359.749 35.304,359.563 35.417,359.424 35.418 C 359.284 35.419,359.188 35.493,359.210 35.582 C 359.232 35.672,359.372 35.724,359.521 35.699 C 359.670 35.673,359.830 35.752,359.877 35.872 C 359.936 36.027,359.805 36.088,359.434 36.079 C 358.769 36.061,358.488 35.891,358.608 35.578 C 358.667 35.425,358.601 35.333,358.434 35.333 C 358.287 35.333,358.167 35.246,358.167 35.139 C 358.167 35.032,358.118 34.993,358.060 35.052 C 358.001 35.110,358.038 35.261,358.141 35.386 C 358.245 35.512,358.281 35.663,358.221 35.724 C 358.160 35.784,358.203 35.833,358.315 35.833 C 358.428 35.833,358.473 35.908,358.417 36.000 C 358.360 36.092,358.393 36.167,358.490 36.167 C 358.587 36.167,358.658 36.223,358.647 36.292 C 358.574 36.752,358.700 36.879,358.889 36.537 L 359.100 36.158 359.496 36.579 C 359.713 36.810,359.830 37.000,359.756 37.000 C 359.681 37.000,359.522 36.869,359.403 36.708 C 359.203 36.440,359.188 36.447,359.212 36.792 C 359.226 36.998,359.307 37.167,359.391 37.167 C 359.706 37.167,360.410 38.151,360.762 39.083 C 360.965 39.620,360.990 40.612,361.038 50.083 L 361.083 59.083 363.654 59.129 C 365.068 59.155,366.284 59.116,366.357 59.043 C 366.430 58.970,366.497 55.076,366.506 50.390 C 366.520 42.456,366.589 40.959,366.987 39.915 C 367.891 37.543,368.930 36.790,372.417 35.982 C 373.926 35.632,380.424 35.674,381.713 36.043 C 383.619 36.587,384.507 37.362,385.077 38.979 C 385.297 39.604,385.333 41.101,385.333 49.438 L 385.333 59.167 388.167 59.167 L 391.000 59.167 391.000 50.042 C 391.000 40.125,390.953 39.505,390.059 37.542 C 389.819 37.015,389.576 36.546,389.519 36.500 C 389.462 36.454,389.205 36.136,388.950 35.793 C 386.842 32.965,378.832 31.424,372.707 32.666 M358.509 32.773 C 358.716 33.117,359.032 33.190,359.273 32.949 C 359.337 32.886,359.241 32.833,359.061 32.833 C 358.881 32.833,358.635 32.740,358.514 32.625 C 358.332 32.453,358.331 32.478,358.509 32.773 " stroke="none" fill="#3fc4f0" fill-rule="evenodd"></path><path id="path2" d="M202.039 3.293 C 201.925 3.331,201.862 3.412,201.900 3.473 C 201.937 3.533,201.798 3.593,201.591 3.606 C 201.384 3.618,200.960 3.743,200.649 3.884 C 200.338 4.025,199.572 4.371,198.947 4.653 C 198.322 4.936,197.785 5.167,197.754 5.167 C 197.345 5.167,189.000 9.014,189.000 9.202 C 189.000 9.524,189.547 10.157,189.727 10.043 C 189.831 9.976,189.954 9.914,190.000 9.905 C 190.046 9.896,190.308 9.796,190.583 9.683 C 190.858 9.569,191.112 9.488,191.148 9.503 C 191.184 9.517,191.259 9.465,191.315 9.388 C 191.404 9.265,199.474 5.215,201.750 4.150 C 202.208 3.936,202.611 3.743,202.645 3.722 C 202.791 3.629,202.227 3.230,202.039 3.293 M187.500 13.316 C 190.381 13.421,190.477 13.452,190.245 14.184 C 190.189 14.358,190.037 14.500,189.905 14.500 C 189.774 14.500,189.667 14.579,189.667 14.677 C 189.667 14.774,189.742 14.807,189.833 14.750 C 189.925 14.693,190.001 14.783,190.003 14.948 C 190.004 15.177,190.039 15.196,190.146 15.028 C 190.255 14.856,190.307 14.880,190.372 15.130 C 190.420 15.315,190.376 15.447,190.270 15.436 C 190.167 15.425,190.046 15.492,190.000 15.583 C 189.946 15.692,191.578 15.765,194.690 15.794 C 199.658 15.840,200.167 15.767,199.505 15.105 C 199.411 15.011,199.334 14.817,199.336 14.675 C 199.338 14.447,199.358 14.446,199.500 14.667 C 199.637 14.879,199.662 14.871,199.664 14.615 C 199.666 14.449,199.741 14.359,199.831 14.415 C 199.926 14.474,199.954 14.407,199.897 14.260 C 199.843 14.118,199.719 14.051,199.621 14.112 C 199.513 14.178,199.481 14.123,199.540 13.971 C 199.798 13.297,199.669 13.284,192.058 13.249 C 188.039 13.231,185.987 13.261,187.500 13.316 M349.917 32.450 C 347.364 32.793,344.427 34.073,342.992 35.468 L 342.000 36.433 342.000 34.550 L 342.000 32.667 339.250 32.667 L 336.500 32.667 336.500 45.917 L 336.500 59.167 339.250 59.167 L 342.000 59.167 342.000 51.104 C 342.000 41.105,342.142 40.299,344.271 38.223 C 344.895 37.615,346.851 36.483,347.422 36.399 C 347.534 36.382,348.066 36.233,348.605 36.067 C 350.853 35.374,355.903 35.639,358.347 36.579 C 358.518 36.645,358.611 36.590,358.611 36.424 C 358.611 36.282,358.544 36.167,358.462 36.167 C 358.381 36.167,358.360 36.092,358.417 36.000 C 358.473 35.908,358.428 35.833,358.315 35.833 C 358.203 35.833,358.160 35.784,358.221 35.724 C 358.281 35.663,358.245 35.512,358.141 35.386 C 358.038 35.261,358.001 35.110,358.060 35.052 C 358.118 34.993,358.167 35.032,358.167 35.139 C 358.167 35.246,358.287 35.333,358.434 35.333 C 358.601 35.333,358.667 35.425,358.608 35.578 C 358.488 35.891,358.769 36.061,359.434 36.079 C 359.805 36.088,359.936 36.027,359.877 35.872 C 359.830 35.752,359.663 35.675,359.505 35.701 C 359.347 35.728,359.225 35.675,359.234 35.583 C 359.243 35.492,359.322 35.441,359.410 35.470 C 359.498 35.499,359.667 35.391,359.785 35.230 C 359.912 35.057,360.000 35.022,360.000 35.145 C 360.000 35.259,360.075 35.307,360.167 35.250 C 360.461 35.068,360.345 34.878,359.958 34.908 C 359.752 34.924,359.415 34.788,359.208 34.606 C 359.002 34.424,358.833 34.358,358.833 34.459 C 358.833 34.560,358.702 34.680,358.542 34.727 C 358.301 34.797,358.308 34.810,358.583 34.803 C 359.180 34.788,359.333 34.830,359.333 35.010 C 359.333 35.107,359.247 35.133,359.141 35.067 C 359.022 34.994,358.994 35.022,359.067 35.141 C 359.234 35.410,359.060 35.381,358.562 35.054 L 358.136 34.775 358.483 34.512 C 358.808 34.267,358.814 34.219,358.575 33.760 C 358.321 33.271,358.321 33.271,358.660 33.577 C 358.847 33.747,359.000 33.986,359.000 34.109 C 359.000 34.232,359.056 34.339,359.125 34.346 C 359.194 34.353,359.381 34.384,359.541 34.415 C 359.701 34.445,359.875 34.400,359.928 34.314 C 359.981 34.229,359.963 34.169,359.887 34.182 C 359.419 34.264,359.289 34.153,359.593 33.930 C 359.771 33.800,359.860 33.638,359.791 33.569 C 359.723 33.501,359.667 33.532,359.667 33.639 C 359.667 33.746,359.587 33.833,359.490 33.833 C 359.393 33.833,359.368 33.746,359.434 33.638 C 359.515 33.508,359.464 33.478,359.283 33.548 C 359.133 33.605,358.959 33.569,358.896 33.467 C 358.830 33.360,358.857 33.328,358.961 33.392 C 359.059 33.453,359.240 33.403,359.363 33.280 C 359.486 33.157,359.673 33.085,359.778 33.120 C 359.883 33.156,360.012 33.115,360.065 33.030 C 360.117 32.945,359.918 32.835,359.622 32.785 C 359.326 32.736,358.940 32.638,358.764 32.569 C 358.541 32.481,358.481 32.502,358.566 32.638 C 358.632 32.746,358.844 32.833,359.038 32.833 C 359.231 32.833,359.333 32.890,359.264 32.958 C 359.048 33.174,358.758 33.104,358.519 32.778 C 358.339 32.532,358.158 32.485,357.686 32.560 C 357.269 32.627,357.161 32.608,357.333 32.498 C 357.577 32.342,351.036 32.300,349.917 32.450 M361.167 33.417 C 361.928 33.710,362.227 33.705,361.583 33.411 C 361.308 33.285,360.971 33.184,360.833 33.187 C 360.696 33.190,360.846 33.293,361.167 33.417 M358.938 36.421 C 358.775 36.846,358.812 37.000,359.078 37.000 C 359.235 37.000,359.290 36.895,359.231 36.708 C 359.152 36.457,359.176 36.461,359.401 36.738 C 359.545 36.914,359.701 37.021,359.748 36.975 C 359.794 36.928,359.654 36.723,359.437 36.519 C 359.090 36.193,359.030 36.181,358.938 36.421 M359.708 37.625 C 359.949 37.877,360.262 38.308,360.405 38.583 C 360.548 38.858,360.665 38.982,360.666 38.859 C 360.667 38.494,359.673 37.167,359.397 37.167 C 359.328 37.167,359.468 37.373,359.708 37.625 " stroke="none" fill="#3cbcec" fill-rule="evenodd"></path><path id="path3" d="M109.269 15.542 C 109.337 15.656,110.333 16.950,111.485 18.417 C 113.889 21.481,113.861 21.445,114.086 21.714 C 114.179 21.826,114.514 22.254,114.831 22.667 C 115.149 23.079,115.452 23.454,115.505 23.500 C 115.559 23.546,116.057 24.183,116.612 24.917 C 117.167 25.650,117.875 26.562,118.185 26.943 C 118.496 27.324,119.200 28.215,119.750 28.922 C 120.300 29.630,120.919 30.398,121.125 30.629 C 121.331 30.860,121.500 31.095,121.500 31.151 C 121.500 31.207,121.669 31.440,121.875 31.669 C 122.363 32.210,123.607 33.774,126.247 37.167 C 129.017 40.725,128.731 40.442,129.152 40.049 C 129.344 39.870,129.912 39.430,130.414 39.070 C 131.481 38.305,131.513 38.162,130.792 37.336 C 130.494 36.995,129.537 35.792,128.667 34.663 C 127.796 33.534,127.008 32.528,126.917 32.428 C 126.825 32.328,126.378 31.760,125.923 31.165 C 125.468 30.570,125.053 30.046,125.000 30.000 C 124.947 29.954,124.532 29.429,124.077 28.833 C 123.622 28.238,123.207 27.712,123.154 27.667 C 123.102 27.621,122.577 26.957,121.988 26.193 C 121.399 25.428,120.590 24.378,120.190 23.859 C 119.437 22.881,117.647 20.646,117.500 20.500 C 117.454 20.454,117.160 20.079,116.847 19.667 C 116.534 19.254,116.206 18.823,116.118 18.708 C 115.992 18.543,116.948 18.500,120.771 18.501 L 125.583 18.502 125.958 19.053 C 126.164 19.356,126.465 19.749,126.626 19.927 C 126.788 20.105,127.180 20.587,127.497 21.000 C 127.815 21.412,128.116 21.787,128.167 21.833 C 128.217 21.879,128.519 22.254,128.838 22.666 C 129.156 23.078,129.509 23.528,129.622 23.666 C 129.735 23.804,130.512 24.779,131.349 25.833 C 132.187 26.887,133.144 28.081,133.477 28.485 C 133.811 28.889,134.192 29.376,134.326 29.568 C 134.459 29.760,134.909 30.332,135.326 30.840 C 135.742 31.347,136.308 32.052,136.583 32.407 C 136.858 32.761,137.552 33.630,138.125 34.337 C 139.438 35.957,139.600 35.630,136.472 37.667 C 134.993 38.629,133.701 39.492,133.600 39.583 C 133.499 39.675,132.667 40.250,131.750 40.862 C 129.674 42.246,123.858 46.364,122.916 47.117 C 122.824 47.190,121.849 47.925,120.750 48.749 C 118.419 50.497,118.534 50.409,118.007 50.844 C 117.782 51.030,117.351 51.334,117.049 51.521 C 116.747 51.708,116.506 51.948,116.513 52.055 C 116.522 52.189,116.552 52.185,116.610 52.042 C 116.657 51.927,116.798 51.833,116.925 51.833 C 117.220 51.833,119.728 55.599,119.586 55.829 C 119.425 56.090,119.573 56.035,120.016 55.670 C 120.463 55.301,120.457 55.306,121.500 54.503 C 121.912 54.185,122.287 53.883,122.333 53.831 C 122.379 53.779,122.904 53.365,123.500 52.910 C 124.096 52.455,124.621 52.040,124.667 51.987 C 124.712 51.934,125.688 51.186,126.833 50.324 C 127.979 49.462,128.954 48.714,129.000 48.661 C 129.080 48.569,132.992 45.659,135.692 43.683 C 136.393 43.170,137.879 42.112,138.994 41.333 C 140.109 40.554,141.110 39.840,141.219 39.746 C 141.328 39.653,141.829 39.299,142.333 38.961 C 142.837 38.623,143.625 38.079,144.083 37.752 C 145.518 36.731,146.706 35.925,147.110 35.699 C 147.556 35.451,147.598 35.222,147.270 34.846 C 146.847 34.361,145.500 32.314,145.500 32.156 C 145.500 32.070,145.425 32.000,145.333 32.000 C 145.242 32.000,145.167 32.059,145.167 32.130 C 145.167 32.202,144.960 32.350,144.708 32.460 C 144.456 32.569,143.784 32.958,143.215 33.323 L 142.181 33.988 141.801 33.452 C 141.592 33.158,141.295 32.767,141.141 32.583 C 140.702 32.060,139.791 30.917,139.333 30.315 C 139.104 30.013,138.654 29.455,138.333 29.075 C 138.012 28.695,136.850 27.238,135.750 25.837 C 134.650 24.436,133.674 23.206,133.581 23.103 C 133.488 23.001,133.001 22.392,132.498 21.751 C 131.995 21.110,131.491 20.472,131.379 20.334 C 131.267 20.196,130.640 19.408,129.986 18.583 C 129.332 17.758,128.524 16.754,128.190 16.351 C 127.856 15.949,127.558 15.555,127.528 15.476 C 127.497 15.398,123.349 15.333,118.310 15.333 C 111.025 15.333,109.172 15.376,109.269 15.542 M175.000 40.250 L 175.000 59.167 189.208 59.168 C 197.750 59.168,203.915 59.102,204.667 59.002 C 207.970 58.561,209.348 58.310,210.083 58.013 C 210.267 57.939,210.867 57.707,211.417 57.497 C 216.425 55.589,218.500 50.175,218.500 39.014 C 218.500 28.226,216.000 23.816,209.000 22.256 C 208.313 22.102,207.450 21.908,207.083 21.824 C 205.451 21.449,201.076 21.333,188.467 21.333 L 175.000 21.333 175.000 40.250 M203.722 25.252 C 208.587 25.858,210.630 27.083,211.555 29.951 C 213.143 34.872,213.135 45.727,211.541 50.167 C 210.576 52.853,208.330 54.427,204.750 54.927 C 204.292 54.991,203.767 55.075,203.583 55.113 C 202.539 55.335,196.884 55.487,189.458 55.493 L 181.000 55.500 181.000 40.250 L 181.000 25.000 191.347 25.000 C 199.583 25.000,202.107 25.051,203.722 25.252 M239.960 32.118 C 240.168 32.158,240.468 32.156,240.627 32.115 C 240.786 32.073,240.617 32.040,240.250 32.042 C 239.883 32.044,239.753 32.078,239.960 32.118 M243.294 32.118 C 243.501 32.158,243.801 32.156,243.960 32.115 C 244.120 32.073,243.950 32.040,243.583 32.042 C 243.217 32.044,243.086 32.078,243.294 32.118 M238.417 32.341 C 238.184 32.446,238.285 32.461,238.750 32.391 C 239.117 32.335,239.448 32.262,239.486 32.228 C 239.629 32.102,238.737 32.196,238.417 32.341 M226.500 45.894 L 226.500 59.167 229.240 59.167 L 231.979 59.167 232.043 50.208 C 232.111 40.640,232.101 40.763,232.972 39.055 C 233.481 38.057,234.586 37.055,235.899 36.403 C 237.090 35.810,236.847 35.772,235.558 36.350 C 234.214 36.952,232.516 38.934,232.263 40.194 C 232.239 40.316,232.167 40.604,232.104 40.833 C 231.882 41.637,231.855 42.649,231.843 50.792 C 231.834 56.403,231.775 59.000,231.655 59.000 C 231.559 59.000,231.531 58.918,231.594 58.817 C 231.676 58.683,231.613 58.683,231.364 58.817 C 230.882 59.075,230.333 59.044,230.333 58.759 C 230.333 58.627,230.167 58.402,229.963 58.259 C 229.759 58.117,229.669 58.000,229.763 58.000 C 229.857 58.000,230.023 58.090,230.133 58.200 C 230.289 58.356,230.333 58.315,230.333 58.016 C 230.333 57.752,230.259 57.660,230.097 57.722 C 229.909 57.794,229.916 57.716,230.134 57.336 C 230.285 57.074,230.468 56.897,230.541 56.942 C 230.615 56.988,230.654 56.925,230.629 56.804 C 230.604 56.682,230.713 56.594,230.875 56.606 C 231.035 56.619,231.167 56.590,231.167 56.542 C 231.167 56.493,231.035 56.346,230.875 56.214 C 230.715 56.083,230.689 56.030,230.817 56.097 C 230.982 56.182,231.012 56.154,230.917 56.001 C 230.812 55.830,230.735 55.848,230.563 56.083 C 230.443 56.248,230.384 56.446,230.432 56.525 C 230.480 56.603,230.445 56.667,230.353 56.667 C 230.261 56.667,230.140 56.592,230.083 56.500 C 230.027 56.408,230.060 56.333,230.157 56.333 C 230.479 56.333,230.339 55.905,230.009 55.880 C 229.774 55.862,229.712 55.932,229.784 56.136 C 229.860 56.353,229.835 56.373,229.676 56.226 C 229.512 56.076,229.512 55.953,229.673 55.643 C 229.856 55.290,229.820 55.301,229.314 55.750 C 228.873 56.142,228.832 56.158,229.124 55.824 C 229.427 55.479,229.458 55.353,229.290 55.165 C 229.115 54.968,229.127 54.966,229.375 55.153 C 229.535 55.275,229.672 55.346,229.679 55.312 C 229.839 54.509,229.833 54.459,229.601 54.652 C 229.417 54.804,229.335 54.804,229.239 54.649 C 229.165 54.530,229.185 54.492,229.289 54.556 C 229.384 54.615,229.564 54.537,229.689 54.384 C 229.888 54.139,229.880 54.118,229.621 54.215 C 229.370 54.309,229.352 54.277,229.502 53.996 C 229.599 53.815,229.726 53.667,229.784 53.667 C 229.842 53.667,229.842 53.713,229.786 53.770 C 229.678 53.877,230.059 54.333,230.256 54.333 C 230.318 54.333,230.324 54.217,230.270 54.075 C 230.215 53.932,230.239 53.859,230.324 53.911 C 230.408 53.963,230.525 53.927,230.584 53.832 C 230.643 53.736,230.630 53.678,230.554 53.701 C 230.178 53.819,229.677 53.113,229.967 52.873 C 230.212 52.671,230.214 52.651,229.982 52.722 C 229.790 52.781,229.719 52.703,229.732 52.446 C 229.743 52.218,229.871 52.075,230.083 52.053 C 230.346 52.026,230.355 52.037,230.123 52.106 C 229.961 52.153,229.874 52.265,229.929 52.354 C 229.992 52.455,230.118 52.443,230.265 52.321 C 230.446 52.171,230.567 52.178,230.792 52.352 C 231.065 52.563,231.066 52.557,230.813 52.247 C 230.665 52.065,230.575 51.829,230.615 51.721 C 230.659 51.599,230.566 51.558,230.366 51.610 C 230.136 51.670,230.018 51.588,229.948 51.319 C 229.861 50.985,229.818 50.970,229.550 51.181 C 229.271 51.401,229.267 51.395,229.500 51.094 C 229.727 50.800,229.723 50.781,229.458 50.880 C 229.262 50.954,229.167 50.908,229.167 50.740 C 229.167 50.602,229.279 50.447,229.416 50.394 C 229.553 50.341,229.623 50.231,229.573 50.149 C 229.522 50.067,229.585 50.000,229.712 50.000 C 229.840 50.000,229.944 50.112,229.944 50.250 C 229.944 50.391,229.794 50.501,229.597 50.503 C 229.321 50.505,229.300 50.537,229.492 50.658 C 229.625 50.742,229.788 50.778,229.853 50.738 C 229.918 50.698,230.040 50.869,230.123 51.120 C 230.270 51.559,230.278 51.562,230.372 51.204 C 230.425 51.000,230.409 50.833,230.335 50.833 C 230.262 50.833,230.213 50.653,230.226 50.433 C 230.239 50.212,230.301 50.064,230.363 50.102 C 230.426 50.141,230.531 50.084,230.598 49.977 C 230.670 49.860,230.646 49.826,230.537 49.894 C 230.438 49.955,230.309 49.929,230.252 49.836 C 230.194 49.743,230.231 49.667,230.333 49.667 C 230.436 49.667,230.479 49.602,230.430 49.522 C 230.381 49.442,230.041 49.458,229.671 49.556 C 229.240 49.671,228.944 49.678,228.841 49.574 C 228.737 49.470,228.870 49.406,229.215 49.394 C 230.161 49.361,231.293 49.043,230.694 48.979 C 230.587 48.968,230.406 48.946,230.292 48.932 C 230.177 48.917,230.021 48.983,229.944 49.078 C 229.864 49.177,229.839 49.091,229.887 48.875 C 229.932 48.669,229.900 48.458,229.815 48.405 C 229.730 48.353,229.702 48.244,229.752 48.164 C 229.861 47.988,229.256 47.633,229.105 47.784 C 229.047 47.842,229.000 47.806,229.000 47.704 C 229.000 47.603,229.075 47.473,229.167 47.417 C 229.258 47.360,229.333 47.393,229.333 47.490 C 229.333 47.587,229.390 47.655,229.458 47.640 C 229.720 47.585,230.143 47.869,230.075 48.055 C 230.035 48.162,230.065 48.346,230.140 48.464 C 230.323 48.751,230.910 48.504,230.940 48.127 C 230.952 47.967,230.904 47.873,230.832 47.918 C 230.760 47.962,230.656 47.879,230.600 47.734 C 230.531 47.552,230.617 47.438,230.874 47.369 L 231.250 47.269 230.846 47.171 C 230.371 47.057,230.157 46.652,230.618 46.741 C 231.159 46.845,231.569 46.426,231.245 46.102 C 230.884 45.741,230.784 45.763,230.995 46.157 C 231.110 46.371,231.112 46.514,231.000 46.583 C 230.909 46.640,230.827 46.551,230.820 46.385 C 230.812 46.208,230.772 46.170,230.723 46.293 C 230.676 46.408,230.566 46.457,230.478 46.403 C 230.377 46.341,230.384 46.223,230.496 46.088 C 230.628 45.929,230.606 45.846,230.412 45.771 C 230.268 45.716,230.192 45.739,230.244 45.824 C 230.296 45.908,230.275 46.016,230.197 46.064 C 230.119 46.113,230.052 46.062,230.048 45.951 C 230.043 45.840,229.987 45.624,229.923 45.471 C 229.833 45.254,229.910 45.179,230.266 45.137 C 230.518 45.108,230.755 44.971,230.792 44.833 C 230.842 44.646,230.822 44.636,230.710 44.794 C 230.545 45.026,229.334 45.007,229.334 44.772 C 229.333 44.693,229.478 44.666,229.656 44.712 C 229.847 44.762,230.016 44.698,230.072 44.554 C 230.140 44.376,230.079 44.339,229.846 44.413 C 229.485 44.527,229.226 44.253,229.523 44.069 C 229.645 43.994,229.674 44.021,229.599 44.141 C 229.534 44.247,229.560 44.333,229.657 44.333 C 229.754 44.333,229.833 44.256,229.833 44.161 C 229.833 44.044,229.941 44.046,230.167 44.167 C 230.350 44.265,230.500 44.296,230.500 44.235 C 230.500 44.175,230.600 44.209,230.722 44.310 C 230.889 44.449,230.944 44.438,230.944 44.266 C 230.944 44.140,230.826 44.057,230.681 44.081 C 230.139 44.169,229.788 43.617,230.269 43.433 C 230.464 43.358,230.510 43.401,230.437 43.590 C 230.380 43.740,230.407 43.807,230.502 43.749 C 230.593 43.693,230.667 43.501,230.667 43.323 C 230.667 43.146,230.759 43.019,230.871 43.042 C 230.983 43.065,231.092 42.896,231.113 42.667 C 231.144 42.319,231.131 42.305,231.034 42.583 C 230.886 43.005,230.245 43.111,230.102 42.738 C 230.022 42.529,230.066 42.487,230.290 42.565 C 230.552 42.657,230.555 42.645,230.319 42.459 C 230.059 42.254,230.068 41.753,230.329 41.914 C 230.402 41.959,230.542 41.901,230.639 41.784 C 230.772 41.623,230.721 41.563,230.425 41.539 C 230.170 41.518,229.940 41.650,229.763 41.920 C 229.538 42.264,229.532 42.333,229.731 42.333 C 229.887 42.333,229.955 42.478,229.925 42.745 C 229.899 42.990,229.949 43.115,230.049 43.053 C 230.142 42.995,230.168 43.030,230.106 43.130 C 229.878 43.498,229.355 43.297,229.506 42.900 C 229.664 42.486,229.570 42.317,229.251 42.440 C 229.131 42.485,228.981 42.438,228.917 42.334 C 228.843 42.215,228.908 42.164,229.091 42.197 C 229.251 42.226,229.415 42.156,229.455 42.042 C 229.503 41.904,229.431 41.870,229.244 41.942 C 228.992 42.039,228.996 42.009,229.270 41.688 C 229.441 41.489,229.604 41.396,229.633 41.482 C 229.662 41.569,229.874 41.539,230.113 41.415 C 230.349 41.293,230.626 41.212,230.729 41.236 C 230.832 41.259,230.860 41.247,230.791 41.208 C 230.721 41.170,230.707 41.070,230.759 40.986 C 230.811 40.902,230.732 40.833,230.583 40.833 C 230.435 40.833,230.360 40.908,230.417 41.000 C 230.473 41.092,230.450 41.167,230.364 41.167 C 230.180 41.167,229.960 40.200,230.094 39.983 C 230.145 39.901,230.088 39.832,229.968 39.831 C 229.809 39.829,229.818 39.783,230.000 39.661 C 230.216 39.516,230.205 39.458,229.917 39.230 C 229.593 38.973,229.595 38.969,229.999 39.090 C 230.361 39.199,230.387 39.182,230.199 38.956 C 229.952 38.658,230.202 38.402,230.542 38.605 C 230.708 38.705,230.708 38.679,230.543 38.475 C 230.429 38.334,230.391 38.164,230.458 38.097 C 230.526 38.030,230.441 37.897,230.270 37.801 C 230.017 37.659,230.002 37.598,230.188 37.465 C 230.366 37.338,230.354 37.322,230.133 37.392 C 229.921 37.461,229.877 37.413,229.956 37.200 C 230.052 36.944,230.032 36.941,229.749 37.167 C 229.577 37.304,229.488 37.329,229.552 37.223 C 229.616 37.116,229.575 36.989,229.459 36.941 C 229.344 36.894,229.400 36.871,229.583 36.890 C 229.767 36.910,230.006 36.982,230.115 37.050 C 230.239 37.127,230.320 37.063,230.331 36.879 C 230.341 36.716,230.365 36.283,230.385 35.917 C 230.405 35.531,230.507 35.241,230.627 35.229 C 231.002 35.191,231.013 35.169,230.826 34.820 C 230.724 34.630,230.541 34.513,230.418 34.560 C 230.295 34.607,230.154 34.540,230.104 34.411 C 229.993 34.121,230.267 33.925,230.426 34.182 C 230.508 34.314,230.583 34.303,230.685 34.143 C 230.886 33.825,230.868 33.626,230.649 33.761 C 230.548 33.823,230.601 33.659,230.766 33.396 C 230.931 33.132,231.002 32.972,230.923 33.040 C 230.845 33.108,230.661 33.074,230.515 32.965 C 230.293 32.798,230.284 32.804,230.458 33.000 C 230.707 33.279,230.736 33.562,230.500 33.417 C 230.408 33.360,230.333 33.398,230.333 33.500 C 230.333 33.602,230.253 33.637,230.155 33.576 C 230.057 33.516,230.017 33.364,230.065 33.238 C 230.198 32.892,229.996 32.837,228.179 32.725 L 226.500 32.621 226.500 45.894 M231.765 33.083 C 231.707 33.313,231.568 33.501,231.455 33.503 C 231.313 33.504,231.321 33.550,231.483 33.652 C 231.635 33.749,231.670 33.906,231.583 34.108 C 231.510 34.278,231.435 34.604,231.417 34.833 C 231.399 35.063,231.373 35.352,231.359 35.478 C 231.342 35.625,231.191 35.678,230.932 35.629 C 230.645 35.574,230.555 35.616,230.616 35.775 C 230.749 36.121,231.497 35.861,232.218 35.217 C 233.005 34.514,234.369 33.653,235.250 33.303 C 236.658 32.743,236.813 32.662,236.250 32.781 C 235.344 32.973,233.600 33.857,232.598 34.634 L 231.613 35.398 231.720 34.574 C 231.780 34.121,231.872 33.506,231.924 33.208 C 232.037 32.572,231.917 32.478,231.765 33.083 M230.833 34.157 C 230.833 34.436,231.129 34.505,231.227 34.249 C 231.285 34.098,231.227 34.000,231.078 34.000 C 230.943 34.000,230.833 34.071,230.833 34.157 M230.079 34.659 C 230.133 34.747,230.288 34.776,230.424 34.724 C 230.852 34.560,230.519 35.104,230.065 35.311 C 229.816 35.425,229.696 35.579,229.766 35.693 C 229.840 35.812,229.811 35.839,229.692 35.766 C 229.587 35.701,229.500 35.726,229.500 35.823 C 229.500 36.128,229.999 36.015,230.012 35.708 C 230.022 35.460,230.043 35.466,230.153 35.747 C 230.339 36.225,230.182 36.647,229.828 36.620 C 229.661 36.608,229.561 36.537,229.606 36.463 C 229.652 36.389,229.760 36.371,229.845 36.424 C 229.930 36.477,230.000 36.440,230.000 36.343 C 230.000 36.102,229.616 36.121,229.342 36.375 C 229.160 36.544,229.144 36.538,229.257 36.340 C 229.481 35.949,229.495 35.349,229.279 35.399 C 229.171 35.425,229.143 35.413,229.215 35.373 C 229.288 35.333,229.253 35.177,229.137 35.025 C 229.022 34.874,228.990 34.803,229.067 34.867 C 229.144 34.931,229.315 34.875,229.448 34.742 C 229.729 34.461,229.939 34.434,230.079 34.659 M229.708 34.786 C 229.473 34.871,229.421 35.333,229.646 35.333 C 229.865 35.333,230.204 34.875,230.050 34.787 C 229.977 34.746,229.823 34.745,229.708 34.786 M239.958 35.456 C 240.440 35.490,241.227 35.490,241.708 35.456 C 242.190 35.423,241.796 35.395,240.833 35.395 C 239.871 35.395,239.477 35.423,239.958 35.456 M237.583 35.668 C 237.369 35.761,237.547 35.778,238.083 35.716 C 238.542 35.663,238.948 35.593,238.986 35.560 C 239.131 35.435,237.902 35.530,237.583 35.668 M244.347 35.887 C 244.612 36.090,245.667 36.640,245.667 36.575 C 245.667 36.464,244.618 35.835,244.431 35.834 C 244.347 35.834,244.309 35.857,244.347 35.887 M230.514 36.917 C 230.509 37.100,230.578 37.362,230.667 37.500 C 230.881 37.831,230.881 37.415,230.667 36.917 L 230.523 36.583 230.514 36.917 M230.083 37.833 C 230.140 37.925,230.065 38.000,229.917 38.000 C 229.755 38.000,229.695 38.077,229.766 38.192 C 229.838 38.309,229.812 38.340,229.700 38.270 C 229.500 38.147,229.613 37.667,229.841 37.667 C 229.918 37.667,230.027 37.742,230.083 37.833 M230.907 38.089 C 231.085 38.223,231.347 38.333,231.490 38.332 C 231.633 38.332,231.535 38.219,231.273 38.082 C 230.668 37.767,230.486 37.770,230.907 38.089 M229.551 38.719 C 229.473 38.845,229.419 38.839,229.372 38.699 C 229.335 38.588,229.237 38.540,229.154 38.591 C 229.072 38.642,229.049 38.566,229.105 38.421 C 229.182 38.219,229.258 38.202,229.434 38.348 C 229.560 38.452,229.613 38.619,229.551 38.719 M230.319 39.458 C 230.312 39.527,230.287 39.753,230.264 39.961 C 230.217 40.379,230.555 40.755,230.826 40.588 C 230.922 40.529,231.000 40.572,231.000 40.685 C 231.000 40.797,231.048 40.841,231.107 40.782 C 231.166 40.723,231.124 40.567,231.015 40.435 C 230.855 40.242,230.875 40.179,231.116 40.117 C 231.318 40.064,231.272 40.032,230.974 40.019 C 230.617 40.004,230.548 39.935,230.618 39.667 C 230.667 39.480,230.623 39.333,230.519 39.333 C 230.417 39.333,230.327 39.390,230.319 39.458 M145.904 40.712 C 145.439 41.100,144.731 41.679,144.331 42.000 C 143.931 42.321,143.262 42.872,142.844 43.225 C 142.425 43.578,141.931 43.991,141.744 44.142 C 141.558 44.293,140.958 44.792,140.412 45.250 C 139.866 45.708,139.238 46.233,139.015 46.417 C 138.342 46.971,136.089 48.902,136.000 49.000 C 135.954 49.050,135.092 49.801,134.083 50.669 C 133.075 51.536,132.168 52.322,132.069 52.414 C 131.969 52.507,131.184 53.221,130.324 54.000 C 127.285 56.753,126.724 57.275,123.059 60.767 C 122.568 61.234,122.167 61.679,122.167 61.756 C 122.167 61.833,122.392 61.680,122.668 61.416 C 122.964 61.132,123.224 61.000,123.304 61.093 C 123.906 61.794,125.435 64.297,125.372 64.478 C 125.283 64.734,125.778 64.230,127.250 62.566 C 127.800 61.945,128.712 60.944,129.276 60.343 C 129.841 59.742,130.505 59.025,130.753 58.750 C 133.381 55.830,140.752 48.728,144.548 45.459 C 146.158 44.072,145.788 43.959,147.751 46.434 C 148.667 47.590,149.792 49.000,150.250 49.568 C 150.708 50.136,151.308 50.890,151.583 51.243 C 151.858 51.596,152.458 52.348,152.917 52.913 C 153.375 53.479,153.938 54.186,154.167 54.485 C 154.396 54.784,154.658 55.116,154.750 55.223 C 154.893 55.390,155.979 56.744,156.376 57.250 C 156.447 57.342,156.661 57.604,156.851 57.833 C 157.040 58.063,157.357 58.463,157.556 58.723 C 157.754 58.984,158.142 59.477,158.417 59.819 C 160.036 61.834,161.715 63.934,161.960 64.250 C 162.031 64.342,162.463 64.904,162.920 65.500 C 163.376 66.096,163.790 66.621,163.838 66.667 C 163.887 66.712,164.705 67.725,165.656 68.917 C 166.608 70.108,167.498 71.215,167.635 71.375 C 167.872 71.652,167.628 71.666,162.817 71.663 L 157.750 71.659 157.096 70.747 C 156.737 70.245,156.321 69.703,156.172 69.542 C 156.024 69.382,155.499 68.725,155.006 68.083 C 154.514 67.442,153.917 66.683,153.680 66.397 C 153.003 65.579,151.550 63.743,150.944 62.939 C 150.745 62.676,150.391 62.226,150.157 61.939 C 149.436 61.057,145.106 55.551,143.848 53.917 C 143.496 53.458,143.048 52.903,142.853 52.683 C 142.659 52.463,142.500 52.227,142.500 52.159 C 142.500 51.584,140.129 52.950,139.578 53.843 C 139.510 53.952,140.992 56.059,141.330 56.333 C 141.386 56.379,141.800 56.904,142.250 57.500 C 142.700 58.096,143.111 58.621,143.163 58.667 C 143.215 58.712,143.668 59.275,144.169 59.917 C 144.669 60.558,145.155 61.170,145.248 61.277 C 145.341 61.383,145.867 62.047,146.417 62.752 C 146.967 63.457,147.904 64.648,148.500 65.398 C 149.096 66.149,150.071 67.391,150.667 68.158 C 151.950 69.810,154.324 72.819,155.061 73.728 C 155.348 74.083,155.643 74.476,155.717 74.603 C 155.856 74.844,172.142 74.963,173.301 74.731 L 173.811 74.629 173.055 73.493 C 172.640 72.868,172.349 72.277,172.408 72.180 C 172.470 72.080,172.423 72.039,172.300 72.085 C 172.173 72.133,171.922 71.884,171.692 71.480 C 171.476 71.102,171.394 70.851,171.509 70.922 C 171.645 71.006,171.676 70.984,171.599 70.859 C 171.534 70.753,171.354 70.666,171.198 70.664 C 170.956 70.662,170.951 70.639,171.167 70.500 C 171.383 70.360,171.380 70.338,171.141 70.336 C 170.985 70.334,170.789 70.112,170.687 69.821 C 170.568 69.477,170.438 69.349,170.296 69.431 C 170.179 69.498,170.137 69.494,170.203 69.421 C 170.375 69.230,169.677 68.307,169.462 68.440 C 169.363 68.502,169.328 68.477,169.384 68.386 C 169.520 68.166,169.021 67.467,168.818 67.593 C 168.730 67.647,168.672 67.630,168.689 67.554 C 168.742 67.318,168.472 66.831,168.335 66.916 C 168.264 66.960,168.116 66.780,168.007 66.517 C 167.898 66.254,167.562 65.769,167.261 65.440 C 166.960 65.111,166.753 64.803,166.801 64.754 C 166.849 64.706,166.759 64.667,166.601 64.667 C 166.443 64.667,166.357 64.596,166.410 64.510 C 166.464 64.424,166.374 64.276,166.212 64.182 C 166.049 64.087,165.987 64.008,166.073 64.005 C 166.159 64.002,166.084 63.860,165.906 63.689 C 165.729 63.518,165.476 63.222,165.345 63.031 C 165.213 62.841,165.043 62.724,164.966 62.771 C 164.888 62.819,164.846 62.788,164.871 62.703 C 164.920 62.535,164.137 61.388,163.423 60.583 C 163.179 60.308,162.746 59.765,162.462 59.375 C 162.177 58.985,161.881 58.667,161.805 58.667 C 161.729 58.667,161.666 58.573,161.665 58.458 C 161.663 58.344,161.363 57.928,160.998 57.534 C 160.632 57.141,160.333 56.770,160.333 56.710 C 160.333 56.650,160.151 56.410,159.927 56.176 C 159.529 55.758,159.328 55.506,157.844 53.555 C 157.438 53.020,156.985 52.471,156.839 52.333 C 156.692 52.196,156.274 51.673,155.911 51.171 C 155.547 50.669,154.987 49.949,154.667 49.572 C 154.012 48.802,153.750 48.476,152.281 46.602 C 151.714 45.879,150.967 44.941,150.621 44.518 C 150.275 44.096,149.938 43.675,149.871 43.583 C 149.804 43.492,149.562 43.185,149.333 42.901 C 149.104 42.617,148.692 42.095,148.417 41.740 C 146.876 39.752,146.997 39.802,145.904 40.712 M229.831 40.625 C 229.836 41.039,229.583 40.822,229.558 40.391 C 229.539 40.075,229.574 40.015,229.680 40.183 C 229.762 40.311,229.829 40.510,229.831 40.625 M252.048 40.750 C 252.049 41.208,252.081 41.376,252.120 41.123 C 252.158 40.869,252.157 40.494,252.117 40.289 C 252.078 40.084,252.046 40.292,252.048 40.750 M229.974 46.353 C 230.148 46.632,230.151 46.746,229.989 46.895 C 229.832 47.039,229.807 47.020,229.879 46.812 C 230.022 46.402,229.686 46.149,229.266 46.350 C 228.926 46.514,228.925 46.512,229.240 46.259 C 229.658 45.924,229.710 45.931,229.974 46.353 M229.665 46.913 C 229.763 47.169,229.912 47.293,230.057 47.237 C 230.206 47.180,230.328 47.289,230.389 47.532 C 230.543 48.148,230.536 48.238,230.328 48.307 C 230.201 48.350,230.168 48.258,230.234 48.049 C 230.309 47.813,230.223 47.664,229.919 47.501 C 229.688 47.378,229.500 47.135,229.500 46.962 C 229.500 46.766,229.427 46.692,229.308 46.766 C 229.188 46.840,229.160 46.812,229.234 46.692 C 229.408 46.411,229.490 46.452,229.665 46.913 M231.240 50.570 C 231.063 50.700,230.961 50.850,231.015 50.904 C 231.069 50.958,231.249 50.852,231.416 50.668 C 231.770 50.276,231.697 50.236,231.240 50.570 M230.339 52.823 C 230.241 53.006,230.230 53.186,230.314 53.238 C 230.395 53.288,230.498 53.143,230.541 52.915 C 230.636 52.417,230.572 52.387,230.339 52.823 M230.783 54.450 C 230.563 54.507,230.529 54.584,230.656 54.737 C 230.789 54.897,230.717 54.939,230.346 54.917 C 229.895 54.891,229.738 55.294,230.071 55.626 C 230.251 55.806,230.656 55.499,230.562 55.254 C 230.487 55.060,230.537 55.024,230.760 55.110 C 230.984 55.196,231.033 55.161,230.959 54.966 C 230.904 54.824,230.944 54.623,231.046 54.520 C 231.149 54.417,231.200 54.342,231.158 54.353 C 231.117 54.363,230.948 54.407,230.783 54.450 M231.208 56.944 C 230.945 57.050,230.931 57.551,231.194 57.463 C 231.300 57.428,231.406 57.271,231.429 57.116 C 231.452 56.961,231.458 56.839,231.444 56.846 C 231.429 56.854,231.323 56.897,231.208 56.944 M229.629 57.408 C 229.603 57.721,229.546 57.774,229.379 57.635 C 229.216 57.500,229.209 57.400,229.352 57.228 C 229.617 56.908,229.668 56.941,229.629 57.408 M230.742 57.821 C 230.794 57.904,230.741 58.008,230.626 58.052 C 230.511 58.096,230.585 58.124,230.792 58.114 C 231.224 58.093,231.285 57.914,230.908 57.770 C 230.766 57.715,230.691 57.738,230.742 57.821 M230.658 58.573 C 230.869 58.827,231.333 58.750,231.333 58.462 C 231.333 58.364,231.227 58.380,231.083 58.500 C 230.911 58.643,230.833 58.650,230.833 58.520 C 230.833 58.418,230.749 58.333,230.646 58.333 C 230.514 58.333,230.517 58.403,230.658 58.573 M173.652 73.583 C 173.941 74.149,174.161 74.426,174.164 74.227 C 174.166 74.122,174.012 73.860,173.824 73.643 C 173.555 73.334,173.518 73.321,173.652 73.583 " stroke="none" fill="#0a8ecb" fill-rule="evenodd"></path><path id="path4" d="M187.906 9.495 C 187.362 9.752,186.103 10.345,185.109 10.814 C 184.115 11.283,183.277 11.667,183.246 11.667 C 183.188 11.667,177.614 14.353,174.750 15.762 C 173.833 16.213,173.044 16.635,172.995 16.699 C 172.947 16.764,172.735 16.880,172.526 16.958 L 172.144 17.099 172.739 17.983 C 173.066 18.469,173.333 18.934,173.333 19.017 C 173.333 19.273,173.642 19.182,173.813 18.875 C 173.903 18.715,174.020 18.603,174.072 18.627 C 174.183 18.677,175.095 18.274,175.577 17.962 C 176.113 17.615,177.014 17.094,178.203 16.445 L 179.323 15.833 184.652 15.833 C 188.500 15.833,190.013 15.780,190.099 15.641 C 190.178 15.514,190.144 15.494,190.000 15.583 C 189.851 15.675,189.822 15.653,189.908 15.514 C 189.977 15.402,190.130 15.348,190.248 15.393 C 190.394 15.449,190.434 15.368,190.375 15.140 C 190.308 14.884,190.254 14.857,190.146 15.028 C 190.039 15.196,190.004 15.177,190.003 14.948 C 190.001 14.783,189.925 14.693,189.833 14.750 C 189.742 14.807,189.667 14.774,189.667 14.677 C 189.667 14.579,189.779 14.500,189.917 14.500 C 190.189 14.500,190.203 14.469,190.251 13.792 L 190.284 13.333 187.517 13.331 C 184.605 13.328,183.885 13.191,184.759 12.807 C 185.029 12.687,185.287 12.549,185.333 12.498 C 185.379 12.447,185.993 12.112,186.698 11.753 C 187.403 11.395,187.942 11.042,187.898 10.969 C 187.853 10.897,187.923 10.878,188.053 10.928 C 188.184 10.978,188.403 10.906,188.542 10.768 C 188.680 10.630,188.987 10.468,189.223 10.409 C 189.460 10.349,189.750 10.177,189.868 10.025 C 190.058 9.783,190.051 9.776,189.807 9.966 C 189.515 10.194,189.492 10.176,189.105 9.431 L 188.896 9.029 187.906 9.495 M305.823 32.392 C 305.783 32.428,305.262 32.506,304.667 32.565 C 304.071 32.624,303.283 32.750,302.917 32.845 C 302.550 32.940,302.137 33.037,302.000 33.061 C 301.396 33.168,300.725 33.400,300.421 33.608 C 300.240 33.732,299.994 33.833,299.873 33.833 C 299.630 33.833,299.290 34.081,298.863 34.571 C 298.709 34.747,298.416 35.068,298.212 35.283 C 298.008 35.498,297.844 35.691,297.848 35.712 C 297.857 35.764,297.665 36.299,297.392 36.979 C 297.268 37.288,297.167 37.707,297.167 37.909 C 297.167 38.112,297.122 38.322,297.068 38.376 C 297.014 38.431,296.943 38.856,296.911 39.321 L 296.852 40.167 299.260 40.188 C 300.583 40.199,301.787 40.218,301.935 40.229 C 302.139 40.245,302.215 40.070,302.249 39.500 C 302.421 36.650,305.402 35.448,312.250 35.465 C 319.691 35.483,320.990 36.522,321.127 42.561 L 321.194 45.539 320.805 45.171 C 318.016 42.537,303.681 42.163,298.964 44.602 C 296.214 46.023,294.740 49.800,295.621 53.167 C 295.753 53.671,295.874 54.196,295.889 54.333 C 295.904 54.471,295.956 54.621,296.004 54.667 C 296.053 54.712,296.326 55.050,296.611 55.417 C 297.323 56.331,298.333 57.387,298.336 57.220 C 298.337 57.145,298.394 57.163,298.461 57.259 C 298.593 57.449,299.819 58.044,300.500 58.249 C 300.729 58.318,300.992 58.433,301.083 58.506 C 302.021 59.245,310.584 59.781,314.000 59.314 C 317.184 58.879,319.923 57.937,321.009 56.905 C 321.511 56.428,321.725 56.386,321.597 56.792 C 321.547 56.952,321.442 57.552,321.364 58.125 L 321.222 59.167 324.028 59.167 L 326.833 59.167 326.833 49.843 C 326.833 44.091,326.772 40.482,326.674 40.421 C 326.586 40.367,326.554 40.221,326.601 40.097 C 326.750 39.710,326.324 37.793,325.882 36.858 C 324.975 34.941,323.081 33.567,320.667 33.076 C 320.438 33.029,319.688 32.869,319.000 32.720 C 317.844 32.469,306.062 32.176,305.823 32.392 M315.583 46.411 C 319.452 46.939,320.556 47.534,321.234 49.455 C 322.094 51.891,320.943 54.109,318.333 55.044 C 313.937 56.620,303.695 56.420,302.285 54.730 C 302.174 54.597,301.992 54.386,301.881 54.262 C 301.013 53.292,300.779 50.074,301.471 48.643 C 302.083 47.379,303.153 46.728,304.917 46.550 C 305.375 46.503,306.012 46.408,306.333 46.339 C 307.439 46.099,313.653 46.147,315.583 46.411 " stroke="none" fill="#2ab1e3" fill-rule="evenodd"></path><path id="path5" d="M171.083 17.634 C 170.624 17.881,169.929 18.221,169.538 18.388 C 169.147 18.556,168.603 18.882,168.330 19.112 C 168.057 19.342,167.833 19.474,167.833 19.406 C 167.833 19.337,167.702 19.398,167.542 19.540 C 167.381 19.683,166.387 20.220,165.333 20.734 C 164.279 21.248,162.817 22.006,162.083 22.419 C 161.350 22.832,160.525 23.273,160.250 23.400 C 159.975 23.527,159.637 23.733,159.498 23.857 C 159.359 23.982,159.277 24.066,159.314 24.045 C 159.352 24.024,159.749 24.565,160.196 25.247 C 161.061 26.564,161.333 26.846,161.333 26.427 C 161.333 26.284,161.465 26.165,161.625 26.163 C 161.785 26.161,162.104 26.013,162.333 25.833 C 162.563 25.654,162.811 25.506,162.887 25.504 C 162.962 25.502,163.350 25.275,163.750 25.000 C 164.150 24.725,164.527 24.500,164.589 24.500 C 164.651 24.500,165.035 24.275,165.443 24.000 C 165.850 23.725,166.216 23.500,166.257 23.500 C 166.297 23.500,166.856 23.162,167.500 22.750 C 168.144 22.337,168.698 22.000,168.733 22.000 C 168.767 22.000,169.572 21.513,170.523 20.917 C 171.473 20.321,172.494 19.707,172.792 19.553 C 173.090 19.398,173.333 19.181,173.333 19.071 C 173.333 18.778,172.279 17.186,172.083 17.185 C 171.992 17.185,171.541 17.387,171.083 17.634 M267.583 32.534 C 267.125 32.607,266.619 32.636,266.458 32.599 C 266.298 32.562,266.167 32.604,266.167 32.693 C 266.167 32.782,265.998 32.831,265.792 32.802 C 265.491 32.760,265.424 32.823,265.455 33.119 C 265.482 33.377,265.423 33.460,265.257 33.396 C 265.122 33.345,265.064 33.193,265.122 33.042 C 265.190 32.865,265.158 32.819,265.024 32.902 C 264.914 32.970,264.838 33.113,264.855 33.221 C 264.872 33.329,264.831 33.542,264.763 33.695 C 264.577 34.119,264.951 34.726,265.234 34.461 C 265.418 34.290,265.409 34.220,265.186 34.057 C 265.038 33.949,264.973 33.804,265.042 33.736 C 265.111 33.667,265.167 33.708,265.167 33.826 C 265.167 33.979,265.227 33.991,265.375 33.868 C 265.531 33.739,265.589 33.794,265.607 34.087 C 265.620 34.302,265.526 34.518,265.398 34.567 C 265.271 34.616,265.167 34.738,265.167 34.838 C 265.167 34.938,265.236 34.977,265.322 34.924 C 265.407 34.871,265.524 34.904,265.582 34.997 C 265.976 35.636,264.803 34.895,264.266 34.167 C 264.069 33.900,263.996 33.860,264.063 34.055 C 264.120 34.223,264.167 34.471,264.167 34.607 C 264.167 34.742,264.226 34.816,264.300 34.771 C 264.601 34.585,264.906 34.961,264.677 35.237 C 264.497 35.455,264.499 35.500,264.688 35.503 C 264.874 35.505,264.872 35.533,264.677 35.657 C 264.491 35.774,264.482 35.860,264.634 36.044 C 264.742 36.174,264.775 36.340,264.707 36.413 C 264.639 36.486,264.771 36.444,265.000 36.321 C 265.229 36.198,265.518 36.117,265.642 36.143 C 265.766 36.168,265.822 36.117,265.768 36.029 C 265.706 35.929,265.888 35.918,266.251 36.000 C 266.619 36.083,266.833 36.070,266.833 35.963 C 266.833 35.870,266.983 35.834,267.167 35.882 C 267.350 35.930,267.500 35.912,267.500 35.842 C 267.500 35.693,267.553 35.690,271.250 35.622 C 275.291 35.548,279.833 36.021,279.833 36.517 C 279.833 36.599,279.973 36.667,280.143 36.667 C 280.546 36.667,281.506 37.599,281.864 38.337 C 282.330 39.303,282.423 39.783,282.608 42.208 L 282.706 43.500 272.325 43.500 C 266.616 43.500,261.978 43.533,262.018 43.574 C 262.059 43.614,262.665 43.662,263.366 43.681 C 264.623 43.714,264.638 43.720,264.494 44.099 C 264.382 44.395,264.400 44.464,264.574 44.397 C 264.698 44.350,264.850 44.392,264.911 44.491 C 264.973 44.591,265.088 44.632,265.167 44.583 C 265.246 44.535,265.365 44.582,265.431 44.690 C 265.503 44.807,265.479 44.840,265.371 44.773 C 265.271 44.712,265.143 44.737,265.085 44.831 C 265.027 44.924,265.069 45.000,265.177 45.000 C 265.321 45.000,265.317 45.069,265.160 45.258 C 265.004 45.446,264.913 45.463,264.825 45.320 C 264.753 45.204,264.611 45.180,264.477 45.261 C 264.288 45.375,264.288 45.351,264.479 45.115 C 264.766 44.761,264.423 44.720,264.076 45.067 C 263.875 45.268,263.876 45.314,264.085 45.394 C 264.234 45.452,264.286 45.597,264.219 45.771 C 264.145 45.963,264.173 46.016,264.305 45.934 C 264.412 45.868,264.500 45.893,264.500 45.990 C 264.500 46.087,264.406 46.168,264.292 46.169 C 264.151 46.171,264.163 46.222,264.329 46.327 C 264.571 46.480,264.890 46.226,264.746 45.994 C 264.711 45.936,264.791 45.889,264.924 45.889 C 265.219 45.889,265.234 46.033,264.967 46.300 C 264.811 46.456,264.820 46.507,265.008 46.533 C 265.141 46.551,264.462 46.611,263.500 46.667 C 262.537 46.723,267.699 46.765,274.970 46.760 L 288.191 46.750 288.227 45.000 C 288.375 37.805,285.714 33.167,281.439 33.167 C 281.228 33.167,281.003 33.114,280.940 33.051 C 280.876 32.987,280.732 32.922,280.620 32.907 C 280.508 32.891,279.967 32.819,279.417 32.746 C 278.867 32.674,278.192 32.578,277.917 32.534 C 277.048 32.395,268.455 32.395,267.583 32.534 M298.468 34.792 C 298.150 35.162,297.956 35.500,298.062 35.500 C 298.107 35.500,298.304 35.275,298.500 35.000 C 298.888 34.455,298.868 34.325,298.468 34.792 M263.852 34.917 C 263.838 35.255,264.284 35.881,264.403 35.689 C 264.467 35.585,264.432 35.500,264.325 35.500 C 264.218 35.500,264.176 35.384,264.230 35.241 C 264.285 35.099,264.262 35.025,264.179 35.076 C 264.096 35.127,263.990 35.075,263.944 34.959 C 263.898 34.844,263.856 34.825,263.852 34.917 M311.960 35.451 C 312.168 35.491,312.468 35.490,312.627 35.448 C 312.786 35.406,312.617 35.374,312.250 35.375 C 311.883 35.377,311.753 35.411,311.960 35.451 M297.352 36.685 C 297.249 36.980,297.194 37.250,297.230 37.286 C 297.266 37.321,297.379 37.109,297.481 36.815 C 297.584 36.520,297.639 36.250,297.603 36.214 C 297.568 36.179,297.455 36.391,297.352 36.685 M298.049 40.291 C 298.764 40.322,299.889 40.322,300.549 40.290 C 301.210 40.259,300.625 40.233,299.250 40.233 C 297.875 40.234,297.335 40.259,298.049 40.291 M248.133 41.624 C 248.894 41.655,250.094 41.655,250.800 41.624 C 251.506 41.593,250.883 41.567,249.417 41.567 C 247.950 41.568,247.372 41.593,248.133 41.624 M297.352 45.625 C 296.547 46.400,295.964 47.334,295.764 48.167 L 295.665 48.583 295.861 48.167 C 295.968 47.938,296.171 47.493,296.311 47.180 C 296.451 46.866,296.971 46.210,297.468 45.722 C 297.964 45.233,298.326 44.833,298.272 44.833 C 298.219 44.833,297.804 45.190,297.352 45.625 M295.433 49.350 C 295.372 49.732,295.355 50.077,295.395 50.117 C 295.434 50.157,295.519 49.879,295.583 49.500 C 295.647 49.121,295.665 48.776,295.622 48.733 C 295.579 48.690,295.494 48.968,295.433 49.350 M301.045 51.500 C 301.045 51.913,301.078 52.081,301.118 51.875 C 301.157 51.669,301.157 51.331,301.118 51.125 C 301.078 50.919,301.045 51.087,301.045 51.500 M282.621 52.127 C 282.357 55.269,280.966 55.958,274.583 56.104 C 272.842 56.144,271.192 56.174,270.917 56.170 C 270.642 56.166,270.117 56.159,269.750 56.154 C 268.669 56.140,266.000 55.802,266.070 55.688 C 266.105 55.630,265.923 55.568,265.665 55.550 C 265.093 55.508,264.879 55.923,265.257 56.341 C 265.458 56.563,265.473 56.664,265.318 56.759 C 265.189 56.839,265.158 56.815,265.234 56.692 C 265.306 56.575,265.240 56.500,265.065 56.500 C 264.907 56.500,264.825 56.453,264.883 56.395 C 264.941 56.337,264.913 56.149,264.822 55.978 C 264.709 55.767,264.711 55.667,264.827 55.667 C 264.922 55.667,265.000 55.608,265.000 55.536 C 265.000 55.464,264.856 55.405,264.680 55.405 C 264.480 55.405,264.368 55.512,264.381 55.691 C 264.393 55.848,264.468 55.937,264.547 55.887 C 264.628 55.838,264.641 56.140,264.577 56.566 C 264.472 57.266,264.492 57.333,264.805 57.333 C 264.993 57.333,265.201 57.420,265.266 57.526 C 265.343 57.651,265.311 57.673,265.174 57.588 C 264.892 57.414,264.680 57.783,264.771 58.288 C 264.833 58.629,264.808 58.657,264.605 58.470 C 264.474 58.349,264.434 58.225,264.517 58.194 C 264.694 58.129,264.547 57.833,264.338 57.833 C 264.260 57.833,264.221 57.965,264.252 58.125 C 264.283 58.285,264.314 58.470,264.321 58.535 C 264.346 58.775,267.159 59.291,267.875 59.188 C 268.035 59.165,268.167 59.207,268.167 59.281 C 268.167 59.438,277.549 59.434,278.667 59.276 C 279.079 59.218,279.717 59.134,280.083 59.090 C 285.689 58.413,288.561 55.884,288.300 51.855 L 288.250 51.083 285.483 51.038 L 282.716 50.992 282.621 52.127 M295.431 53.125 C 295.493 53.469,295.651 53.938,295.783 54.167 C 295.928 54.421,295.977 54.454,295.907 54.250 C 295.844 54.067,295.721 53.598,295.633 53.208 C 295.435 52.334,295.276 52.268,295.431 53.125 M296.312 55.294 C 296.398 55.455,296.640 55.736,296.849 55.919 C 297.160 56.190,297.144 56.137,296.761 55.625 C 296.267 54.964,296.050 54.804,296.312 55.294 M264.083 56.167 C 264.140 56.258,264.069 56.333,263.927 56.333 C 263.784 56.333,263.667 56.411,263.667 56.506 C 263.667 56.623,263.767 56.625,263.978 56.512 C 264.149 56.420,264.353 56.399,264.431 56.464 C 264.509 56.530,264.472 56.452,264.349 56.292 C 264.112 55.981,263.910 55.887,264.083 56.167 " stroke="none" fill="#1da3dc" fill-rule="evenodd"></path><path id="path6" d="M181.080 40.250 C 181.080 48.683,181.100 52.158,181.125 47.971 C 181.150 43.784,181.150 36.884,181.125 32.638 C 181.100 28.391,181.080 31.817,181.080 40.250 M116.667 52.010 C 116.667 52.107,116.596 52.143,116.510 52.090 C 116.424 52.036,116.293 52.088,116.219 52.205 C 116.144 52.322,115.887 52.518,115.648 52.641 C 115.408 52.765,115.018 53.046,114.780 53.266 C 114.542 53.486,114.276 53.667,114.188 53.667 C 114.100 53.667,114.003 53.726,113.972 53.799 C 113.942 53.871,113.618 54.152,113.253 54.424 C 112.641 54.879,110.359 56.674,109.583 57.311 C 109.400 57.461,108.650 58.070,107.917 58.663 C 107.183 59.257,106.500 59.819,106.397 59.913 C 106.076 60.207,105.286 60.880,104.250 61.744 C 102.698 63.037,101.602 63.991,99.579 65.813 C 99.210 66.145,98.610 66.672,98.246 66.984 C 97.881 67.297,96.833 68.244,95.917 69.090 C 95.000 69.935,94.033 70.824,93.767 71.064 L 93.285 71.500 72.726 71.500 C 61.418 71.500,52.167 71.437,52.167 71.360 C 52.167 70.565,50.198 69.324,48.753 69.208 C 44.598 68.875,42.960 74.776,46.681 76.674 C 48.450 77.576,52.167 76.424,52.167 74.973 C 52.167 74.896,66.698 74.832,84.458 74.831 C 102.219 74.829,116.825 74.773,116.917 74.706 C 117.061 74.599,117.334 74.271,118.666 72.603 C 119.093 72.069,120.182 70.774,120.644 70.253 C 120.885 69.980,121.327 69.418,121.625 69.004 C 121.923 68.590,122.167 68.324,122.167 68.414 C 122.167 68.504,122.356 68.299,122.587 67.958 C 122.819 67.618,123.305 67.019,123.669 66.628 C 124.032 66.237,124.330 65.861,124.331 65.794 C 124.335 65.568,124.891 65.016,125.028 65.101 C 125.102 65.146,125.113 65.055,125.053 64.898 C 124.979 64.704,125.006 64.651,125.138 64.732 C 125.257 64.806,125.333 64.747,125.333 64.583 C 125.333 64.435,125.400 64.355,125.481 64.405 C 125.562 64.455,125.731 64.366,125.856 64.206 C 126.059 63.947,126.054 63.940,125.805 64.135 C 125.510 64.365,125.617 64.491,123.760 61.750 C 123.407 61.228,122.445 60.673,122.750 61.167 C 122.854 61.335,122.249 61.861,122.111 61.723 C 122.050 61.661,122.000 61.699,122.000 61.806 C 122.000 61.913,121.925 62.000,121.833 62.000 C 121.742 62.000,121.517 62.150,121.333 62.333 C 121.150 62.517,121.052 62.667,121.116 62.667 C 121.179 62.667,121.008 62.835,120.735 63.042 C 120.461 63.248,118.390 65.273,116.132 67.542 L 112.026 71.667 106.888 71.664 L 101.750 71.661 102.667 70.811 C 105.069 68.583,105.688 68.018,106.665 67.167 C 107.661 66.298,108.095 65.931,108.667 65.473 C 108.804 65.363,109.296 64.930,109.760 64.511 C 110.796 63.577,112.415 62.196,112.990 61.757 C 113.225 61.578,113.567 61.278,113.751 61.091 C 113.936 60.903,114.348 60.534,114.668 60.271 C 115.586 59.515,117.317 57.979,118.065 57.255 C 118.442 56.891,118.825 56.591,118.917 56.588 C 119.008 56.586,119.083 56.496,119.083 56.389 C 119.083 56.102,119.332 55.904,119.344 56.181 C 119.350 56.310,119.426 56.239,119.513 56.021 C 119.649 55.681,119.496 55.362,118.414 53.729 C 117.313 52.069,116.667 51.433,116.667 52.010 M272.044 56.120 C 272.297 56.158,272.672 56.157,272.877 56.117 C 273.082 56.078,272.875 56.046,272.417 56.048 C 271.958 56.049,271.791 56.081,272.044 56.120 M310.127 56.118 C 310.334 56.158,310.634 56.156,310.794 56.115 C 310.953 56.073,310.783 56.040,310.417 56.042 C 310.050 56.044,309.920 56.078,310.127 56.118 M49.824 71.915 C 50.655 72.746,50.346 74.225,49.219 74.811 C 48.080 75.403,46.740 74.365,46.872 72.992 C 47.020 71.449,48.733 70.824,49.824 71.915 " stroke="none" fill="#046fb4" fill-rule="evenodd"></path><path id="path7" d="M158.083 24.625 C 157.533 24.944,156.558 25.472,155.917 25.800 C 155.275 26.128,154.563 26.520,154.333 26.672 C 154.104 26.824,153.429 27.215,152.833 27.540 C 152.237 27.865,151.262 28.439,150.667 28.816 C 150.071 29.193,149.433 29.567,149.250 29.649 C 149.067 29.730,148.525 30.068,148.046 30.399 C 147.567 30.729,147.117 31.003,147.046 31.007 C 146.975 31.010,146.661 31.232,146.348 31.500 C 146.035 31.767,145.716 31.947,145.640 31.900 C 145.268 31.670,145.579 32.428,146.274 33.448 C 147.317 34.977,147.667 35.415,147.667 35.189 C 147.667 35.085,147.723 35.013,147.792 35.029 C 148.028 35.084,148.823 34.618,148.735 34.476 C 148.687 34.397,148.771 34.333,148.922 34.333 C 149.073 34.333,149.397 34.177,149.640 33.986 C 149.884 33.795,151.171 32.935,152.500 32.074 C 153.829 31.213,155.007 30.432,155.118 30.338 C 155.229 30.244,155.355 30.167,155.399 30.167 C 155.552 30.167,159.422 27.653,159.882 27.254 C 160.139 27.032,160.364 26.851,160.382 26.852 C 161.111 26.885,161.083 26.555,160.252 25.333 C 159.250 23.860,159.350 23.892,158.083 24.625 M240.000 32.187 C 239.496 32.267,238.858 32.360,238.583 32.395 C 237.622 32.516,236.780 32.715,235.952 33.018 C 235.493 33.185,235.042 33.276,234.950 33.219 C 234.854 33.160,234.833 33.198,234.901 33.308 C 234.966 33.413,234.937 33.500,234.835 33.500 C 234.568 33.500,232.958 34.556,232.218 35.217 C 231.497 35.861,230.749 36.121,230.616 35.775 C 230.555 35.616,230.645 35.574,230.932 35.629 C 231.191 35.678,231.342 35.625,231.359 35.478 C 231.373 35.352,231.399 35.063,231.417 34.833 C 231.435 34.604,231.512 34.271,231.588 34.093 C 231.677 33.886,231.658 33.747,231.535 33.706 C 231.393 33.659,231.396 33.584,231.547 33.422 C 231.658 33.301,231.799 33.231,231.859 33.268 C 231.920 33.304,231.930 33.184,231.882 33.000 C 231.802 32.697,231.664 32.669,230.356 32.689 C 229.400 32.703,229.113 32.746,229.500 32.815 C 229.921 32.890,230.070 32.997,230.037 33.197 C 230.012 33.350,230.068 33.522,230.162 33.581 C 230.256 33.639,230.333 33.602,230.333 33.500 C 230.333 33.398,230.408 33.360,230.500 33.417 C 230.736 33.562,230.707 33.279,230.458 33.000 C 230.284 32.804,230.293 32.798,230.515 32.965 C 230.661 33.074,230.845 33.108,230.923 33.040 C 231.002 32.972,230.931 33.132,230.766 33.396 C 230.601 33.659,230.548 33.823,230.649 33.761 C 230.868 33.626,230.886 33.825,230.685 34.143 C 230.583 34.303,230.508 34.314,230.426 34.182 C 230.267 33.925,229.993 34.121,230.104 34.411 C 230.154 34.540,230.295 34.607,230.418 34.560 C 230.541 34.513,230.724 34.630,230.826 34.820 C 231.013 35.169,231.002 35.191,230.627 35.229 C 230.507 35.241,230.405 35.531,230.385 35.917 C 230.365 36.283,230.341 36.716,230.331 36.879 C 230.320 37.063,230.239 37.127,230.115 37.050 C 230.006 36.982,229.767 36.910,229.583 36.890 C 229.400 36.871,229.344 36.894,229.459 36.941 C 229.575 36.989,229.616 37.116,229.552 37.223 C 229.488 37.329,229.577 37.304,229.749 37.167 C 230.032 36.941,230.052 36.944,229.956 37.200 C 229.877 37.413,229.921 37.461,230.133 37.392 C 230.354 37.322,230.366 37.338,230.188 37.465 C 230.002 37.598,230.017 37.659,230.270 37.801 C 230.441 37.897,230.526 38.030,230.458 38.097 C 230.391 38.164,230.429 38.334,230.543 38.475 C 230.708 38.679,230.708 38.705,230.542 38.605 C 230.202 38.402,229.952 38.658,230.199 38.956 C 230.387 39.182,230.361 39.199,229.999 39.090 C 229.595 38.969,229.593 38.973,229.917 39.230 C 230.205 39.458,230.216 39.516,230.000 39.661 C 229.818 39.783,229.809 39.829,229.968 39.831 C 230.088 39.832,230.145 39.901,230.094 39.983 C 229.960 40.200,230.180 41.167,230.364 41.167 C 230.450 41.167,230.473 41.092,230.417 41.000 C 230.360 40.908,230.435 40.833,230.583 40.833 C 230.732 40.833,230.811 40.902,230.759 40.986 C 230.707 41.070,230.721 41.170,230.791 41.208 C 230.860 41.247,230.832 41.259,230.729 41.236 C 230.626 41.212,230.349 41.293,230.113 41.415 C 229.874 41.539,229.662 41.569,229.633 41.482 C 229.604 41.396,229.441 41.489,229.270 41.688 C 228.996 42.009,228.992 42.039,229.244 41.942 C 229.431 41.870,229.503 41.904,229.455 42.042 C 229.415 42.156,229.251 42.226,229.091 42.197 C 228.908 42.164,228.843 42.215,228.917 42.334 C 228.981 42.438,229.131 42.485,229.251 42.440 C 229.570 42.317,229.664 42.486,229.506 42.900 C 229.355 43.297,229.878 43.498,230.106 43.130 C 230.168 43.030,230.142 42.995,230.049 43.053 C 229.949 43.115,229.899 42.990,229.925 42.745 C 229.955 42.478,229.887 42.333,229.731 42.333 C 229.532 42.333,229.538 42.264,229.763 41.920 C 229.940 41.650,230.170 41.518,230.425 41.539 C 230.721 41.563,230.772 41.623,230.639 41.784 C 230.542 41.901,230.402 41.959,230.329 41.914 C 230.068 41.753,230.059 42.254,230.319 42.459 C 230.555 42.645,230.552 42.657,230.290 42.565 C 230.066 42.487,230.022 42.529,230.102 42.738 C 230.245 43.111,230.886 43.005,231.034 42.583 C 231.131 42.305,231.144 42.319,231.113 42.667 C 231.092 42.896,230.983 43.065,230.871 43.042 C 230.759 43.019,230.667 43.146,230.667 43.323 C 230.667 43.501,230.593 43.693,230.502 43.749 C 230.407 43.807,230.380 43.740,230.437 43.590 C 230.510 43.401,230.464 43.358,230.269 43.433 C 229.788 43.617,230.139 44.169,230.681 44.081 C 230.826 44.057,230.944 44.140,230.944 44.266 C 230.944 44.438,230.889 44.449,230.722 44.310 C 230.600 44.209,230.500 44.175,230.500 44.235 C 230.500 44.296,230.350 44.265,230.167 44.167 C 229.941 44.046,229.833 44.044,229.833 44.161 C 229.833 44.256,229.754 44.333,229.657 44.333 C 229.560 44.333,229.534 44.247,229.599 44.141 C 229.674 44.021,229.645 43.994,229.523 44.069 C 229.226 44.253,229.485 44.527,229.846 44.413 C 230.079 44.339,230.140 44.376,230.072 44.554 C 230.016 44.698,229.847 44.762,229.656 44.712 C 229.478 44.666,229.333 44.693,229.334 44.772 C 229.334 45.007,230.545 45.026,230.710 44.794 C 230.822 44.636,230.842 44.646,230.792 44.833 C 230.755 44.971,230.518 45.108,230.266 45.137 C 229.910 45.179,229.833 45.254,229.923 45.471 C 229.987 45.624,230.043 45.840,230.048 45.951 C 230.052 46.062,230.119 46.113,230.197 46.064 C 230.275 46.016,230.296 45.908,230.244 45.824 C 230.192 45.739,230.268 45.716,230.412 45.771 C 230.606 45.846,230.628 45.929,230.496 46.088 C 230.384 46.223,230.377 46.341,230.478 46.403 C 230.566 46.457,230.676 46.408,230.723 46.293 C 230.772 46.170,230.812 46.208,230.820 46.385 C 230.827 46.551,230.909 46.640,231.000 46.583 C 231.112 46.514,231.110 46.371,230.995 46.157 C 230.784 45.763,230.884 45.741,231.245 46.102 C 231.569 46.426,231.159 46.845,230.618 46.741 C 230.157 46.652,230.371 47.057,230.846 47.171 L 231.250 47.269 230.874 47.369 C 230.617 47.438,230.531 47.552,230.600 47.734 C 230.656 47.879,230.760 47.962,230.832 47.918 C 230.904 47.873,230.952 47.967,230.940 48.127 C 230.910 48.504,230.323 48.751,230.140 48.464 C 230.065 48.346,230.035 48.162,230.075 48.055 C 230.143 47.869,229.720 47.585,229.458 47.640 C 229.390 47.655,229.333 47.587,229.333 47.490 C 229.333 47.393,229.258 47.360,229.167 47.417 C 229.075 47.473,229.000 47.603,229.000 47.704 C 229.000 47.806,229.047 47.842,229.105 47.784 C 229.256 47.633,229.861 47.988,229.752 48.164 C 229.702 48.244,229.730 48.353,229.815 48.405 C 229.900 48.458,229.932 48.669,229.887 48.875 C 229.839 49.091,229.864 49.177,229.944 49.078 C 230.021 48.983,230.177 48.917,230.292 48.932 C 230.406 48.946,230.587 48.968,230.694 48.979 C 231.293 49.043,230.161 49.361,229.215 49.394 C 228.870 49.406,228.737 49.470,228.841 49.574 C 228.944 49.678,229.240 49.671,229.671 49.556 C 230.041 49.458,230.381 49.442,230.430 49.522 C 230.479 49.602,230.436 49.667,230.333 49.667 C 230.231 49.667,230.194 49.743,230.252 49.836 C 230.309 49.929,230.438 49.955,230.537 49.894 C 230.646 49.826,230.670 49.860,230.598 49.977 C 230.531 50.084,230.426 50.141,230.363 50.102 C 230.301 50.064,230.239 50.212,230.226 50.433 C 230.213 50.653,230.262 50.833,230.335 50.833 C 230.409 50.833,230.425 51.000,230.372 51.204 C 230.278 51.562,230.270 51.559,230.123 51.120 C 230.040 50.869,229.918 50.698,229.853 50.738 C 229.788 50.778,229.625 50.742,229.492 50.658 C 229.300 50.537,229.321 50.505,229.597 50.503 C 229.794 50.501,229.944 50.391,229.944 50.250 C 229.944 50.112,229.840 50.000,229.712 50.000 C 229.585 50.000,229.522 50.067,229.573 50.149 C 229.623 50.231,229.553 50.341,229.416 50.394 C 229.279 50.447,229.167 50.602,229.167 50.740 C 229.167 50.908,229.262 50.954,229.458 50.880 C 229.723 50.781,229.727 50.800,229.500 51.094 C 229.267 51.395,229.271 51.401,229.550 51.181 C 229.818 50.970,229.861 50.985,229.948 51.319 C 230.018 51.588,230.136 51.670,230.366 51.610 C 230.566 51.558,230.659 51.599,230.615 51.721 C 230.575 51.829,230.665 52.065,230.813 52.247 C 231.066 52.557,231.065 52.563,230.792 52.352 C 230.567 52.178,230.446 52.171,230.265 52.321 C 230.118 52.443,229.992 52.455,229.929 52.354 C 229.874 52.265,229.944 52.156,230.085 52.113 C 230.267 52.057,230.255 52.042,230.045 52.061 C 229.869 52.077,229.743 52.233,229.732 52.446 C 229.719 52.703,229.790 52.781,229.982 52.722 C 230.214 52.651,230.212 52.671,229.967 52.873 C 229.677 53.113,230.178 53.819,230.554 53.701 C 230.630 53.678,230.643 53.736,230.584 53.832 C 230.525 53.927,230.408 53.963,230.324 53.911 C 230.239 53.859,230.215 53.932,230.270 54.075 C 230.324 54.217,230.318 54.333,230.256 54.333 C 230.059 54.333,229.678 53.877,229.786 53.770 C 229.842 53.713,229.842 53.667,229.784 53.667 C 229.726 53.667,229.599 53.815,229.502 53.996 C 229.352 54.277,229.370 54.309,229.621 54.215 C 229.880 54.118,229.888 54.139,229.689 54.384 C 229.564 54.537,229.384 54.615,229.289 54.556 C 229.185 54.492,229.165 54.530,229.239 54.649 C 229.335 54.804,229.417 54.804,229.601 54.652 C 229.833 54.459,229.839 54.509,229.679 55.312 C 229.672 55.346,229.535 55.275,229.375 55.153 C 229.127 54.966,229.115 54.968,229.290 55.165 C 229.458 55.353,229.427 55.479,229.124 55.824 C 228.832 56.158,228.873 56.142,229.314 55.750 C 229.820 55.301,229.856 55.290,229.673 55.643 C 229.512 55.953,229.512 56.076,229.676 56.226 C 229.835 56.373,229.860 56.353,229.784 56.136 C 229.712 55.932,229.774 55.862,230.009 55.880 C 230.339 55.905,230.479 56.333,230.157 56.333 C 230.060 56.333,230.027 56.408,230.083 56.500 C 230.140 56.592,230.261 56.667,230.353 56.667 C 230.445 56.667,230.480 56.603,230.432 56.525 C 230.384 56.446,230.443 56.248,230.563 56.083 C 230.735 55.848,230.812 55.830,230.917 56.001 C 231.012 56.154,230.982 56.182,230.817 56.097 C 230.689 56.030,230.715 56.083,230.875 56.214 C 231.035 56.346,231.167 56.493,231.167 56.542 C 231.167 56.590,231.035 56.619,230.875 56.606 C 230.713 56.594,230.604 56.682,230.629 56.804 C 230.654 56.925,230.615 56.988,230.541 56.942 C 230.468 56.897,230.285 57.074,230.134 57.336 C 229.916 57.716,229.909 57.794,230.097 57.722 C 230.259 57.660,230.333 57.752,230.333 58.016 C 230.333 58.315,230.289 58.356,230.133 58.200 C 230.023 58.090,229.857 58.000,229.763 58.000 C 229.669 58.000,229.759 58.117,229.963 58.259 C 230.167 58.402,230.333 58.626,230.333 58.756 C 230.333 58.930,230.531 58.984,231.082 58.960 L 231.830 58.928 231.843 50.755 C 231.855 42.648,231.882 41.637,232.104 40.833 C 232.167 40.604,232.239 40.316,232.263 40.194 C 232.389 39.568,233.301 38.095,233.926 37.510 C 237.031 34.599,245.414 34.625,246.496 37.548 C 246.605 37.842,246.759 38.207,246.838 38.358 C 247.007 38.681,246.951 40.788,246.762 41.208 C 246.640 41.479,246.820 41.500,249.316 41.500 L 252.000 41.500 252.027 40.708 C 252.041 40.273,252.064 39.542,252.076 39.083 C 252.111 37.799,251.344 35.680,250.548 34.863 C 250.430 34.742,250.333 34.569,250.333 34.478 C 250.333 34.388,250.272 34.352,250.197 34.398 C 250.122 34.444,249.953 34.331,249.822 34.145 C 249.691 33.960,249.246 33.660,248.833 33.478 C 248.421 33.297,247.933 33.082,247.750 33.001 C 246.059 32.255,242.157 31.845,240.000 32.187 M266.750 32.509 C 266.421 32.598,266.592 32.612,267.250 32.551 C 267.800 32.500,268.281 32.430,268.319 32.396 C 268.443 32.284,267.264 32.369,266.750 32.509 M268.877 32.453 C 269.131 32.491,269.506 32.490,269.711 32.451 C 269.916 32.411,269.708 32.380,269.250 32.381 C 268.792 32.382,268.624 32.415,268.877 32.453 M265.666 32.625 C 265.665 32.694,265.309 32.770,264.874 32.796 C 262.515 32.931,259.623 34.331,258.415 35.922 C 257.803 36.728,256.676 39.197,256.668 39.750 C 256.667 39.796,256.661 39.852,256.654 39.875 C 256.647 39.898,256.609 40.104,256.570 40.333 C 256.530 40.563,256.419 41.139,256.323 41.614 C 256.036 43.028,256.085 48.740,256.397 50.333 C 256.442 50.563,256.518 51.012,256.566 51.333 C 256.933 53.799,258.942 57.333,259.976 57.333 C 260.066 57.333,260.164 57.397,260.194 57.475 C 260.368 57.916,264.814 59.186,266.072 59.154 C 266.696 59.137,266.499 59.060,265.493 58.925 C 264.765 58.827,264.738 58.804,264.767 58.287 C 264.814 57.463,264.817 57.458,265.092 57.564 C 265.240 57.621,265.307 57.593,265.249 57.498 C 265.193 57.407,264.993 57.333,264.805 57.333 C 264.492 57.333,264.472 57.266,264.577 56.566 C 264.641 56.140,264.628 55.838,264.547 55.887 C 264.468 55.937,264.393 55.848,264.381 55.691 C 264.368 55.512,264.480 55.405,264.680 55.405 C 264.856 55.405,265.000 55.464,265.000 55.536 C 265.000 55.608,264.922 55.667,264.827 55.667 C 264.711 55.667,264.709 55.767,264.822 55.978 C 264.913 56.149,264.941 56.337,264.883 56.395 C 264.825 56.453,264.907 56.500,265.065 56.500 C 265.240 56.500,265.306 56.575,265.234 56.692 C 265.158 56.815,265.189 56.839,265.318 56.759 C 265.473 56.664,265.458 56.563,265.257 56.341 C 264.892 55.938,265.096 55.436,265.565 55.585 C 266.112 55.760,266.926 55.886,266.830 55.781 C 266.782 55.729,266.521 55.647,266.250 55.598 C 263.343 55.071,262.157 52.902,261.935 47.708 L 261.891 46.667 263.570 46.664 C 264.573 46.663,265.159 46.604,265.024 46.518 C 264.866 46.418,264.854 46.340,264.982 46.261 C 265.244 46.099,265.211 45.889,264.924 45.889 C 264.791 45.889,264.711 45.936,264.746 45.994 C 264.890 46.226,264.571 46.480,264.329 46.327 C 264.163 46.222,264.151 46.171,264.292 46.169 C 264.406 46.168,264.500 46.087,264.500 45.990 C 264.500 45.893,264.412 45.868,264.305 45.934 C 264.173 46.016,264.145 45.963,264.219 45.771 C 264.286 45.597,264.234 45.452,264.085 45.394 C 263.876 45.314,263.875 45.268,264.076 45.067 C 264.423 44.720,264.766 44.761,264.479 45.115 C 264.288 45.351,264.288 45.375,264.477 45.261 C 264.611 45.180,264.753 45.204,264.825 45.320 C 264.913 45.463,265.004 45.446,265.160 45.258 C 265.317 45.069,265.321 45.000,265.177 45.000 C 265.069 45.000,265.027 44.924,265.085 44.831 C 265.143 44.737,265.271 44.712,265.371 44.773 C 265.479 44.840,265.503 44.807,265.431 44.690 C 265.365 44.582,265.246 44.535,265.167 44.583 C 265.088 44.632,264.973 44.591,264.911 44.491 C 264.850 44.392,264.698 44.350,264.574 44.397 C 264.397 44.465,264.382 44.394,264.502 44.077 C 264.588 43.853,264.603 43.678,264.537 43.688 C 264.471 43.698,263.873 43.697,263.208 43.686 L 262.000 43.667 262.006 42.792 C 262.031 39.063,263.285 36.932,265.841 36.278 C 266.683 36.063,266.706 36.044,266.211 35.971 C 265.921 35.928,265.717 35.947,265.758 36.013 C 265.853 36.167,264.704 36.093,264.546 35.935 C 264.480 35.869,264.537 35.745,264.671 35.660 C 264.867 35.536,264.870 35.505,264.688 35.503 C 264.499 35.500,264.497 35.455,264.677 35.237 C 264.906 34.961,264.601 34.585,264.300 34.771 C 264.226 34.816,264.167 34.742,264.167 34.607 C 264.167 34.471,264.120 34.223,264.063 34.055 C 263.996 33.860,264.069 33.900,264.266 34.167 C 264.803 34.895,265.976 35.636,265.582 34.997 C 265.524 34.904,265.407 34.871,265.322 34.924 C 265.236 34.977,265.167 34.938,265.167 34.838 C 265.167 34.738,265.271 34.616,265.398 34.567 C 265.526 34.518,265.620 34.302,265.607 34.087 C 265.589 33.794,265.531 33.739,265.375 33.868 C 265.227 33.991,265.167 33.979,265.167 33.826 C 265.167 33.708,265.111 33.667,265.042 33.736 C 264.973 33.804,265.038 33.949,265.186 34.057 C 265.409 34.220,265.418 34.290,265.234 34.461 C 264.951 34.726,264.577 34.119,264.763 33.695 C 264.831 33.542,264.872 33.329,264.855 33.221 C 264.838 33.113,264.914 32.970,265.024 32.902 C 265.158 32.819,265.190 32.865,265.122 33.042 C 265.063 33.197,265.125 33.345,265.271 33.402 C 265.461 33.475,265.496 33.416,265.415 33.161 C 265.356 32.976,265.370 32.836,265.446 32.849 C 265.521 32.862,265.715 32.864,265.875 32.853 C 266.230 32.829,266.269 32.500,265.917 32.500 C 265.779 32.500,265.666 32.556,265.666 32.625 M231.227 34.249 C 231.175 34.386,231.065 34.457,230.983 34.406 C 230.747 34.260,230.809 34.000,231.078 34.000 C 231.227 34.000,231.285 34.098,231.227 34.249 M229.448 34.742 C 229.315 34.875,229.144 34.931,229.067 34.867 C 228.990 34.803,229.022 34.874,229.137 35.025 C 229.253 35.177,229.288 35.333,229.215 35.373 C 229.143 35.413,229.171 35.425,229.279 35.399 C 229.495 35.349,229.481 35.949,229.257 36.340 C 229.144 36.538,229.160 36.544,229.342 36.375 C 229.616 36.121,230.000 36.102,230.000 36.343 C 230.000 36.440,229.930 36.477,229.845 36.424 C 229.760 36.371,229.652 36.389,229.606 36.463 C 229.561 36.537,229.661 36.608,229.828 36.620 C 230.182 36.647,230.339 36.225,230.153 35.747 C 230.043 35.466,230.022 35.460,230.012 35.708 C 229.999 36.015,229.500 36.128,229.500 35.823 C 229.500 35.726,229.587 35.701,229.692 35.766 C 229.811 35.839,229.840 35.812,229.766 35.693 C 229.696 35.579,229.816 35.425,230.065 35.311 C 230.519 35.104,230.852 34.560,230.424 34.724 C 230.288 34.776,230.133 34.747,230.079 34.659 C 229.939 34.434,229.729 34.461,229.448 34.742 M229.988 35.098 C 229.880 35.228,229.727 35.333,229.646 35.333 C 229.421 35.333,229.473 34.871,229.708 34.786 C 230.042 34.667,230.200 34.843,229.988 35.098 M264.179 35.076 C 264.262 35.025,264.285 35.099,264.230 35.241 C 264.176 35.384,264.218 35.500,264.325 35.500 C 264.432 35.500,264.467 35.585,264.403 35.689 C 264.284 35.881,263.838 35.255,263.852 34.917 C 263.856 34.825,263.898 34.844,263.944 34.959 C 263.990 35.075,264.096 35.127,264.179 35.076 M269.875 35.619 C 270.127 35.658,270.540 35.658,270.792 35.619 C 271.044 35.581,270.837 35.550,270.333 35.550 C 269.829 35.550,269.623 35.581,269.875 35.619 M230.819 37.500 C 230.827 37.722,230.810 37.722,230.667 37.500 C 230.578 37.362,230.509 37.100,230.514 36.917 L 230.523 36.583 230.667 36.917 C 230.745 37.100,230.814 37.362,230.819 37.500 M229.608 37.911 C 229.557 38.046,229.598 38.207,229.700 38.270 C 229.812 38.340,229.838 38.309,229.766 38.192 C 229.695 38.077,229.755 38.000,229.917 38.000 C 230.065 38.000,230.140 37.925,230.083 37.833 C 229.935 37.593,229.717 37.628,229.608 37.911 M231.273 38.082 C 231.535 38.219,231.633 38.332,231.490 38.332 C 231.347 38.333,231.085 38.223,230.907 38.089 C 230.486 37.770,230.668 37.767,231.273 38.082 M229.105 38.421 C 229.049 38.566,229.072 38.642,229.154 38.591 C 229.237 38.540,229.335 38.588,229.372 38.699 C 229.419 38.839,229.473 38.845,229.551 38.719 C 229.613 38.619,229.560 38.452,229.434 38.348 C 229.258 38.202,229.182 38.219,229.105 38.421 M230.618 39.667 C 230.548 39.935,230.617 40.004,230.974 40.019 C 231.272 40.032,231.318 40.064,231.116 40.117 C 230.875 40.179,230.855 40.242,231.015 40.435 C 231.124 40.567,231.166 40.723,231.107 40.782 C 231.048 40.841,231.000 40.797,231.000 40.685 C 231.000 40.572,230.922 40.529,230.826 40.588 C 230.555 40.755,230.217 40.379,230.264 39.961 C 230.287 39.753,230.312 39.527,230.319 39.458 C 230.327 39.390,230.417 39.333,230.519 39.333 C 230.623 39.333,230.667 39.480,230.618 39.667 M229.558 40.391 C 229.572 40.634,229.640 40.833,229.708 40.833 C 229.878 40.833,229.862 40.470,229.680 40.183 C 229.574 40.015,229.539 40.075,229.558 40.391 M288.218 45.583 C 288.219 46.133,288.250 46.338,288.287 46.039 C 288.325 45.739,288.324 45.289,288.286 45.039 C 288.248 44.788,288.217 45.033,288.218 45.583 M229.240 46.259 C 228.925 46.512,228.926 46.514,229.266 46.350 C 229.686 46.149,230.022 46.402,229.879 46.812 C 229.807 47.020,229.832 47.039,229.989 46.895 C 230.463 46.458,229.748 45.852,229.240 46.259 M229.234 46.692 C 229.160 46.812,229.188 46.840,229.308 46.766 C 229.427 46.692,229.500 46.766,229.500 46.962 C 229.500 47.135,229.688 47.378,229.919 47.501 C 230.223 47.664,230.309 47.813,230.234 48.049 C 230.168 48.258,230.201 48.350,230.328 48.307 C 230.536 48.238,230.543 48.148,230.389 47.532 C 230.328 47.289,230.206 47.180,230.057 47.237 C 229.912 47.293,229.763 47.169,229.665 46.913 C 229.490 46.452,229.408 46.411,229.234 46.692 M231.416 50.668 C 231.249 50.852,231.069 50.958,231.015 50.904 C 230.961 50.850,231.063 50.700,231.240 50.570 C 231.697 50.236,231.770 50.276,231.416 50.668 M230.541 52.915 C 230.498 53.143,230.395 53.288,230.314 53.238 C 230.230 53.186,230.241 53.006,230.339 52.823 C 230.572 52.387,230.636 52.417,230.541 52.915 M231.046 54.520 C 230.944 54.623,230.904 54.824,230.959 54.966 C 231.033 55.161,230.984 55.196,230.760 55.110 C 230.537 55.024,230.487 55.060,230.562 55.254 C 230.656 55.499,230.251 55.806,230.071 55.626 C 229.738 55.294,229.895 54.891,230.346 54.917 C 230.717 54.939,230.789 54.897,230.656 54.737 C 230.529 54.584,230.563 54.507,230.783 54.450 C 230.948 54.407,231.117 54.363,231.158 54.353 C 231.200 54.342,231.149 54.417,231.046 54.520 M267.014 55.896 C 267.052 55.931,267.608 56.001,268.250 56.052 C 269.147 56.124,269.262 56.112,268.750 55.999 C 268.076 55.851,266.886 55.780,267.014 55.896 M264.349 56.292 C 264.472 56.452,264.509 56.530,264.431 56.464 C 264.353 56.399,264.149 56.420,263.978 56.512 C 263.767 56.625,263.667 56.623,263.667 56.506 C 263.667 56.411,263.784 56.333,263.927 56.333 C 264.069 56.333,264.140 56.258,264.083 56.167 C 263.910 55.887,264.112 55.981,264.349 56.292 M231.429 57.116 C 231.406 57.271,231.300 57.428,231.194 57.463 C 230.931 57.551,230.945 57.050,231.208 56.944 C 231.323 56.897,231.429 56.854,231.444 56.846 C 231.458 56.839,231.452 56.961,231.429 57.116 M229.352 57.228 C 229.209 57.400,229.216 57.500,229.379 57.635 C 229.546 57.774,229.603 57.721,229.629 57.408 C 229.668 56.941,229.617 56.908,229.352 57.228 M231.167 57.982 C 231.167 58.045,230.998 58.104,230.792 58.114 C 230.585 58.124,230.511 58.096,230.626 58.052 C 230.741 58.008,230.794 57.904,230.742 57.821 C 230.691 57.738,230.766 57.715,230.908 57.770 C 231.050 57.824,231.167 57.920,231.167 57.982 M264.583 58.000 C 264.640 58.092,264.588 58.168,264.468 58.169 C 264.307 58.171,264.314 58.212,264.495 58.327 C 264.630 58.412,264.686 58.536,264.620 58.602 C 264.461 58.762,264.338 58.623,264.254 58.189 C 264.184 57.825,264.399 57.701,264.583 58.000 M230.833 58.520 C 230.833 58.650,230.911 58.643,231.083 58.500 C 231.227 58.380,231.333 58.364,231.333 58.462 C 231.333 58.750,230.869 58.827,230.658 58.573 C 230.517 58.403,230.514 58.333,230.646 58.333 C 230.749 58.333,230.833 58.418,230.833 58.520 M269.047 59.456 C 269.485 59.490,270.160 59.490,270.547 59.455 C 270.934 59.420,270.575 59.392,269.750 59.392 C 268.925 59.393,268.609 59.422,269.047 59.456 M275.377 59.453 C 275.631 59.491,276.006 59.490,276.211 59.451 C 276.416 59.411,276.208 59.380,275.750 59.381 C 275.292 59.382,275.124 59.415,275.377 59.453 M171.682 71.458 C 171.889 71.802,172.077 72.110,172.101 72.142 C 172.125 72.174,172.228 72.148,172.331 72.085 C 172.453 72.009,172.385 71.855,172.133 71.634 C 171.922 71.448,171.766 71.237,171.786 71.164 C 171.806 71.091,171.707 70.987,171.564 70.932 C 171.369 70.857,171.397 70.985,171.682 71.458 M172.395 72.420 C 172.448 72.559,172.793 73.117,173.161 73.659 C 173.812 74.616,173.820 74.646,173.457 74.716 C 173.251 74.756,173.442 74.798,173.881 74.811 C 174.633 74.832,174.668 74.814,174.498 74.495 C 174.398 74.309,174.259 74.193,174.189 74.236 C 174.119 74.280,173.920 74.076,173.747 73.783 C 173.574 73.490,173.260 73.078,173.049 72.868 C 172.839 72.657,172.667 72.413,172.667 72.326 C 172.667 72.238,172.584 72.167,172.482 72.167 C 172.381 72.167,172.341 72.281,172.395 72.420 " stroke="none" fill="#1ca0d4" fill-rule="evenodd"></path><path id="path8" d="" stroke="none" fill="#c8100d4" fill-rule="evenodd"></path></g></svg>