<?xml version="1.0" standalone="no"?>
<!DOCTYPE svg PUBLIC "-//W3C//DTD SVG 20010904//EN"
 "http://www.w3.org/TR/2001/REC-SVG-20010904/DTD/svg10.dtd">
<svg version="1.0" xmlns="http://www.w3.org/2000/svg"
 width="1181.000000pt" height="1181.000000pt" viewBox="0 0 1181.000000 1181.000000"
 preserveAspectRatio="xMidYMid meet">
<metadata>
Created by potrace 1.11, written by Peter Selinger 2001-2013
</metadata>
<g transform="translate(0.000000,1181.000000) scale(0.100000,-0.100000)"
fill="#000000" stroke="none">
<path d="M11537 9794 c-16 -9 -36 -17 -45 -19 -9 -2 -55 -19 -102 -38 -47 -19
-137 -56 -200 -81 -63 -26 -124 -51 -135 -56 -74 -33 -114 -47 -119 -42 -3 3
-6 0 -6 -6 0 -7 -8 -12 -18 -12 -10 0 -27 -6 -38 -14 -15 -11 -22 -12 -33 -3
-8 7 -12 8 -9 2 8 -14 -14 -32 -35 -29 -9 1 -17 -2 -17 -7 0 -6 -4 -7 -10 -4
-5 3 -10 1 -10 -4 0 -6 -6 -11 -12 -11 -7 0 -26 -7 -42 -15 -15 -8 -32 -12
-37 -9 -5 3 -9 1 -9 -4 0 -11 -35 -24 -66 -25 -12 -1 -20 -6 -17 -12 2 -7 -2
-12 -9 -12 -7 0 -22 -4 -32 -9 -15 -5 -17 -4 -11 6 5 9 4 11 -4 6 -6 -4 -9
-12 -6 -17 6 -9 -3 -12 -37 -12 -10 0 -16 -3 -13 -7 7 -11 -122 -63 -136 -54
-7 4 -9 3 -6 -3 3 -5 -13 -17 -36 -27 -23 -9 -54 -24 -70 -32 -15 -8 -32 -12
-37 -9 -6 3 -10 2 -10 -3 0 -9 -37 -25 -52 -23 -5 1 -8 -4 -8 -9 0 -6 -4 -10
-9 -10 -5 0 -22 -5 -38 -12 -15 -6 -30 -12 -33 -12 -3 -1 -11 -5 -17 -9 -7 -5
-13 -5 -13 -2 0 4 -7 -1 -16 -10 -10 -9 -25 -14 -35 -12 -11 3 -19 0 -19 -7 0
-11 -68 -39 -86 -36 -4 1 -10 -3 -13 -8 -6 -9 -73 -41 -163 -78 -27 -10 -48
-22 -48 -26 0 -4 -7 -5 -15 -2 -8 4 -15 1 -15 -5 0 -6 -9 -11 -19 -11 -11 0
-27 -7 -35 -16 -9 -8 -16 -12 -16 -9 0 4 -11 0 -25 -9 -14 -9 -25 -14 -25 -10
0 4 -7 1 -15 -6 -8 -6 -20 -8 -26 -4 -7 4 -9 3 -5 -4 5 -9 -10 -18 -44 -27
-14 -4 -46 -19 -50 -24 -3 -3 -26 -16 -52 -28 -34 -16 -48 -19 -52 -10 -2 7
-5 4 -5 -6 -1 -9 -4 -16 -8 -15 -5 1 -23 -6 -40 -15 -18 -10 -33 -14 -33 -10
0 5 -4 4 -8 -2 -4 -5 -21 -18 -39 -28 -24 -13 -32 -14 -36 -5 -3 8 -6 6 -6 -5
-1 -9 -4 -16 -8 -15 -5 1 -27 -8 -49 -20 -23 -11 -44 -18 -48 -15 -3 4 -6 0
-6 -7 0 -7 -3 -11 -6 -7 -4 3 -13 -1 -21 -9 -8 -8 -19 -12 -24 -9 -5 4 -9 2
-9 -4 0 -5 -9 -8 -20 -6 -11 2 -19 -1 -17 -8 1 -7 -4 -11 -10 -9 -7 1 -13 -3
-13 -9 0 -8 -4 -8 -14 0 -11 9 -16 9 -22 0 -5 -8 -3 -10 7 -5 8 4 5 0 -6 -8
-11 -9 -26 -14 -34 -11 -9 3 -12 3 -8 -1 9 -10 -84 -55 -96 -47 -6 3 -7 1 -3
-5 5 -8 0 -12 -13 -12 -12 0 -21 -4 -21 -9 0 -14 -37 -20 -50 -7 -8 8 -10 7
-5 -4 3 -9 -3 -20 -16 -28 -12 -8 -18 -9 -14 -3 3 6 1 11 -4 11 -6 0 -11 -7
-11 -17 0 -9 -3 -14 -6 -10 -3 3 -21 -3 -40 -14 -40 -22 -48 -24 -38 -7 4 7 3
8 -5 4 -6 -4 -9 -11 -7 -15 7 -11 -111 -64 -124 -56 -6 3 -9 2 -8 -3 2 -6 -28
-26 -65 -46 -38 -20 -66 -31 -62 -24 4 7 -1 4 -9 -6 -9 -11 -16 -16 -16 -12 0
4 -12 -1 -27 -11 -16 -10 -77 -43 -138 -73 -60 -30 -112 -58 -113 -63 -2 -4
-8 -5 -13 -1 -5 3 -9 1 -9 -5 0 -5 -9 -8 -20 -6 -11 2 -18 0 -15 -4 6 -11 -23
-23 -35 -16 -5 3 -12 0 -16 -6 -5 -8 -2 -10 7 -5 8 4 5 0 -5 -8 -11 -9 -26
-16 -33 -16 -8 0 -25 -7 -38 -16 -13 -9 -29 -13 -35 -9 -6 4 -9 1 -8 -7 2 -8
-6 -13 -19 -12 -12 0 -20 -3 -18 -7 6 -9 -24 -21 -36 -14 -5 4 -6 -2 -2 -12 6
-16 5 -16 -11 -4 -15 12 -17 12 -14 0 2 -8 -4 -13 -14 -13 -10 1 -16 -2 -13
-6 7 -11 -24 -22 -37 -13 -7 4 -8 1 -3 -7 6 -10 4 -12 -8 -7 -9 3 -16 3 -14
-1 1 -4 -2 -7 -6 -7 -5 0 -13 -8 -18 -17 -5 -10 -18 -15 -29 -13 -12 2 -18 0
-14 -6 3 -6 -3 -13 -15 -16 -12 -3 -21 -10 -21 -15 0 -5 -4 -7 -9 -4 -5 3 -14
-1 -21 -9 -7 -8 -16 -12 -21 -9 -5 3 -9 1 -9 -4 0 -5 -12 -14 -26 -21 -21 -9
-30 -9 -43 1 -14 12 -15 11 -2 -4 12 -16 9 -22 -11 -19 -5 0 -8 -4 -8 -10 0
-5 -4 -7 -10 -4 -5 3 -10 2 -10 -3 0 -12 -69 -44 -81 -36 -5 3 -8 0 -7 -8 2
-7 -3 -12 -9 -11 -7 2 -13 -2 -13 -8 0 -5 -4 -7 -10 -4 -5 3 -10 1 -10 -5 0
-6 -4 -8 -10 -5 -5 3 -10 1 -10 -5 0 -6 -4 -8 -10 -5 -5 3 -10 2 -10 -4 0 -5
-10 -13 -22 -17 -13 -4 -25 -9 -28 -13 -3 -3 -15 -11 -27 -18 -17 -10 -23 -10
-26 0 -4 8 -6 6 -6 -3 -1 -18 -55 -53 -65 -43 -3 3 -6 1 -6 -6 0 -7 -4 -9 -10
-6 -5 3 -10 0 -10 -7 0 -9 -3 -9 -10 2 -8 13 -10 13 -10 -2 0 -10 -13 -24 -30
-33 -30 -16 -47 -16 -42 -2 1 5 -2 6 -8 2 -6 -3 -8 -10 -5 -14 9 -15 -41 -31
-56 -18 -11 10 -11 9 0 -6 12 -15 10 -18 -20 -29 -19 -6 -36 -11 -37 -9 -2 1
-9 -5 -16 -14 -6 -9 -18 -17 -27 -18 -8 -2 -28 -13 -44 -25 -16 -13 -34 -21
-42 -18 -7 3 -15 0 -19 -6 -4 -7 -3 -8 4 -4 7 4 12 5 12 2 0 -10 -57 -35 -64
-29 -3 4 -6 1 -6 -6 0 -7 -4 -10 -9 -7 -5 3 -12 -1 -15 -10 -3 -8 -10 -13 -15
-10 -5 3 -12 -1 -15 -10 -5 -14 -9 -14 -23 -3 -10 8 -14 9 -10 2 4 -7 -2 -18
-15 -27 -26 -19 -42 -21 -32 -4 5 7 3 8 -5 4 -7 -5 -10 -11 -7 -14 5 -5 -33
-37 -44 -37 -3 0 -20 -11 -39 -24 -29 -21 -36 -23 -55 -11 -19 12 -20 11 -8
-2 10 -13 8 -18 -14 -33 -15 -9 -33 -18 -41 -19 -8 -1 -18 -7 -21 -12 -7 -11
-29 -21 -46 -22 -5 0 -12 -4 -15 -9 -11 -16 -80 -63 -91 -63 -6 0 -26 -11 -44
-25 -18 -14 -36 -22 -39 -18 -4 3 -7 2 -7 -3 0 -15 -59 -46 -72 -38 -6 4 -8 3
-4 -4 3 -6 -13 -20 -39 -33 -25 -12 -45 -26 -45 -30 0 -8 -40 -24 -52 -21 -5
1 -8 -4 -8 -12 0 -19 -40 -28 -59 -13 -14 10 -14 10 -2 -5 11 -15 10 -19 -13
-29 -14 -7 -26 -16 -26 -21 0 -5 -4 -6 -10 -3 -5 3 -10 1 -10 -4 0 -6 -7 -11
-15 -11 -8 0 -15 -5 -15 -11 0 -5 -5 -7 -10 -4 -6 4 -7 11 -4 17 4 7 2 8 -4 4
-6 -4 -8 -14 -5 -23 4 -10 2 -14 -4 -10 -6 4 -14 1 -16 -5 -4 -10 -8 -9 -17 2
-10 13 -11 13 -8 0 2 -8 -1 -17 -7 -20 -5 -3 -20 -15 -34 -27 -13 -13 -29 -23
-36 -23 -7 0 -19 -7 -26 -16 -12 -15 -20 -9 -71 47 -32 35 -58 68 -58 73 0 5
-6 14 -14 20 -8 6 -132 160 -275 341 -144 182 -267 337 -274 345 -7 8 -28 35
-47 60 -19 25 -45 56 -56 70 -12 14 -124 153 -248 310 -125 157 -232 292 -239
300 -7 8 -38 48 -70 88 -32 39 -61 73 -65 73 -19 4 -1678 5 -1685 2 -4 -3 4
-19 17 -36 18 -24 22 -36 15 -49 -6 -11 -6 -19 1 -23 5 -3 10 -1 10 4 0 6 5
11 11 11 8 0 8 -4 0 -13 -6 -8 -9 -23 -6 -35 2 -15 0 -19 -11 -15 -8 3 -14 0
-14 -6 0 -6 3 -10 8 -10 22 4 30 -3 27 -21 -3 -17 -1 -19 15 -10 16 8 19 7 17
-10 -1 -11 -6 -19 -12 -16 -7 2 -12 -1 -12 -8 0 -7 6 -13 14 -13 7 0 13 4 13
9 0 17 2 23 11 35 7 7 6 14 -1 18 -5 3 -10 15 -10 26 0 11 -5 17 -10 14 -6 -4
-8 -15 -5 -26 4 -10 3 -19 -2 -19 -14 0 -13 44 0 52 9 6 9 8 0 8 -7 0 -13 5
-13 12 0 6 9 3 20 -7 11 -10 20 -26 20 -35 0 -10 7 -23 15 -30 9 -7 14 -19 11
-26 -6 -15 39 -58 52 -50 5 3 18 -4 28 -17 l19 -22 -22 18 c-11 10 -24 14 -27
9 -3 -5 6 -15 19 -22 14 -7 25 -17 25 -22 0 -5 4 -7 8 -4 4 2 9 -5 9 -16 2
-23 22 -40 39 -34 6 3 11 -7 10 -22 -1 -32 51 -98 73 -94 12 3 10 -1 -4 -13
-17 -14 -18 -16 -2 -11 11 3 16 2 12 -4 -3 -6 -1 -10 4 -10 6 0 11 8 11 18 0
9 12 -9 27 -41 17 -38 29 -54 34 -45 4 7 11 9 15 5 4 -4 -1 -13 -11 -21 -17
-12 -22 -11 -41 3 -12 9 -20 18 -18 20 2 2 11 -2 21 -10 15 -12 16 -12 10 4
-4 10 -7 20 -7 23 0 2 -6 1 -13 -2 -8 -3 -20 2 -27 11 -11 13 -11 16 0 13 7
-2 15 3 18 11 3 8 0 11 -6 7 -7 -4 -20 -3 -30 3 -11 6 -24 6 -33 0 -12 -7 -12
-9 1 -10 8 -1 21 -1 28 0 13 2 12 -20 -2 -30 -4 -4 -3 -10 3 -13 6 -4 11 -2
11 4 0 6 5 8 10 5 7 -4 7 -12 0 -25 -7 -13 -7 -21 2 -26 7 -4 8 -3 4 4 -4 7
-1 12 8 12 8 0 14 -6 12 -12 -1 -7 -1 -10 1 -5 3 4 9 4 14 1 6 -3 5 -11 -2
-20 -7 -9 -8 -14 -3 -13 5 1 16 1 24 0 13 -1 13 -2 0 -12 -12 -8 -12 -10 -1
-7 8 2 15 11 17 20 1 11 -3 15 -14 11 -14 -4 -15 -3 -2 5 8 6 18 8 22 6 4 -3
8 0 8 5 0 6 5 11 12 11 9 0 9 -3 0 -12 -10 -10 -8 -15 9 -24 14 -7 18 -14 10
-18 -6 -4 -11 -2 -11 3 0 6 -5 11 -11 11 -6 0 -8 -9 -4 -20 4 -13 1 -22 -9
-26 -9 -3 -13 -10 -10 -15 3 -5 14 1 24 13 11 13 19 18 20 11 0 -6 -5 -15 -10
-18 -7 -4 -7 -13 0 -26 6 -11 9 -23 6 -27 -3 -5 8 -6 24 -4 17 2 27 8 25 13
-3 4 -13 6 -23 3 -15 -5 -15 -4 -2 6 13 10 13 11 -2 7 -9 -3 -19 1 -22 9 -5
12 -1 14 17 9 12 -4 17 -3 11 2 -9 6 -7 12 4 23 14 13 15 12 9 -4 -6 -14 -4
-17 10 -12 17 6 17 5 1 -7 -22 -17 -12 -30 13 -17 15 8 17 7 14 -9 -2 -14 3
-22 17 -27 16 -5 18 -8 7 -15 -7 -4 -10 -11 -6 -15 3 -4 13 -1 22 6 9 8 15 8
15 2 0 -6 -9 -13 -19 -17 -18 -5 -36 -44 -26 -54 3 -2 5 1 5 7 0 7 7 12 15 12
8 0 14 5 13 12 -2 6 6 13 17 15 19 3 19 3 1 -5 -14 -6 -16 -11 -8 -16 7 -4 17
-4 24 0 6 4 8 3 5 -3 -4 -6 0 -14 9 -17 8 -3 12 -10 9 -16 -6 -9 8 -14 28 -11
5 1 6 -3 2 -9 -4 -7 -12 -7 -25 0 -23 12 -59 2 -38 -11 11 -7 10 -11 -2 -20
-13 -9 -12 -10 3 -5 10 3 21 6 24 6 3 0 -1 8 -8 17 -13 16 -13 16 10 0 20 -13
28 -14 40 -4 10 7 9 3 -3 -10 -18 -22 -18 -22 3 -20 12 1 21 6 21 11 0 5 3 7
6 4 3 -4 1 -16 -5 -27 -10 -18 -7 -22 18 -35 16 -9 31 -22 35 -31 3 -9 12 -13
18 -10 7 4 5 0 -5 -8 -11 -9 -14 -18 -8 -21 5 -4 12 -2 16 4 3 5 12 10 18 10
8 -1 6 -5 -3 -13 -16 -13 -20 -31 -8 -42 3 -4 9 3 13 14 6 21 25 20 25 0 0 -6
-5 -7 -12 -3 -7 5 -9 2 -5 -9 4 -11 1 -15 -13 -12 -10 2 -26 -3 -37 -11 -17
-15 -17 -15 1 -6 22 11 86 -13 86 -32 0 -6 -5 -5 -12 2 -15 15 -28 15 -28 1 0
-5 5 -7 12 -3 8 5 9 2 5 -10 -6 -14 -4 -15 14 -5 17 9 23 8 30 -2 8 -13 13 -5
10 14 -1 5 3 5 9 2 8 -5 6 -13 -6 -26 -18 -20 -29 -26 -19 -10 10 17 -10 20
-30 4 -15 -12 -16 -14 -3 -10 23 8 44 -18 29 -37 -9 -10 -8 -15 3 -19 11 -4
13 -1 9 11 -6 15 -5 15 10 3 14 -11 15 -16 5 -29 -11 -13 -11 -14 1 -7 11 6
13 4 8 -9 -4 -9 -3 -14 2 -11 5 3 12 1 16 -4 3 -5 15 -8 26 -6 15 3 19 0 15
-11 -4 -12 -1 -14 14 -9 12 4 26 -1 39 -14 10 -10 23 -16 27 -13 4 4 4 1 0 -6
-9 -15 12 -45 25 -36 5 3 9 0 9 -6 0 -7 -6 -10 -14 -7 -8 3 -17 -1 -20 -10 -5
-11 -2 -14 9 -9 9 3 13 2 10 -4 -3 -6 1 -10 9 -10 9 0 15 5 14 11 -2 6 4 14
12 16 13 4 13 3 0 -6 -8 -6 -11 -11 -6 -11 5 0 3 -7 -4 -15 -7 -8 -16 -13 -20
-10 -5 3 -11 1 -15 -4 -6 -10 16 -8 48 4 17 7 22 -3 17 -34 -1 -13 1 -13 14
-2 9 7 13 18 9 24 -3 6 -1 7 6 3 9 -6 9 -11 -1 -23 -7 -9 -12 -25 -10 -36 2
-11 -1 -17 -6 -13 -6 4 -8 -2 -5 -14 5 -19 6 -19 19 5 7 15 13 31 11 37 -1 6
5 13 13 15 9 3 11 1 5 -4 -12 -10 -13 -33 -1 -51 6 -11 11 -11 24 0 13 11 14
11 7 -2 -5 -8 -8 -22 -7 -32 2 -9 -2 -19 -8 -23 -6 -4 -11 -1 -9 6 3 28 -1 40
-13 33 -6 -4 -8 -3 -4 4 3 6 2 13 -3 17 -6 3 -8 -4 -5 -17 3 -13 6 -31 6 -40
-1 -10 5 -17 11 -15 7 1 11 -7 9 -18 -2 -18 -1 -18 8 -3 11 18 25 18 54 2 15
-9 17 -14 7 -30 -11 -17 -12 -17 -7 -1 4 12 2 16 -6 11 -7 -5 -8 -3 -3 6 6 9
4 11 -5 5 -9 -5 -11 -4 -6 3 4 8 2 10 -8 6 -12 -5 -11 -9 5 -25 10 -10 19 -24
19 -30 0 -6 7 -8 16 -5 8 3 24 1 35 -4 11 -6 19 -7 19 -1 0 9 -30 25 -42 23
-5 -1 -8 2 -8 8 0 14 11 12 34 -5 10 -8 23 -12 28 -8 6 3 5 -3 -1 -14 -7 -15
-6 -25 5 -41 8 -12 20 -22 26 -22 6 0 3 9 -7 20 -10 11 -15 23 -12 27 4 3 7 1
7 -6 0 -7 5 -9 12 -5 7 4 8 3 4 -5 -4 -6 0 -14 10 -18 14 -5 13 -8 -7 -19 -13
-7 -23 -16 -22 -21 1 -4 -3 -13 -8 -19 -6 -7 -4 -16 6 -24 10 -9 15 -9 15 -1
0 6 -5 11 -11 11 -5 0 -7 5 -4 10 4 6 12 7 18 3 7 -4 5 2 -3 13 -8 10 -10 16
-6 12 5 -4 15 -3 22 3 15 12 37 3 29 -12 -4 -5 -1 -9 4 -9 6 0 11 -5 11 -11 0
-8 -5 -8 -15 1 -8 7 -12 16 -9 21 6 10 -9 12 -19 2 -8 -7 31 -53 44 -53 4 0 9
6 11 14 2 10 9 6 23 -12 15 -21 15 -24 2 -13 -14 11 -21 11 -42 -3 -14 -9 -25
-21 -25 -27 0 -6 -5 -7 -12 -3 -7 5 -8 3 -3 -6 6 -10 13 -7 27 11 13 16 18 18
14 7 -17 -50 -17 -53 -4 -32 7 12 19 19 28 16 13 -5 13 -3 1 11 -9 11 -10 17
-2 17 6 0 11 -4 11 -9 0 -6 9 -8 20 -6 12 2 18 0 15 -6 -4 -5 -10 -7 -15 -4
-5 3 -11 1 -14 -4 -4 -5 3 -12 14 -16 11 -3 25 -15 30 -26 6 -10 17 -19 25
-19 7 0 17 -5 21 -12 4 -6 3 -9 -2 -7 -5 3 -21 11 -36 18 -15 8 -25 18 -22 23
3 4 1 8 -4 8 -5 0 -12 -9 -15 -20 -3 -11 -1 -20 5 -20 5 0 6 -5 2 -12 -4 -7
-3 -8 5 -4 6 4 9 13 5 19 -3 7 2 3 11 -8 9 -11 18 -19 20 -17 12 6 26 1 20 -8
-3 -5 -2 -10 4 -10 5 0 12 6 15 13 3 6 3 2 0 -10 -5 -21 9 -33 19 -15 2 4 2 1
0 -7 -2 -8 2 -11 12 -7 9 3 14 2 10 -3 -3 -5 1 -12 7 -15 7 -3 2 -3 -12 1 -22
5 -23 4 -11 -10 10 -13 17 -14 35 -5 11 6 18 7 13 3 -4 -5 1 -17 10 -28 10
-11 13 -17 6 -14 -6 4 -14 3 -18 -2 -3 -6 -12 -8 -20 -5 -8 4 -12 10 -9 15 3
5 -3 6 -12 2 -11 -4 -13 -8 -6 -11 7 -2 12 -8 12 -13 0 -6 -5 -7 -12 -3 -6 4
-8 3 -4 -4 6 -11 26 -10 59 3 13 5 18 3 17 -6 -5 -30 0 -50 10 -44 6 4 8 16 5
28 -2 12 -2 16 1 9 3 -6 10 -9 16 -6 6 4 5 -2 -1 -15 -12 -21 -5 -27 24 -21 6
1 6 -2 2 -6 -10 -10 -37 -14 -37 -5 0 4 -9 7 -20 8 -11 1 -20 -3 -20 -8 0 -6
5 -7 11 -3 8 4 9 -1 4 -17 -7 -23 -6 -23 7 -5 10 13 17 15 22 7 5 -8 13 -8 27
0 25 13 51 -5 42 -28 -5 -12 -3 -14 8 -8 8 5 5 -1 -5 -13 -19 -22 -32 -30 -21
-13 3 5 0 13 -7 17 -7 4 -10 4 -6 -1 4 -4 3 -14 -3 -21 -8 -10 -6 -12 10 -9
14 2 18 -1 14 -11 -6 -17 13 -19 23 -2 5 7 3 8 -6 3 -10 -6 -10 -4 -2 10 5 10
17 20 26 21 13 2 14 -2 5 -18 -6 -11 -13 -32 -15 -46 -5 -26 -5 -26 10 -7 8
11 12 23 10 27 -2 4 1 10 7 14 8 5 9 3 4 -6 -6 -10 -4 -12 8 -7 9 3 19 1 23
-5 4 -6 3 -8 -3 -5 -6 4 -18 -2 -27 -12 -13 -14 -14 -18 -2 -18 8 0 14 3 13 6
-1 3 1 6 4 6 3 0 28 19 57 43 30 26 56 40 63 36 7 -4 9 -3 6 3 -4 6 2 18 13
28 11 10 20 15 20 12 0 -4 8 1 18 11 9 9 32 28 50 42 l32 26 -32 44 c-18 25
-35 47 -38 50 -3 3 -30 37 -60 75 -30 39 -108 138 -173 220 -65 83 -129 164
-142 180 -13 17 -33 41 -44 55 -11 14 -123 156 -248 315 -126 160 -236 299
-245 310 -16 19 -154 195 -248 316 -148 190 -170 220 -170 229 0 6 -5 10 -11
10 -6 0 -8 7 -5 16 3 8 2 13 -2 10 -4 -2 -15 2 -25 9 -17 12 -14 13 22 10 23
-2 43 1 46 5 6 9 24 8 42 -3 6 -4 14 -3 18 3 4 6 12 7 18 3 20 -12 40 -13 54
-1 10 8 18 6 31 -6 24 -21 33 -20 26 2 -4 10 -2 13 3 7 10 -14 46 -14 55 0 5
6 8 6 8 -2 0 -12 61 -14 70 -2 3 4 12 0 20 -9 13 -14 12 -15 -3 -9 -11 4 -16
3 -12 -4 4 -5 16 -7 27 -3 18 5 19 4 8 -18 -10 -21 -10 -22 4 -4 8 10 22 16
30 13 10 -4 13 -1 10 7 -3 8 -12 13 -21 12 -9 0 -17 5 -19 12 -1 7 0 8 3 2 2
-5 9 -10 14 -10 6 0 7 6 3 13 -4 6 2 4 13 -5 11 -10 22 -18 26 -18 3 0 4 8 1
18 -4 10 -3 13 3 6 4 -6 18 -10 31 -9 13 1 26 -3 29 -8 4 -6 1 -7 -8 -2 -11 7
-12 6 -2 -6 10 -12 10 -18 0 -29 -10 -12 -9 -12 5 -1 10 7 15 21 12 37 -4 24
9 33 21 14 5 -8 11 -8 19 -1 7 6 16 8 20 4 3 -4 23 -8 44 -10 27 -2 33 0 22 7
-8 5 -10 10 -4 10 6 0 17 -7 24 -15 17 -20 31 -19 24 3 -4 10 -2 13 3 7 4 -6
17 -11 28 -11 11 0 23 5 27 11 5 7 8 6 8 -1 0 -7 16 -10 40 -9 22 1 40 -2 40
-6 0 -5 -4 -9 -10 -9 -5 0 -7 -7 -3 -16 5 -13 7 -13 14 -2 15 22 10 -1 -6 -32
-15 -28 -13 -35 9 -31 5 1 6 -6 2 -16 -6 -17 -5 -17 8 0 10 13 16 15 21 6 4
-6 1 -16 -6 -21 -11 -8 -10 -9 3 -4 10 3 20 1 23 -4 3 -5 16 -9 28 -9 55 1 76
-14 72 -51 -4 -28 -2 -29 17 -19 15 8 19 8 14 0 -4 -6 -2 -11 5 -11 10 0 10
-3 1 -12 -19 -19 -14 -32 6 -17 15 13 16 12 3 -3 -17 -22 -34 -13 -26 13 4 11
2 19 -4 19 -6 0 -11 -8 -12 -17 0 -10 -2 -26 -4 -36 -2 -11 1 -15 8 -10 17 10
50 12 66 3 10 -5 10 -9 2 -14 -6 -4 -11 -13 -11 -19 1 -7 10 -1 22 13 11 14
19 18 16 10 -3 -8 2 -21 11 -28 14 -11 13 -12 -6 -3 -15 8 -24 8 -28 1 -5 -8
-11 -7 -21 1 -12 10 -12 14 -2 20 7 4 9 12 4 16 -5 4 -11 3 -13 -4 -2 -7 -10
-10 -17 -7 -7 3 -19 -3 -27 -13 -13 -16 -12 -17 4 -4 18 14 32 9 32 -12 0 -6
16 -13 35 -14 56 -5 59 -6 54 -15 -3 -4 0 -8 6 -8 6 0 8 -4 5 -10 -3 -5 -2
-10 3 -10 5 0 15 -14 22 -31 9 -21 15 -27 21 -17 4 7 11 9 15 5 10 -9 1 -17
-25 -22 -12 -2 -19 0 -16 5 7 11 -14 54 -22 46 -4 -3 -12 -1 -20 5 -9 9 -13 8
-13 0 0 -6 5 -11 10 -11 6 0 9 -3 9 -7 -4 -23 3 -35 15 -30 11 4 13 1 9 -10
-5 -12 -2 -15 9 -10 10 3 19 -1 22 -10 5 -11 2 -14 -11 -9 -17 6 -17 5 0 -8 9
-7 17 -19 17 -25 0 -8 8 -10 23 -6 21 6 21 6 3 -9 -11 -9 -14 -16 -8 -16 7 0
21 14 31 31 17 28 27 26 31 -9 1 -4 8 -10 15 -15 8 -4 11 -15 8 -24 -4 -11 -3
-14 5 -9 7 4 12 3 12 -3 0 -5 -5 -11 -11 -13 -7 -2 -5 -9 5 -17 14 -11 16 -11
16 3 0 9 4 16 10 16 5 0 6 -7 3 -17 -4 -11 -3 -14 5 -9 7 4 12 3 12 -1 0 -5
-9 -14 -21 -21 -15 -10 -19 -10 -14 -1 6 8 4 10 -5 4 -9 -6 -11 -4 -5 5 6 9 4
11 -5 5 -9 -6 -11 -4 -5 5 5 9 4 11 -3 6 -16 -10 -16 -12 15 -40 28 -26 48
-25 39 3 -5 12 -2 11 9 -3 8 -11 15 -25 15 -30 0 -6 -5 -4 -10 4 -6 10 -10 11
-10 3 0 -7 -7 -13 -15 -13 -8 0 -15 -5 -15 -10 0 -7 7 -7 20 0 18 10 20 8 17
-12 -2 -13 -2 -17 0 -10 3 7 9 9 15 6 6 -4 8 -3 5 2 -3 6 -1 16 4 24 9 13 10
13 8 0 -3 -30 1 -41 13 -34 7 4 8 3 4 -4 -4 -6 -14 -9 -24 -6 -15 5 -15 4 -1
-5 8 -5 24 -8 35 -6 10 2 21 4 24 4 3 1 -2 6 -10 11 -9 6 -10 10 -3 10 16 0
26 -17 13 -25 -5 -3 -10 -10 -10 -15 0 -9 40 -25 53 -22 5 1 6 -2 2 -8 -11
-18 -15 -53 -6 -67 6 -12 10 -11 22 3 12 16 12 17 -4 11 -11 -4 -16 -3 -12 3
9 14 20 12 42 -7 10 -10 13 -14 6 -9 -9 6 -18 5 -24 -1 -12 -12 -21 -55 -10
-49 4 3 15 -8 24 -23 11 -19 23 -27 39 -25 34 4 34 4 18 14 -9 5 -19 5 -27 -2
-9 -7 -13 -7 -13 1 0 6 5 11 11 11 5 0 8 4 4 9 -9 15 15 25 28 12 9 -9 7 -10
-7 -5 -13 5 -17 4 -12 -4 4 -7 13 -12 21 -12 16 0 28 -27 14 -35 -5 -4 -6 -11
-3 -17 4 -7 10 -5 16 6 5 9 14 16 21 16 8 0 8 -3 -2 -9 -10 -7 -8 -12 10 -25
13 -9 18 -16 12 -16 -7 0 -15 5 -18 10 -3 6 -11 10 -17 10 -20 0 23 -38 50
-45 23 -6 25 -8 9 -16 -9 -6 -17 -17 -17 -25 0 -8 -5 -12 -10 -9 -6 4 -8 11
-5 16 4 5 1 17 -4 26 -6 11 -11 13 -11 5 0 -7 -5 -10 -11 -6 -8 5 -8 9 1 14 7
4 8 10 3 13 -5 3 -14 -3 -21 -14 -10 -15 -10 -19 0 -17 7 2 12 -3 10 -10 -1
-8 2 -11 9 -6 9 5 10 2 6 -10 -4 -10 -3 -15 3 -11 8 5 32 -27 27 -36 -1 -3 2
-1 7 3 14 11 56 10 56 -2 0 -5 -7 -7 -15 -4 -8 4 -15 1 -15 -6 0 -6 5 -8 10
-5 6 3 10 1 10 -4 0 -6 -4 -11 -10 -11 -5 0 -10 -5 -10 -10 0 -6 6 -9 13 -8 6
2 11 -3 9 -10 -1 -8 2 -11 7 -8 5 3 12 -2 15 -12 3 -9 12 -27 19 -38 l13 -22
11 24 c6 14 7 26 2 30 -5 3 -9 -2 -9 -11 0 -9 -5 -13 -10 -10 -6 4 -7 12 -3
18 4 7 8 17 9 22 0 6 2 16 2 23 2 15 22 6 22 -9 0 -6 -4 -7 -10 -4 -15 9 -12
-4 4 -21 11 -10 12 -22 5 -46 -8 -29 -7 -31 7 -17 8 9 16 25 17 37 1 13 5 18
10 13 5 -5 2 -23 -8 -41 -16 -31 -16 -33 4 -46 12 -9 18 -21 14 -30 -5 -13 -1
-15 15 -9 13 4 22 2 22 -4 0 -6 3 -10 8 -10 20 3 32 -2 26 -12 -4 -8 -9 -7
-15 2 -7 12 -9 11 -9 -1 0 -11 -3 -11 -12 -2 -7 7 -16 12 -20 12 -4 0 1 -9 12
-20 12 -12 19 -24 16 -28 -3 -4 4 -9 15 -9 10 -1 19 3 19 8 0 6 5 7 10 4 6 -4
7 -12 3 -18 -11 -18 -11 -47 0 -54 6 -3 7 -1 3 5 -4 7 -3 12 3 12 5 0 12 -6
14 -12 4 -10 6 -10 6 0 1 7 5 11 11 7 5 -3 7 -12 3 -20 -3 -8 0 -15 7 -15 6 0
8 -6 5 -12 -4 -7 3 -2 15 11 16 18 18 26 8 32 -6 4 -15 6 -19 3 -4 -2 -10 0
-14 6 -4 6 -11 7 -17 4 -7 -5 -8 -2 -3 6 5 8 4 11 -1 7 -6 -3 -10 5 -10 19 0
13 4 24 9 24 5 0 7 -7 4 -15 -4 -8 -2 -17 2 -20 5 -3 11 2 15 10 3 8 11 15 18
14 10 0 10 -2 1 -6 -21 -8 -15 -21 25 -49 20 -14 29 -24 19 -20 -13 4 -17 2
-14 -6 2 -7 10 -12 16 -10 7 1 10 -2 7 -7 -4 -5 0 -11 6 -14 9 -3 10 -8 2 -16
-7 -8 -15 -7 -30 4 -19 15 -19 15 1 8 18 -6 19 -5 6 11 -11 13 -16 14 -22 4
-13 -20 -11 -26 11 -33 11 -4 18 -11 15 -16 -4 -5 2 -6 12 -2 16 6 17 5 3 -12
-11 -14 -11 -17 -1 -11 10 7 12 3 6 -15 -4 -17 -3 -20 3 -10 8 11 11 10 14 -5
3 -17 4 -17 10 4 4 14 2 20 -4 15 -7 -3 -8 -1 -4 5 4 7 3 12 -2 12 -5 0 -9 7
-9 15 0 8 5 11 10 8 6 -4 8 0 4 10 -3 9 -1 19 5 23 7 4 8 3 4 -4 -4 -7 -2 -12
5 -12 8 0 8 -4 -1 -15 -7 -9 -10 -19 -6 -22 4 -4 12 -1 17 7 9 12 9 11 4 -5
-4 -11 -8 -27 -9 -35 -3 -22 -16 -41 -25 -36 -4 3 -8 -1 -8 -9 0 -12 4 -12 20
2 10 10 22 17 25 15 4 -2 8 1 10 7 2 6 -1 11 -8 11 -6 0 -8 5 -5 10 4 6 14 1
25 -12 17 -21 17 -24 4 -35 -9 -6 -22 -9 -29 -7 -7 3 -16 0 -21 -7 -4 -8 -3
-10 4 -5 7 4 12 3 12 -2 0 -11 -71 -57 -82 -54 -5 1 -8 -2 -8 -7 0 -5 -23 -23
-51 -41 -28 -17 -48 -25 -44 -18 4 7 -3 1 -15 -14 -12 -16 -28 -28 -36 -28 -8
0 -17 -6 -20 -14 -5 -13 -49 -31 -67 -27 -5 1 -6 -3 -3 -8 3 -5 -2 -15 -11
-22 -14 -12 -16 -12 -8 1 4 8 -2 6 -13 -5 -36 -34 -52 -46 -52 -38 0 4 -7 -2
-15 -13 -8 -10 -15 -16 -15 -12 0 4 -12 -4 -26 -17 -22 -20 -30 -23 -41 -13
-12 10 -14 8 -11 -8 2 -11 -2 -18 -9 -16 -7 1 -13 -3 -13 -9 0 -6 -7 -9 -14
-6 -10 4 -13 1 -10 -8 4 -10 0 -13 -15 -10 -12 2 -19 0 -16 -5 7 -12 -41 -44
-54 -35 -7 4 -8 -1 -4 -12 6 -16 5 -16 -10 -4 -16 12 -17 12 -11 -5 4 -10 3
-16 -1 -12 -5 5 -15 -1 -23 -13 -8 -11 -20 -18 -28 -15 -8 3 -14 -1 -14 -9 0
-8 -7 -15 -15 -15 -8 0 -15 -5 -15 -11 0 -6 -7 -8 -16 -5 -8 3 -12 2 -9 -4 3
-6 2 -10 -4 -10 -5 0 -12 6 -15 13 -3 6 -3 1 0 -12 5 -20 3 -23 -14 -19 -15 4
-19 2 -15 -8 3 -9 -1 -14 -12 -14 -11 0 -15 5 -11 16 3 9 2 12 -5 9 -5 -4 -7
-15 -4 -26 4 -13 2 -19 -8 -19 -9 0 -17 -4 -19 -8 -1 -5 -25 -23 -53 -42 -27
-18 -53 -38 -57 -44 -5 -7 -8 -7 -8 2 0 6 -5 12 -10 12 -6 0 -10 -6 -8 -12 2
-7 -1 -14 -6 -15 -5 0 -13 -9 -18 -18 -6 -10 -17 -14 -31 -10 -16 5 -18 4 -8
-3 11 -8 8 -14 -15 -28 -16 -10 -32 -23 -36 -29 -4 -5 -8 -7 -8 -3 0 4 -12 -4
-27 -18 -14 -13 -28 -22 -31 -19 -3 3 -12 -4 -20 -16 -8 -11 -20 -18 -28 -15
-8 3 -13 2 -11 -2 1 -4 -1 -7 -5 -7 -4 0 -15 -10 -24 -23 -9 -13 -22 -21 -30
-18 -7 3 -16 0 -20 -6 -5 -7 -2 -8 7 -3 12 8 12 6 0 -8 -17 -22 -28 -22 -35 1
-3 11 -4 10 -3 -5 3 -29 -60 -78 -79 -62 -9 8 -11 5 -7 -12 4 -15 3 -20 -5
-15 -7 4 -12 1 -12 -8 0 -21 -19 -20 -37 2 -8 9 -11 11 -8 4 4 -8 -1 -20 -11
-28 -18 -14 -18 -14 4 -4 13 6 22 7 22 1 0 -10 -39 -27 -52 -23 -5 1 -8 -3 -8
-8 0 -6 -15 -24 -32 -40 -24 -22 -40 -29 -58 -25 -14 2 -19 2 -12 -1 20 -9
-25 -54 -47 -47 -9 4 -13 3 -9 -2 13 -14 -33 -47 -48 -34 -9 8 -11 5 -7 -11 4
-16 2 -19 -12 -13 -14 5 -16 3 -10 -7 6 -10 4 -12 -9 -7 -10 4 -15 3 -11 -3 3
-6 1 -10 -5 -10 -6 0 -9 -4 -6 -9 7 -11 -22 -23 -35 -15 -5 3 -8 0 -7 -8 2 -7
-3 -12 -10 -10 -8 1 -11 -2 -7 -7 3 -6 -4 -15 -15 -21 -19 -10 -24 -7 -21 13
1 5 -3 6 -8 3 -5 -3 -7 -15 -4 -25 6 -22 -5 -30 -41 -33 -14 -1 -26 -6 -26
-11 0 -5 7 -6 16 -3 8 3 12 2 9 -4 -3 -6 -15 -10 -26 -10 -11 0 -17 -5 -14
-10 3 -6 -2 -13 -12 -17 -10 -3 -26 -15 -36 -27 -10 -12 -16 -14 -12 -6 6 13
5 13 -7 0 -28 -31 -71 -65 -64 -50 4 8 -3 3 -16 -12 -13 -16 -32 -28 -43 -28
-10 0 -16 -3 -12 -6 10 -10 -133 -115 -145 -108 -6 4 -8 3 -4 -4 3 -6 -32 -41
-81 -80 -71 -57 -90 -68 -102 -59 -12 10 -13 9 -7 -1 14 -23 -77 -95 -108 -87
-17 5 -18 4 -6 -4 12 -8 12 -13 3 -22 -9 -9 -16 -9 -30 2 -16 13 -17 12 -5 -2
11 -14 7 -21 -23 -45 -20 -16 -47 -39 -61 -52 -15 -13 -33 -21 -40 -18 -17 7
-19 -10 -2 -18 7 -4 3 -4 -9 -2 -16 3 -20 0 -16 -13 4 -9 3 -13 -1 -10 -3 3
-26 -11 -49 -32 -23 -22 -47 -37 -54 -35 -7 3 -15 0 -19 -6 -5 -7 -2 -8 6 -3
8 5 11 3 8 -6 -3 -8 -12 -13 -21 -11 -8 1 -19 -3 -23 -9 -4 -8 -3 -9 4 -5 7 4
12 3 12 -3 0 -11 -32 -23 -48 -19 -5 2 -10 -1 -10 -7 0 -5 4 -9 10 -7 5 1 6
-2 3 -8 -4 -6 -13 -9 -21 -6 -8 3 -13 0 -11 -6 1 -7 -8 -17 -20 -23 -13 -5
-23 -14 -23 -19 0 -14 -33 -35 -55 -36 -15 0 -17 -2 -6 -9 11 -7 9 -10 -7 -15
-11 -4 -23 -14 -26 -22 -3 -8 -10 -12 -16 -9 -5 3 -10 0 -10 -8 0 -8 -16 -22
-35 -31 -19 -9 -35 -19 -35 -22 0 -3 5 -2 12 2 7 5 8 3 3 -5 -4 -8 -17 -10
-34 -7 -18 5 -22 4 -12 -3 12 -8 13 -12 1 -26 -7 -9 -18 -14 -25 -12 -6 3 -19
-1 -30 -9 -10 -8 -14 -14 -9 -14 6 0 15 5 22 12 9 9 12 9 12 0 0 -7 -8 -16
-17 -19 -10 -4 -29 -19 -44 -34 -15 -15 -30 -25 -33 -22 -3 4 -6 1 -6 -6 0 -7
-10 -21 -22 -32 -26 -21 -43 -25 -32 -7 4 7 3 8 -5 4 -6 -4 -8 -12 -5 -18 9
-14 -17 -29 -41 -22 -18 5 -19 4 -2 -6 17 -11 16 -13 -7 -31 -13 -10 -27 -19
-31 -19 -4 0 -16 -12 -27 -26 -11 -14 -26 -23 -33 -20 -7 2 -12 -3 -11 -12 1
-10 -6 -16 -16 -16 -10 1 -15 -2 -13 -7 7 -10 -45 -59 -63 -59 -8 0 -10 -5 -6
-12 5 -7 2 -9 -9 -5 -12 4 -14 2 -10 -10 4 -10 2 -14 -4 -10 -6 4 -14 0 -17
-9 -3 -8 -10 -12 -16 -9 -6 4 -7 -1 -3 -12 6 -15 4 -16 -9 -5 -13 10 -18 10
-24 1 -4 -8 -3 -9 4 -5 7 4 12 3 12 -2 0 -18 -14 -22 -30 -7 -14 13 -17 13
-17 0 0 -8 4 -12 9 -9 4 3 8 -2 8 -10 0 -19 -4 -19 -33 -5 -21 10 -21 9 -3 -5
17 -14 17 -16 3 -22 -9 -3 -14 -10 -11 -15 3 -5 -4 -9 -16 -9 -12 0 -18 -5
-15 -10 3 -5 -1 -10 -10 -10 -10 0 -13 -5 -9 -12 5 -8 2 -9 -10 -5 -10 4 -15
3 -11 -4 9 -14 -15 -40 -29 -32 -17 11 -37 12 -30 2 3 -5 10 -7 15 -4 24 15 5
-15 -34 -53 -45 -44 -60 -52 -51 -27 4 8 2 15 -4 15 -6 0 -9 -12 -7 -26 3 -31
-18 -42 -43 -23 -15 13 -16 12 -3 -4 11 -14 11 -20 1 -32 -15 -18 -34 -20 -24
-2 4 7 3 9 -2 4 -5 -5 -10 -13 -10 -18 -1 -5 -2 -14 -3 -20 0 -5 -4 -8 -8 -6
-5 3 -17 1 -28 -4 -19 -7 -19 -8 -1 -8 15 -1 16 -4 6 -15 -6 -8 -18 -12 -26
-9 -10 4 -13 0 -8 -13 5 -17 4 -17 -11 1 -17 20 -17 20 -11 -1 5 -15 -6 -31
-44 -68 -27 -26 -54 -45 -59 -42 -5 4 -13 1 -17 -5 -4 -8 -3 -9 4 -5 7 4 12 3
12 -3 0 -17 -22 -24 -31 -10 -6 10 -8 7 -7 -11 3 -22 -1 -25 -25 -23 -28 2
-36 -10 -15 -23 7 -5 8 -3 3 6 -5 9 -4 11 4 6 9 -6 9 -11 0 -22 -9 -11 -15
-12 -26 -2 -11 9 -17 8 -29 -5 -8 -9 -9 -12 -2 -7 17 14 25 12 25 -5 0 -8 -6
-15 -14 -15 -7 0 -13 -4 -13 -8 0 -5 24 -8 54 -7 34 1 61 -4 73 -13 17 -14 17
-14 0 -8 -11 3 -16 2 -12 -5 4 -5 16 -7 27 -3 18 5 19 4 8 -18 -10 -21 -10
-22 4 -4 8 10 19 15 25 11 7 -3 8 0 5 9 -3 9 -11 14 -16 13 -6 -1 -13 5 -15
13 -3 9 -1 11 4 5 9 -12 23 -13 40 -2 6 4 14 4 16 -1 7 -9 448 -9 464 1 6 4
14 3 18 -3 6 -10 -1 -14 -20 -10 -6 1 -6 -3 1 -10 12 -12 47 -3 39 11 -3 4 3
6 15 4 11 -2 22 1 25 6 4 5 12 6 18 2 16 -10 227 -10 234 0 2 4 10 4 16 0 7
-4 17 -8 22 -8 6 -1 9 -6 8 -13 -2 -6 4 -9 12 -5 13 4 13 8 3 22 -11 14 -11
14 2 4 16 -12 44 -12 56 0 4 3 14 3 23 -2 20 -10 92 -8 110 4 9 5 12 4 8 -2
-7 -11 81 -12 98 -1 6 4 16 3 23 -1 8 -4 5 -11 -9 -20 -16 -9 -19 -9 -14 0 5
8 4 10 -4 5 -16 -11 -3 -26 16 -19 10 4 14 2 10 -4 -3 -5 0 -10 8 -10 11 0 12
4 4 14 -9 10 -8 13 5 13 10 0 15 4 12 8 -3 5 8 8 25 7 16 -1 32 2 35 7 3 4 13
4 23 -2 12 -6 22 -5 29 2 8 8 12 8 12 1 0 -6 13 -9 29 -8 28 2 29 1 18 -22 -8
-18 -7 -27 2 -36 10 -9 11 -8 5 6 -4 11 0 25 10 36 9 10 13 21 9 26 -5 4 1 3
12 -2 23 -12 95 -11 114 2 9 5 12 4 8 -2 -7 -11 81 -12 98 -1 6 4 16 3 23 -1
8 -4 5 -11 -9 -20 -16 -9 -19 -9 -14 0 5 8 4 10 -4 5 -16 -11 -3 -26 16 -19
10 4 14 2 10 -4 -3 -5 0 -10 8 -10 11 0 12 4 4 14 -9 10 -8 13 5 13 10 0 15 4
12 8 -3 5 8 8 25 7 16 -1 32 2 35 7 3 4 13 4 23 -2 12 -6 22 -5 29 2 8 8 12 8
12 1 0 -6 13 -9 29 -8 28 2 29 1 18 -22 -8 -18 -7 -27 2 -36 10 -9 11 -8 5 6
-4 11 0 25 10 36 9 10 13 21 9 26 -5 4 1 3 12 -2 23 -12 95 -11 114 2 9 5 12
4 8 -2 -7 -11 81 -12 98 -1 6 4 16 3 23 -1 8 -4 5 -11 -9 -20 -16 -9 -19 -9
-14 0 5 8 4 10 -4 5 -16 -11 -3 -26 16 -19 10 4 14 2 10 -4 -3 -5 0 -10 8 -10
11 0 12 4 4 14 -9 10 -8 13 5 13 10 0 15 4 12 8 -3 5 11 8 30 7 18 -1 34 1 34
5 0 14 30 6 31 -9 0 -11 2 -12 6 -3 2 6 9 10 14 6 5 -3 9 0 9 6 0 6 4 9 9 6 5
-3 21 11 37 32 38 52 61 72 70 64 4 -4 4 -2 0 5 -4 7 1 21 11 31 10 11 29 33
43 51 14 18 31 29 39 26 11 -4 11 -2 3 8 -9 10 -7 17 6 28 9 8 28 29 42 46 13
17 28 29 32 27 5 -3 7 -1 6 4 -4 14 94 141 110 141 6 1 12 8 12 16 0 8 4 15 9
15 5 0 13 9 16 20 3 11 14 20 22 20 9 0 14 3 10 6 -6 6 -2 12 48 69 17 18 43
50 58 70 16 19 33 32 39 29 6 -4 8 -3 5 3 -6 9 17 41 83 114 14 15 40 45 59
67 19 23 38 39 43 36 5 -3 7 -1 6 4 -5 16 62 93 74 86 7 -4 8 -2 4 5 -4 6 0
14 8 17 9 3 14 9 11 14 -2 4 11 21 30 38 19 16 35 33 35 36 0 15 64 75 74 69
6 -3 8 -3 4 2 -10 10 11 37 23 29 5 -3 6 3 2 12 -5 14 -3 16 11 11 11 -4 15
-3 10 4 -8 14 46 70 59 62 6 -3 7 -1 3 5 -4 7 25 45 73 94 45 45 81 85 81 89
0 4 9 11 20 14 11 4 18 10 16 14 -7 10 31 41 40 33 4 -4 4 -2 1 5 -4 6 6 22
23 36 16 14 30 30 30 36 0 6 4 10 9 9 5 -2 9 1 9 5 1 14 36 36 46 30 5 -4 6
-1 2 5 -7 12 39 64 48 54 3 -3 6 0 6 7 0 21 107 124 121 115 8 -5 10 -3 4 5
-9 15 293 314 308 304 5 -3 7 -2 4 4 -3 5 24 39 60 74 37 35 63 57 59 49 -4
-8 0 -6 9 5 9 11 20 19 25 18 5 -2 6 5 3 15 -3 9 -3 14 1 10 5 -4 32 18 62 48
33 34 58 53 66 48 7 -5 9 -2 6 8 -6 14 28 45 45 40 5 -1 6 1 3 6 -7 12 27 39
43 34 8 -3 11 0 7 6 -3 6 4 18 16 26 12 9 18 16 13 16 -6 1 1 7 15 14 14 8 28
12 33 9 4 -2 7 -1 6 4 -3 20 2 34 11 28 6 -3 10 -2 10 2 0 5 31 35 68 68 108
94 141 120 155 120 6 1 10 7 9 15 -2 8 0 12 4 8 4 -4 13 -3 21 3 7 6 13 8 13
4 0 -10 -51 -49 -68 -51 -8 -2 -17 -6 -20 -10 -4 -4 0 -5 9 -1 9 3 22 1 28 -4
6 -5 9 -6 6 -2 -3 3 4 13 15 20 15 11 24 12 34 4 7 -6 15 -8 19 -5 3 3 4 -6 3
-20 -2 -18 3 -30 15 -37 13 -6 19 -6 19 1 0 5 -4 10 -10 10 -5 0 -10 5 -10 11
0 8 5 7 15 -1 20 -17 14 -33 -13 -35 -11 -1 -18 3 -15 8 4 6 1 7 -7 2 -9 -6
-11 -4 -5 5 6 9 4 11 -5 5 -9 -6 -11 -4 -5 5 6 9 4 11 -5 5 -9 -6 -11 -4 -5 5
6 9 4 11 -4 6 -9 -6 -9 -12 3 -25 9 -10 15 -20 14 -22 -2 -2 -1 -3 1 -2 2 2
11 -3 19 -10 13 -10 14 -9 7 2 -6 10 -4 12 4 7 7 -5 10 -11 7 -14 -8 -7 37
-30 48 -24 4 2 2 8 -5 13 -11 7 -11 9 -1 9 7 0 15 -7 18 -15 4 -8 10 -13 14
-10 5 3 6 -4 3 -15 -4 -16 -2 -19 13 -14 18 6 18 6 0 -8 -10 -8 -30 -14 -42
-12 -13 1 -27 -3 -31 -9 -3 -7 -3 -9 2 -5 4 4 14 3 22 -3 11 -10 11 -15 1 -28
-12 -14 -11 -14 5 -2 11 9 17 10 17 2 0 -6 5 -11 11 -11 8 0 8 4 0 14 -9 10
-7 17 5 27 19 16 44 21 44 8 0 -8 -15 -13 -32 -10 -11 2 -9 -11 6 -39 12 -21
12 -26 -3 -37 -14 -12 -14 -12 3 -6 14 5 17 3 12 -6 -6 -9 -3 -9 13 1 12 7 21
16 21 21 0 4 -4 6 -9 2 -5 -3 -12 -1 -16 4 -3 6 3 14 13 20 15 8 18 6 17 -17
-2 -35 5 -48 16 -31 7 11 11 8 15 -9 5 -18 9 -20 15 -10 6 9 9 9 9 1 0 -20
-18 -24 -29 -6 -8 13 -10 14 -11 4 0 -11 -4 -10 -13 4 -11 14 -16 15 -22 5 -6
-9 -4 -11 5 -5 9 5 11 1 6 -16 -3 -13 -3 -19 0 -13 3 7 16 2 34 -14 16 -14 27
-30 24 -34 -3 -5 -12 -1 -21 9 -13 16 -13 15 -1 -7 7 -14 11 -28 10 -32 -2 -8
41 -4 56 5 17 11 41 -3 35 -20 -5 -13 -2 -13 14 -4 16 8 22 8 26 -3 4 -10 0
-12 -14 -9 -10 3 -19 0 -19 -6 0 -10 21 -16 43 -12 5 1 6 -3 2 -9 -6 -9 8 -15
30 -10 5 1 2 -7 -7 -17 -12 -13 -14 -23 -7 -36 6 -9 8 -21 5 -26 -3 -5 1 -12
10 -15 8 -3 12 -11 8 -17 -4 -8 -3 -9 4 -5 7 4 12 2 12 -3 0 -6 -6 -11 -12
-11 -8 0 -6 -5 4 -11 10 -5 15 -17 12 -27 -5 -14 -4 -14 4 -2 7 9 7 19 2 25
-13 15 8 35 28 28 10 -4 13 -2 8 5 -4 7 -2 12 4 12 7 0 9 -7 6 -16 -3 -9 -6
-18 -6 -21 0 -3 -6 0 -13 6 -11 8 -14 5 -14 -19 0 -17 5 -30 10 -30 5 0 4 -6
-2 -14 -9 -10 -8 -15 3 -19 11 -4 13 -1 9 11 -6 15 -5 15 10 3 14 -11 15 -16
5 -29 -11 -13 -11 -14 0 -8 19 11 83 -62 77 -88 -3 -12 -2 -15 1 -8 3 6 10 10
14 7 5 -3 12 0 16 6 5 8 3 9 -7 4 -8 -5 -11 -5 -7 0 4 4 0 14 -10 22 -15 13
-15 13 6 3 15 -7 22 -7 22 0 0 5 8 10 18 10 14 0 14 -2 3 -9 -8 -5 -16 -15
-17 -23 -1 -7 -5 -21 -9 -30 -4 -11 -3 -18 4 -18 6 0 10 5 9 11 -2 6 4 14 12
16 13 4 13 3 0 -6 -13 -10 -13 -11 0 -11 9 -1 6 -6 -10 -16 -14 -8 -17 -13 -8
-10 21 6 36 -13 18 -24 -7 -4 -8 -10 -3 -13 6 -4 15 5 22 19 6 15 7 23 1 19
-14 -9 -12 5 5 35 8 14 14 20 15 13 0 -6 7 -19 16 -27 8 -9 11 -16 5 -16 -5 0
-15 8 -20 18 -8 13 -10 14 -10 2 0 -17 22 -50 33 -50 4 0 4 5 1 10 -3 6 -1 10
5 10 7 0 9 -8 4 -22 -6 -20 -5 -21 9 -10 13 11 15 10 13 -13 -3 -21 0 -24 15
-20 12 4 19 1 19 -6 0 -7 -3 -9 -7 -6 -3 4 -12 -1 -20 -11 -8 -9 -11 -11 -7
-3 5 10 3 12 -6 6 -8 -5 -11 -4 -6 3 3 5 0 13 -6 15 -10 4 -10 6 0 6 6 1 12 5
12 10 0 6 -9 8 -20 6 -11 -2 -19 -1 -16 3 2 4 -2 15 -9 25 -12 17 -13 16 -18
-2 -4 -15 -1 -18 12 -13 14 5 14 4 2 -12 -11 -13 -12 -19 -2 -29 10 -9 11 -8
5 8 -7 18 -6 19 9 6 11 -8 15 -22 12 -35 -3 -12 -2 -15 1 -8 5 10 10 10 25 -4
10 -9 16 -21 13 -26 -3 -4 0 -7 7 -6 6 2 14 -3 16 -10 3 -8 -1 -10 -14 -5 -10
3 -15 3 -11 -1 3 -4 12 -8 20 -10 25 -3 36 -16 31 -36 -3 -11 0 -20 6 -20 5 0
8 6 5 13 -3 10 4 13 26 12 32 -2 37 4 18 23 -9 9 -15 7 -25 -6 -8 -9 -11 -11
-7 -3 5 10 3 12 -6 6 -9 -6 -11 -4 -5 5 6 9 4 11 -5 5 -9 -6 -11 -4 -5 5 6 9
4 11 -5 5 -9 -5 -11 -4 -6 3 4 7 1 12 -6 12 -10 0 -9 3 2 11 13 10 13 10 0 6
-10 -3 -16 2 -16 14 0 17 2 17 18 2 10 -8 15 -19 13 -23 -7 -11 22 -33 33 -26
5 3 17 -3 26 -13 14 -15 15 -24 7 -40 -17 -31 -12 -38 9 -12 11 13 20 18 20
13 0 -6 -4 -13 -10 -17 -5 -3 -7 -13 -4 -23 5 -14 4 -15 -5 -2 -6 8 -11 12
-11 8 0 -4 -11 -3 -25 2 -18 7 -23 6 -19 -3 2 -7 12 -13 22 -14 9 -1 26 -3 37
-5 14 -2 19 2 17 15 -2 9 1 17 5 17 5 0 9 -9 10 -20 1 -11 -3 -20 -9 -20 -6 0
-8 -3 -4 -7 4 -4 15 -8 24 -8 10 0 17 -8 17 -18 0 -10 8 -25 18 -32 17 -12 17
-13 0 -19 -10 -4 -14 -4 -11 0 4 3 1 13 -7 20 -8 8 -12 21 -9 29 4 8 1 15 -4
15 -6 0 -9 -12 -6 -27 4 -23 3 -25 -11 -13 -11 9 -13 15 -4 20 6 4 7 10 3 13
-5 3 -14 -1 -21 -8 -10 -10 -9 -14 3 -19 8 -3 13 -10 9 -15 -3 -6 4 -8 15 -6
11 2 20 0 20 -6 0 -5 -6 -9 -14 -9 -8 0 -18 -4 -21 -10 -4 -7 2 -7 19 0 16 6
27 6 31 0 4 -6 12 -10 18 -10 7 0 6 4 -3 10 -13 8 -13 10 2 10 17 0 20 -33 5
-57 -10 -16 4 -24 20 -11 7 6 17 8 20 4 4 -4 1 -11 -7 -16 -13 -9 -13 -10 0
-10 12 0 12 -2 2 -9 -11 -7 -10 -9 3 -15 9 -3 13 -10 10 -16 -3 -5 -1 -10 5
-10 7 0 10 7 7 14 -4 10 -1 13 9 9 7 -3 14 0 14 6 0 6 -6 10 -12 9 -7 -2 -12
3 -10 10 1 8 -2 11 -9 6 -8 -5 -9 -3 -4 6 5 8 0 19 -15 30 -17 13 -20 19 -10
25 9 5 11 4 6 -3 -4 -7 -1 -13 6 -13 7 -1 19 -2 27 -3 8 0 15 -7 17 -14 1 -7
0 -8 -3 -2 -2 5 -9 10 -14 10 -6 0 -5 -8 1 -20 6 -11 16 -17 25 -14 19 8 19
-6 -1 -34 -14 -20 -14 -22 0 -22 9 0 16 6 16 14 0 8 5 18 12 22 8 5 9 2 5 -9
-7 -18 24 -41 39 -29 5 4 2 -1 -5 -11 -12 -15 -11 -20 4 -37 10 -11 14 -24 9
-32 -12 -19 -12 -48 -1 -55 6 -4 7 -1 2 7 -6 10 -4 12 9 7 10 -4 21 -7 24 -7
4 0 0 -5 -8 -10 -13 -9 -13 -12 2 -24 10 -7 14 -17 10 -21 -4 -5 -1 -5 6 -1
11 6 16 -4 13 -26 0 -4 9 -5 22 -3 22 4 22 4 2 -11 l-20 -16 20 4 c12 2 19 -2
17 -10 -1 -8 2 -11 8 -7 5 3 10 2 10 -3 0 -5 11 -20 24 -33 15 -16 23 -35 22
-56 -1 -17 2 -29 7 -26 4 2 7 13 7 24 0 10 4 19 10 19 5 0 7 -8 4 -17 -5 -15
-4 -16 5 -3 8 11 7 18 -4 26 -22 17 -18 26 5 12 14 -9 18 -19 13 -33 -5 -16
-3 -18 8 -8 11 9 19 8 33 -3 11 -8 15 -14 9 -14 -7 0 -15 5 -18 10 -8 12 -25
4 -25 -12 0 -6 3 -8 6 -5 4 3 15 2 25 -3 13 -8 21 -6 29 7 10 16 11 16 6 1 -3
-9 0 -19 7 -22 9 -3 8 -5 -1 -5 -8 -1 -10 -6 -6 -13 6 -10 5 -10 -7 -1 -16 13
-39 0 -39 -21 0 -6 5 -4 10 4 12 20 33 0 33 -33 0 -15 10 -30 28 -42 15 -11
27 -23 26 -28 -4 -22 24 -16 34 7 7 14 16 23 22 19 5 -3 3 -9 -4 -14 -11 -8
-9 -14 11 -30 14 -12 24 -28 22 -36 -2 -9 1 -12 7 -8 6 3 11 1 11 -5 0 -6 5
-8 13 -4 9 6 9 4 -1 -8 -8 -10 -9 -19 -3 -22 5 -3 11 0 14 6 3 9 12 5 31 -11
14 -14 24 -27 21 -30 -3 -2 -12 5 -21 17 -15 21 -34 22 -34 1 0 -6 4 -8 9 -4
6 3 15 -4 21 -15 8 -15 17 -19 32 -14 14 4 18 2 14 -5 -4 -6 -14 -11 -22 -11
-8 0 -14 -6 -15 -12 0 -7 -2 -21 -4 -31 -2 -9 1 -15 6 -11 5 3 7 9 4 14 -3 4
8 16 23 25 26 18 27 18 12 -1 -28 -35 -38 -61 -30 -73 5 -9 10 -10 14 -2 4 6
2 11 -4 11 -6 0 -8 5 -5 10 5 8 11 7 21 -1 12 -9 12 -15 2 -28 -12 -14 -11
-15 5 -2 12 9 14 18 8 24 -10 10 9 37 25 37 5 0 3 -5 -4 -12 -21 -21 -13 -32
10 -12 13 11 9 2 -11 -24 -18 -23 -38 -39 -43 -36 -7 5 -8 2 -4 -5 6 -9 12 -9
25 3 24 22 34 20 21 -4 -7 -14 -7 -20 0 -20 5 0 10 6 10 13 0 7 9 18 21 25 12
8 18 9 14 3 -3 -6 0 -11 7 -11 8 0 9 -3 3 -8 -5 -4 -11 -14 -11 -22 -1 -8 -5
-24 -9 -35 -5 -16 -4 -16 7 3 11 17 16 20 26 10 7 -7 12 -8 12 -2 0 6 -5 15
-12 22 -9 9 -9 12 1 12 7 0 9 5 5 13 -4 7 -3 8 2 4 5 -5 9 -16 9 -25 0 -9 6
-18 13 -18 37 -4 37 -4 23 -13 -8 -5 -21 -7 -30 -3 -9 3 -13 1 -8 -3 4 -5 0
-16 -9 -26 -12 -13 -12 -19 -3 -25 7 -4 10 -3 6 3 -7 10 42 38 51 29 3 -3 -4
-9 -14 -13 -10 -5 -20 -14 -22 -21 -3 -14 11 -9 39 15 14 12 18 11 30 -4 13
-16 12 -17 -3 -5 -9 8 -19 9 -22 4 -3 -6 1 -13 10 -16 8 -3 13 -10 9 -15 -3
-5 -1 -12 5 -16 5 -3 10 -1 10 4 0 6 4 11 8 11 12 0 11 -32 -1 -48 -12 -16 5
-16 22 1 11 9 13 9 7 0 -4 -8 -2 -13 6 -13 10 0 9 -3 -2 -9 -8 -6 -17 -8 -21
-5 -4 2 -11 -1 -15 -8 -4 -7 -3 -10 1 -6 5 5 16 -4 25 -20 13 -20 15 -31 6
-41 -8 -11 -8 -13 1 -8 13 8 38 -27 29 -41 -6 -10 42 -8 51 3 5 4 2 5 -6 0 -9
-5 -12 -4 -7 3 4 8 2 10 -8 6 -8 -3 -19 3 -26 15 -6 12 -8 21 -4 21 3 0 1 6
-5 13 -8 11 -6 18 8 31 14 13 21 14 27 5 4 -7 3 -10 -2 -7 -5 3 -15 0 -22 -8
-7 -8 -10 -15 -7 -15 20 -5 31 -3 38 6 5 6 6 2 3 -8 -5 -15 -2 -17 13 -12 11
3 23 0 27 -6 4 -8 3 -9 -4 -5 -7 4 -20 2 -29 -3 -10 -6 -13 -11 -8 -12 6 -1
15 -2 20 -4 6 -1 15 -3 22 -3 7 -1 10 -9 6 -19 -4 -10 -2 -14 4 -10 6 4 17 -1
24 -11 12 -15 12 -16 -1 -6 -8 6 -31 9 -50 7 -91 -9 -886 -8 -896 2 -5 5 -95
118 -199 250 -104 132 -194 245 -200 252 -5 6 -21 26 -35 44 -14 18 -59 76
-101 129 -80 101 -214 271 -264 334 -16 21 -59 76 -95 121 -36 45 -76 96 -90
114 -30 38 -235 298 -256 324 -8 9 -62 78 -120 152 l-106 134 -26 -17 c-15 -9
-31 -22 -35 -29 -4 -7 -12 -13 -18 -13 -5 0 -23 -13 -41 -30 -36 -35 -45 -37
-50 -12 -3 14 -5 13 -10 -6 -3 -12 -2 -20 3 -16 5 3 9 0 9 -5 0 -10 -14 -15
-33 -12 -5 1 -6 -3 -3 -8 9 -14 -19 -32 -40 -25 -11 3 -15 2 -9 -3 18 -15 41
-47 28 -39 -7 4 -13 3 -13 -2 0 -11 32 -39 36 -32 1 3 6 1 11 -4 5 -5 3 -6 -4
-2 -18 10 -16 -12 3 -31 8 -9 13 -22 10 -29 -6 -16 6 -18 20 -4 8 8 15 5 25
-7 12 -16 12 -17 -2 -6 -16 13 -29 8 -29 -9 0 -5 6 -6 13 -2 8 5 8 2 -2 -9
-14 -18 -26 -23 -16 -8 7 12 -35 42 -47 35 -15 -9 2 -23 20 -17 9 3 14 2 9 -2
-4 -5 1 -17 10 -28 17 -19 17 -20 0 -14 -11 4 -16 3 -12 -4 4 -5 16 -7 28 -3
18 5 20 4 10 -7 -7 -7 -13 -17 -13 -22 0 -4 12 5 27 20 18 20 24 22 20 9 -5
-13 -3 -17 7 -13 16 6 31 -22 19 -34 -5 -5 -15 -3 -23 2 -13 9 -12 10 3 5 9
-3 17 -1 17 4 0 6 -7 10 -15 10 -8 0 -18 0 -22 1 -20 2 -10 -19 14 -30 24 -11
29 -10 41 6 13 16 14 16 9 1 -4 -11 1 -23 13 -31 11 -8 18 -16 15 -19 -3 -3 1
-11 10 -18 9 -7 19 -9 23 -5 4 4 1 10 -5 12 -7 3 -13 10 -13 16 1 7 9 2 20
-11 10 -12 17 -31 15 -42 -2 -11 1 -20 7 -20 5 0 8 -7 4 -15 -6 -17 9 -21 17
-5 3 6 4 5 3 -2 -1 -7 3 -19 11 -26 14 -14 9 -32 -9 -32 -5 0 -7 7 -4 16 4 10
2 13 -6 8 -6 -4 -8 -3 -5 3 7 11 -22 28 -31 18 -3 -3 0 -5 7 -5 7 0 11 -6 8
-14 -3 -8 4 -21 18 -30 14 -9 22 -22 19 -30 -3 -8 -1 -17 5 -21 7 -4 8 1 4 12
-6 16 -5 16 10 4 14 -11 15 -16 5 -29 -9 -11 -9 -14 -1 -9 6 4 16 0 21 -8 5
-10 15 -13 25 -9 9 3 14 10 11 15 -3 5 2 6 10 3 10 -4 16 -1 16 7 1 9 4 8 11
-4 5 -9 7 -22 4 -27 -3 -5 -1 -18 5 -29 7 -14 7 -22 -2 -27 -7 -5 -8 -3 -3 6
6 9 4 11 -5 5 -9 -6 -11 -4 -6 4 5 7 0 18 -10 27 -12 8 -13 13 -5 12 7 -2 16
3 18 10 4 11 1 12 -15 3 -12 -6 -24 -16 -28 -23 -4 -7 -3 -8 4 -4 7 4 12 3 12
-3 0 -5 -6 -12 -12 -15 -7 -3 -2 -3 12 1 23 5 24 5 10 -12 -9 -11 -10 -16 -2
-11 6 4 12 3 12 -2 0 -14 49 -9 54 5 3 6 -2 14 -10 17 -8 3 -14 13 -13 23 0
14 2 15 6 3 3 -8 12 -19 20 -23 9 -6 10 -13 4 -26 -10 -18 3 -41 23 -41 6 0 5
5 -2 12 -7 7 -12 16 -12 21 0 5 8 1 17 -9 15 -14 15 -18 2 -28 -8 -6 -14 -20
-14 -31 1 -21 24 -67 25 -50 2 18 8 40 16 60 7 18 6 18 -9 6 -9 -7 -15 -17
-12 -21 3 -5 2 -11 -3 -14 -16 -10 -9 24 9 40 16 14 18 14 29 -6 7 -12 8 -20
2 -16 -5 3 -9 -6 -9 -19 0 -14 3 -25 8 -25 5 0 9 7 9 15 0 8 5 15 10 15 7 0 7
-6 0 -19 -6 -12 -6 -22 -1 -25 5 -4 11 -1 13 6 3 8 12 4 26 -10 12 -12 18 -22
13 -22 -6 0 -13 5 -16 10 -3 6 -10 10 -16 10 -5 0 -4 -9 3 -19 7 -11 16 -18
20 -15 4 3 5 -3 2 -13 -5 -16 -4 -16 10 1 9 11 16 15 16 10 0 -6 -5 -15 -12
-22 -8 -8 -8 -15 2 -27 7 -9 8 -15 2 -15 -6 0 -14 9 -17 20 -4 11 -11 18 -16
15 -5 -3 -6 1 -3 9 3 9 1 16 -6 16 -6 0 -8 5 -4 12 4 7 3 8 -5 4 -6 -4 -10 -3
-9 4 2 6 -6 18 -17 26 -18 12 -22 11 -32 -5 -9 -14 -8 -18 3 -18 7 0 11 4 8 9
-3 4 1 8 8 8 8 0 14 -9 15 -20 1 -13 -2 -18 -10 -13 -7 4 -5 -2 3 -13 22 -29
24 -30 17 -11 -5 13 -3 17 5 15 16 -6 17 -30 3 -41 -5 -5 1 -5 15 -1 14 3 22
3 18 -1 -5 -5 1 -15 12 -22 11 -8 18 -19 15 -24 -4 -5 -1 -9 5 -9 6 0 8 -5 4
-12 -4 -7 -3 -8 5 -4 6 4 8 12 5 18 -13 21 -13 75 0 75 8 0 11 -10 8 -25 -3
-17 -1 -23 7 -18 6 4 8 12 5 18 -4 7 -2 8 4 4 15 -9 15 -12 -4 -30 -8 -9 -12
-21 -9 -27 5 -6 11 -4 19 7 13 18 37 12 35 -9 0 -9 -2 -9 -6 1 -2 6 -9 12 -14
12 -6 0 -5 -9 2 -21 8 -15 8 -19 0 -15 -13 9 -14 -4 -1 -24 6 -9 5 -20 -3 -30
-11 -13 -10 -13 5 -1 10 7 15 17 12 22 -3 5 2 6 11 3 14 -6 14 -9 -4 -28 -12
-12 -21 -26 -21 -32 0 -5 5 -1 11 8 5 10 15 18 21 18 6 0 3 -11 -6 -25 -14
-21 -14 -24 -1 -19 13 5 20 24 16 47 0 4 3 7 9 7 12 0 8 -52 -5 -63 -5 -5 1
-5 15 -1 23 6 24 6 10 -11 -8 -11 -10 -16 -3 -12 6 4 13 2 15 -5 3 -7 7 -5 11
6 4 9 3 15 -1 12 -5 -3 -9 1 -9 9 0 21 10 19 25 -6 8 -12 9 -18 4 -15 -5 3
-12 -3 -15 -14 -3 -11 -1 -23 4 -26 5 -3 7 -10 4 -15 -3 -5 0 -6 8 -3 8 3 18
1 22 -5 3 -6 -1 -11 -9 -11 -8 0 -18 -4 -21 -10 -4 -7 3 -7 19 0 14 5 26 7 26
4 0 -4 8 0 17 7 10 8 14 9 10 2 -4 -6 -3 -14 2 -17 5 -3 12 1 15 9 7 19 -23
33 -34 15 -5 -8 -10 -9 -14 -2 -3 6 3 14 15 17 15 5 28 1 43 -15 11 -13 16
-20 10 -16 -7 3 -15 -1 -18 -10 -9 -24 -8 -26 14 -14 14 7 20 7 20 0 0 -5 -6
-10 -13 -10 -15 0 -42 -49 -32 -58 3 -3 5 -1 5 4 0 6 6 18 13 28 12 16 13 16
13 -3 0 -11 -4 -17 -8 -15 -4 3 -8 0 -8 -5 0 -22 34 -6 36 17 2 27 4 32 15 32
8 0 7 -6 -2 -16 -11 -14 -10 -19 10 -35 12 -10 19 -23 16 -29 -5 -8 -13 -6
-25 5 -35 32 -30 -4 6 -42 20 -21 33 -32 30 -25 -4 6 -4 12 1 12 4 0 13 -12
20 -26 10 -21 10 -25 -2 -20 -8 3 -17 1 -20 -5 -4 -5 -3 -8 2 -7 17 4 53 -14
47 -24 -4 -7 -2 -8 5 -4 9 6 8 14 -4 32 -8 13 -12 24 -7 24 15 0 31 -47 26
-74 -4 -24 3 -31 29 -27 15 2 6 -18 -10 -23 -15 -4 -15 -5 2 -4 39 1 43 -2 41
-27 -2 -13 0 -24 3 -23 19 2 24 -4 11 -13 -13 -8 -12 -9 4 -7 10 2 21 -3 24
-11 3 -9 0 -11 -8 -6 -8 5 -11 4 -6 -3 4 -6 14 -8 23 -5 10 4 14 2 10 -4 -4
-7 5 -10 25 -8 41 4 61 -4 50 -19 -16 -20 -10 -47 9 -41 9 3 24 -1 32 -9 8 -8
17 -13 20 -10 2 3 4 -3 4 -13 0 -35 3 -44 13 -38 5 3 7 13 4 23 -5 14 -4 14 4
3 12 -16 -16 -63 -32 -54 -4 3 -2 9 5 14 11 7 11 9 1 9 -7 0 -10 5 -6 12 4 6
3 8 -4 4 -5 -3 -13 0 -15 6 -4 10 -6 10 -6 0 -1 -10 -6 -10 -23 -1 -13 6 -5
-4 16 -22 36 -31 73 -48 61 -29 -3 4 3 14 12 21 14 12 16 12 8 0 -6 -11 -4
-13 11 -8 17 6 17 6 3 -5 -9 -7 -15 -21 -13 -31 1 -9 -2 -15 -7 -11 -5 3 -7
10 -4 15 3 5 -1 6 -9 3 -15 -6 -18 -44 -3 -44 5 0 6 7 3 16 -5 14 -4 15 9 4
12 -10 16 -8 26 13 l12 26 17 -22 c11 -12 15 -26 10 -32 -5 -5 -8 -14 -8 -18
0 -17 -9 -17 -23 0 -8 9 -9 14 -2 10 6 -4 14 -3 17 2 3 5 0 11 -8 14 -8 3 -17
-2 -21 -11 -3 -9 -1 -18 4 -20 6 -2 8 -9 5 -14 -4 -7 -2 -8 4 -4 13 8 35 -28
24 -39 -4 -5 -1 -5 6 -1 15 9 15 1 1 -27 -9 -19 -8 -19 11 3 l21 25 -6 -25
c-5 -19 -4 -22 4 -10 10 14 16 7 12 -14 -1 -4 2 -13 7 -20 5 -6 8 -19 7 -29
-3 -15 -1 -16 11 -6 7 6 12 14 10 18 -2 3 2 15 9 25 13 17 14 17 11 -7 -1 -14
-8 -32 -15 -41 -10 -12 -9 -14 3 -12 9 1 19 5 22 9 4 4 16 7 26 7 11 0 17 4
13 10 -3 5 -12 7 -19 4 -16 -6 -31 12 -17 21 6 3 8 13 5 23 -5 14 -4 14 4 2 8
-10 7 -19 -1 -29 -10 -12 -9 -14 4 -9 9 4 25 1 35 -6 21 -14 92 -15 113 -1 9
5 12 4 8 -2 -7 -11 81 -12 98 -1 6 4 17 3 25 -3 11 -6 11 -9 3 -10 -7 -1 -17
-2 -23 -3 -20 -2 -14 -19 7 -21 12 -1 20 2 17 7 -3 4 2 8 11 8 9 0 14 4 11 8
-3 5 8 8 25 7 16 -1 32 2 35 7 3 4 13 4 22 0 20 -10 92 -10 107 0 6 4 16 3 23
-1 8 -4 5 -11 -9 -20 -16 -9 -19 -9 -14 0 5 8 4 10 -4 5 -16 -11 -3 -26 16
-19 10 4 14 2 10 -4 -3 -5 0 -10 8 -10 11 0 12 4 4 14 -9 10 -8 13 5 13 10 0
15 4 12 8 -3 5 8 8 25 7 16 -1 32 2 35 7 3 4 13 4 23 -2 12 -6 22 -5 29 2 8 8
12 8 12 1 0 -6 13 -9 29 -8 28 2 29 1 18 -22 -8 -18 -7 -27 2 -36 10 -9 11 -8
5 6 -4 11 0 25 10 36 9 10 13 21 9 26 -5 4 1 3 12 -2 23 -12 95 -11 114 2 9 5
12 4 8 -2 -7 -11 81 -12 98 -1 6 4 16 3 23 -1 8 -4 5 -11 -9 -20 -16 -9 -19
-9 -14 0 5 8 4 10 -4 5 -16 -11 -3 -26 16 -19 10 4 14 2 10 -4 -3 -5 0 -10 8
-10 11 0 12 4 4 14 -9 10 -8 13 5 13 10 0 15 4 12 8 -3 5 8 8 25 7 16 -1 32 2
35 7 3 4 13 4 23 -2 12 -6 22 -5 29 2 8 8 12 8 12 1 0 -6 13 -9 29 -8 28 2 29
1 18 -22 -7 -17 -7 -27 1 -35 8 -8 9 -6 6 9 -3 12 -1 24 5 27 12 8 33 -28 23
-39 -4 -5 -1 -5 5 -1 10 6 9 14 -3 38 -9 16 -11 27 -6 24 6 -4 13 -2 17 4 4 6
11 8 16 4 14 -8 0 -26 -14 -18 -9 5 -9 4 -1 -5 12 -13 47 -4 39 10 -3 4 3 6
15 4 11 -2 22 1 25 6 4 5 12 6 18 2 19 -12 297 -10 297 2 0 6 4 4 8 -3 6 -9
16 -10 33 -4 13 5 41 8 62 6 28 -3 36 0 31 9 -7 11 -130 170 -160 206 -8 9
-72 90 -144 181 -72 91 -144 181 -159 200 -16 19 -113 141 -216 270 -102 129
-194 244 -203 255 -10 11 -31 38 -47 60 -17 22 -45 56 -62 75 -18 19 -33 38
-33 43 0 4 -8 15 -17 26 -10 10 -30 33 -45 52 -15 19 -131 165 -258 324 -127
160 -241 303 -253 319 -12 15 -34 42 -48 60 -29 35 -39 48 -106 132 -44 56
-59 75 -122 154 -87 109 -322 404 -346 435 -16 21 -70 88 -119 149 -48 61
-102 129 -120 150 -17 22 -53 66 -79 98 l-48 59 -32 -26 c-18 -14 -38 -30 -45
-36 -7 -5 -17 -7 -24 -3 -6 4 -8 3 -5 -3 7 -12 -16 -36 -26 -27 -3 3 -14 1
-24 -6 -16 -10 -16 -11 0 -6 9 3 17 2 17 -2 0 -10 -59 -47 -71 -44 -6 1 -8 -2
-5 -6 3 -5 -4 -18 -16 -28 -12 -11 -18 -14 -15 -7 4 6 2 15 -5 19 -7 4 -10 4
-6 -1 10 -11 -11 -47 -23 -40 -5 4 -8 2 -7 -3 2 -6 0 -11 -4 -11 -4 -1 -27
-20 -50 -44 -46 -45 -98 -83 -110 -79 -5 1 -8 -5 -8 -13 0 -8 -7 -15 -16 -15
-8 0 -13 -4 -9 -9 5 -9 -32 -27 -48 -23 -5 1 -6 -2 -3 -7 8 -12 -120 -124
-133 -116 -7 3 -8 0 -5 -10 7 -17 -15 -17 -29 0 -4 6 -6 -1 -5 -15 2 -18 -2
-25 -14 -24 -10 1 -16 -2 -13 -6 2 -4 -9 -19 -25 -34 -17 -14 -30 -24 -30 -21
0 3 -20 -14 -44 -38 -78 -75 -128 -115 -111 -87 3 6 4 10 0 10 -3 0 -10 -12
-15 -26 -9 -22 -13 -24 -25 -14 -13 11 -14 10 -9 -4 7 -18 -24 -49 -39 -39 -4
2 -6 -1 -5 -8 2 -6 -3 -14 -11 -17 -9 -3 -11 0 -6 8 5 8 4 11 -3 6 -6 -4 -9
-13 -5 -21 3 -8 0 -15 -6 -15 -6 0 -25 -16 -42 -35 -17 -19 -36 -33 -42 -32
-7 1 -10 -5 -9 -13 2 -8 1 -12 -3 -8 -4 4 -20 -7 -35 -24 -22 -23 -33 -29 -51
-23 -18 5 -20 4 -10 -4 12 -8 13 -12 1 -26 -7 -9 -19 -14 -27 -11 -9 4 -11 1
-7 -6 5 -8 2 -9 -11 -4 -16 6 -16 4 -4 -11 12 -15 12 -16 -3 -10 -10 3 -17 3
-15 -2 3 -12 -105 -110 -121 -111 -8 0 -10 -5 -6 -12 5 -8 2 -9 -9 -5 -10 4
-16 2 -14 -6 1 -7 -5 -11 -14 -11 -9 1 -16 -6 -15 -15 0 -9 -5 -15 -12 -13 -8
1 -11 -2 -8 -7 3 -5 -2 -15 -11 -22 -14 -12 -16 -12 -8 0 5 10 4 12 -3 7 -7
-4 -12 -11 -12 -16 0 -8 -24 -34 -95 -100 -21 -19 -35 -30 -31 -23 3 6 1 15
-5 19 -8 4 -9 3 -5 -5 4 -6 -14 -33 -44 -64 -29 -28 -50 -47 -47 -42 3 6 1 17
-5 25 -8 12 -9 12 -5 -2 9 -27 -31 -70 -57 -62 -21 6 -21 6 -1 -10 11 -8 15
-16 9 -16 -6 0 -23 -12 -38 -26 -23 -23 -28 -25 -43 -13 -16 13 -17 12 -4 -4
8 -9 11 -21 7 -24 -4 -4 -12 -1 -17 7 -8 11 -9 9 -4 -9 4 -13 3 -21 -1 -19 -5
3 -17 -3 -26 -14 -10 -10 -15 -18 -10 -18 4 0 -1 -5 -11 -11 -9 -5 -21 -8 -26
-5 -5 3 -8 -2 -7 -12 1 -12 -6 -17 -27 -17 -24 1 -26 -1 -13 -11 19 -13 11
-24 -18 -25 -12 0 -16 -3 -9 -5 12 -5 -42 -64 -59 -64 -5 0 -6 -5 -3 -10 3 -6
2 -10 -4 -10 -6 0 -28 -18 -51 -41 -36 -37 -45 -40 -41 -16 1 5 -3 6 -8 2 -6
-3 -8 -12 -5 -20 9 -24 -5 -38 -24 -23 -12 10 -14 10 -8 1 4 -8 2 -13 -6 -13
-10 0 -9 -3 2 -11 12 -9 10 -10 -8 -6 -18 4 -21 3 -12 -7 7 -10 6 -17 -5 -26
-8 -7 -15 -9 -15 -6 0 4 -10 -5 -23 -19 -19 -23 -25 -25 -50 -16 -18 7 -26 7
-22 1 3 -6 13 -10 21 -10 8 0 14 -4 14 -9 0 -15 -29 -33 -41 -25 -8 4 -9 3 -5
-5 4 -6 2 -18 -4 -26 -13 -16 -35 -21 -26 -7 3 5 -1 9 -9 9 -18 0 -20 -14 -4
-19 7 -2 -4 -21 -23 -42 -20 -22 -41 -36 -47 -32 -7 5 -9 1 -5 -8 4 -10 0 -16
-10 -17 -29 -3 -34 -4 -42 -11 -3 -4 3 -5 15 -3 12 2 19 0 16 -6 -4 -5 -13 -9
-21 -9 -9 0 -12 -5 -8 -12 4 -7 3 -8 -4 -4 -7 4 -12 3 -12 -3 0 -5 -10 -21
-23 -35 -22 -24 -25 -24 -46 -9 l-23 16 17 -27 c15 -23 16 -26 2 -32 -9 -3
-21 -3 -27 1 -6 4 -10 3 -9 -2 4 -25 -3 -43 -18 -43 -9 0 -14 -3 -10 -6 6 -7
-92 -104 -106 -104 -4 0 -6 -4 -2 -9 3 -5 1 -12 -5 -16 -5 -3 -10 0 -11 7 -1
7 -4 2 -8 -12 -5 -18 -14 -25 -31 -25 -18 0 -24 -5 -22 -17 1 -9 -7 -23 -18
-31 -11 -7 -17 -16 -14 -19 8 -9 -47 -48 -59 -41 -5 3 -7 2 -4 -4 4 -5 -3 -20
-14 -32 -17 -19 -23 -20 -37 -9 -14 12 -14 10 -3 -10 10 -18 9 -23 -4 -28 -8
-4 -23 0 -33 7 -14 11 -15 11 -4 -1 18 -21 15 -35 -13 -50 -13 -7 -23 -18 -22
-24 1 -6 -2 -11 -8 -10 -5 0 -20 -10 -32 -23 -12 -12 -20 -23 -16 -23 3 0 -4
-9 -17 -20 -18 -15 -26 -17 -37 -9 -10 9 -12 9 -8 -2 3 -10 -3 -14 -20 -15
-15 -1 -22 2 -18 9 4 6 1 7 -7 2 -21 -13 -120 -13 -120 -1 0 7 -3 8 -8 1 -10
-14 -65 -15 -74 -1 -4 6 -8 7 -8 1 0 -14 -70 -15 -70 -1 0 7 -3 7 -8 1 -10
-15 -72 -16 -72 -2 0 8 -3 8 -8 2 -4 -6 -107 -10 -274 -10 -253 0 -266 1 -251
18 18 19 28 23 17 5 -5 -7 -3 -8 5 -4 7 5 10 11 6 14 -8 8 56 72 73 72 7 0 10
5 7 11 -4 6 2 13 14 16 11 3 18 10 14 16 -4 6 0 8 10 4 9 -3 19 -1 23 5 4 7 3
8 -4 4 -7 -4 -12 -3 -12 1 0 10 42 38 53 35 4 -1 6 1 5 5 -4 14 72 84 84 77 6
-4 8 -3 4 4 -8 14 45 64 61 58 8 -3 10 1 6 12 -6 15 -5 16 12 2 15 -12 17 -12
10 -1 -6 10 7 28 46 62 30 27 60 49 67 49 7 0 10 5 7 10 -3 6 -3 10 2 10 4 0
28 18 52 40 24 21 49 36 54 33 6 -4 7 -1 3 6 -5 8 0 14 13 18 11 3 18 9 15 14
-3 5 -1 9 4 9 5 0 25 16 45 35 21 20 37 32 37 28 0 -4 7 3 16 15 8 12 22 22
30 22 8 0 12 5 9 10 -6 9 8 14 28 11 4 0 6 5 5 11 -2 7 4 11 12 10 8 -2 12 0
7 4 -9 9 31 54 49 54 6 0 15 7 18 16 4 9 13 14 22 10 9 -3 12 -2 8 5 -6 11 35
46 49 41 5 -1 6 2 3 7 -3 5 1 14 9 21 8 7 15 9 15 4 0 -5 7 2 16 14 8 12 21
19 27 16 7 -4 9 -4 5 1 -8 9 15 35 32 35 6 0 8 5 5 10 -6 9 8 14 28 11 5 -1 6
3 3 7 -8 13 26 42 54 47 12 2 25 7 29 11 3 4 -2 4 -11 1 -10 -4 -18 -2 -18 3
0 6 5 10 10 10 5 0 18 8 28 18 45 42 74 62 82 57 6 -3 7 1 4 10 -4 10 -2 15 7
13 8 -2 13 3 12 9 -2 7 8 15 22 19 14 3 22 11 18 17 -4 6 0 8 11 4 9 -4 15 -3
12 2 -6 10 38 54 46 45 4 -3 9 4 13 15 3 12 10 21 14 21 4 0 21 14 38 30 21
21 33 27 36 18 4 -9 6 -7 6 4 1 18 77 85 92 80 5 -1 8 2 7 7 -4 14 75 81 95
81 10 0 16 4 12 10 -3 5 7 17 22 27 15 10 36 27 45 38 10 11 17 17 18 14 0 -4
16 8 37 27 20 18 40 31 45 28 4 -3 8 2 8 10 0 9 4 16 10 16 5 0 19 9 30 20 12
12 26 18 32 14 6 -4 8 -3 5 3 -4 6 5 19 19 28 15 9 38 28 53 40 14 13 37 33
51 44 14 11 31 25 37 31 7 6 13 8 13 5 0 -3 9 4 20 15 12 12 26 18 32 14 7 -4
8 -3 4 4 -7 11 26 35 38 27 3 -3 4 -2 1 1 -6 9 57 64 66 58 4 -2 10 3 13 12 3
9 13 14 21 11 9 -4 12 -1 8 9 -6 16 13 20 20 4 3 -6 4 -5 3 2 -3 13 17 38 31
40 4 0 14 9 21 20 7 10 18 16 23 13 5 -4 9 -1 9 4 0 6 5 11 11 11 5 0 7 -5 3
-12 -4 -7 -3 -8 4 -4 6 4 9 12 6 19 -2 7 15 24 38 39 24 15 55 38 69 52 15 14
30 22 33 19 3 -4 6 -1 6 6 0 7 4 10 9 7 5 -3 12 1 15 10 3 9 13 14 21 11 10
-4 12 -1 8 11 -3 9 -3 14 1 11 3 -3 23 9 43 28 21 18 43 31 49 29 7 -3 14 5
17 16 3 11 10 17 15 14 6 -3 13 1 16 10 4 9 13 14 21 10 8 -3 14 0 12 7 -1 7
6 11 15 11 10 -1 14 4 11 13 -3 7 -1 13 3 11 5 -2 20 7 34 20 13 12 30 20 38
17 7 -2 11 -1 8 4 -3 5 6 17 20 27 14 11 35 27 47 37 11 10 27 15 34 12 8 -2
11 0 8 5 -3 6 2 13 12 17 10 3 30 19 45 35 26 27 56 39 42 16 -4 -7 -3 -8 4
-4 6 4 8 14 5 23 -4 11 -3 14 5 9 7 -4 15 -1 18 8 3 9 12 16 20 16 8 0 14 5
14 10 0 6 5 10 11 10 5 0 7 -5 3 -12 -4 -7 -3 -8 5 -4 6 4 9 10 7 14 -2 4 2
13 10 20 8 7 14 11 14 8 0 -3 12 6 27 20 15 14 33 22 40 19 8 -2 11 -1 8 5 -3
5 7 17 22 27 15 10 31 22 35 28 4 5 8 6 8 2 0 -5 7 -1 16 7 8 9 20 14 25 10 5
-3 8 0 7 8 -2 7 5 12 14 12 10 -1 16 1 15 5 -1 3 1 6 4 6 3 0 17 13 32 29 15
16 27 26 27 22 0 -4 7 0 16 8 8 9 20 14 25 11 5 -4 9 0 9 8 0 15 68 63 83 59
4 -1 7 2 7 6 0 5 14 19 31 31 18 13 29 17 25 10 -4 -8 1 -3 12 10 11 14 24 21
31 17 6 -4 11 -4 10 1 -4 22 3 25 17 7 8 -10 13 -14 10 -7 -9 18 5 45 21 39 8
-3 12 -2 9 3 -8 13 20 33 48 35 17 1 21 4 15 12 -6 8 2 17 26 28 19 9 35 22
35 28 0 7 7 3 15 -8 14 -18 14 -18 8 4 -3 13 -1 22 6 22 7 0 9 -5 5 -12 -4 -7
-3 -8 4 -4 7 4 12 13 12 19 0 7 9 18 21 25 12 8 18 9 15 3 -4 -5 -1 -13 5 -17
8 -4 9 -3 5 4 -4 7 -2 12 4 12 6 0 9 4 5 9 -11 19 17 23 31 5 14 -18 14 -18 5
3 -7 14 -8 24 -1 28 5 3 10 0 10 -7 1 -7 7 -2 15 12 8 14 14 21 15 15 0 -5 7
1 16 13 8 12 20 22 25 22 12 0 100 59 111 75 4 6 8 6 8 2 0 -4 10 1 22 13 12
11 26 20 31 20 4 0 15 6 22 13 34 30 43 35 49 30 3 -4 6 -1 6 6 0 8 6 11 16 7
10 -4 13 -2 8 6 -5 7 -2 9 9 5 12 -4 14 -2 10 10 -4 10 -2 14 4 10 6 -4 14 0
17 9 3 8 10 12 16 9 5 -3 10 -1 10 5 0 6 4 8 10 5 5 -3 10 1 10 9 0 19 20 17
38 -4 11 -13 11 -11 2 8 -13 27 -4 45 10 22 9 -15 11 -14 14 13 1 6 7 11 14
10 7 -2 12 2 12 8 0 6 7 8 16 5 8 -3 13 -2 10 3 -9 13 21 34 36 25 7 -4 10 -4
6 1 -12 12 28 36 49 29 14 -4 15 -4 4 4 -11 8 -9 12 10 23 13 6 30 19 38 26
11 12 15 12 22 1 7 -10 9 -8 9 5 0 11 9 21 20 24 11 3 20 9 20 14 0 5 5 9 11
9 6 0 17 7 26 15 14 14 17 14 29 -2 13 -17 14 -17 8 0 -10 29 64 85 79 60 2
-5 2 -2 1 5 -2 7 8 18 21 24 14 6 25 14 25 18 0 4 14 13 30 20 17 7 30 18 30
24 0 6 8 2 16 -9 16 -20 16 -20 10 1 -5 18 1 25 34 43 23 12 46 19 51 15 5 -3
8 0 7 6 -2 7 6 17 17 23 11 7 22 15 25 18 3 3 13 5 23 3 12 -1 17 2 13 11 -2
7 2 16 10 19 10 4 13 1 9 -7 -4 -6 1 -3 10 8 9 11 21 19 26 18 5 -2 9 2 9 9 0
6 3 9 6 6 3 -4 15 3 26 14 11 11 26 17 34 14 10 -4 12 -2 8 6 -5 8 -2 9 9 5 9
-3 19 -1 23 5 4 7 3 8 -4 4 -7 -4 -12 -4 -12 1 0 6 42 30 92 51 5 2 5 -5 2
-15 -5 -14 -4 -15 4 -3 6 8 9 17 6 21 -8 14 18 21 28 8 7 -11 8 -9 6 6 -2 15
2 20 19 19 15 -1 20 3 15 14 -3 10 -1 13 6 8 7 -4 12 -2 12 3 0 6 7 11 15 11
8 0 15 6 15 13 0 9 3 8 9 -2 7 -11 10 -9 16 8 3 11 11 21 16 21 6 0 8 -4 5 -8
-3 -5 1 -9 8 -9 7 0 13 7 12 16 -1 9 6 15 16 15 10 -1 15 2 12 7 -6 10 36 29
49 22 4 -2 7 3 7 12 0 9 5 13 10 10 6 -3 10 -1 10 5 0 7 7 9 16 6 8 -3 12 -2
9 3 -3 5 -1 12 5 16 5 3 10 2 10 -3 0 -5 7 -9 15 -9 11 0 12 4 4 13 -8 10 0
18 33 35 24 13 49 22 57 20 7 -1 10 2 6 8 -3 6 0 11 8 11 8 0 18 7 21 16 5 14
9 14 23 3 9 -8 14 -9 10 -3 -8 14 15 35 42 37 11 0 19 4 19 7 -2 18 4 23 12
10 8 -13 10 -13 10 1 0 18 26 33 41 24 5 -4 6 2 2 12 -5 15 -3 16 8 6 7 -7 18
-13 24 -13 5 0 4 4 -3 9 -11 6 -6 14 17 30 17 12 31 19 31 14 0 -4 4 -3 8 3 8
13 204 130 210 126 2 -2 12 6 21 17 10 11 21 17 25 13 4 -4 12 1 17 11 6 9 15
17 21 17 6 0 5 -7 -3 -17 -13 -16 -12 -17 3 -5 10 8 16 19 15 24 -1 6 4 13 11
15 8 3 10 -2 6 -14 -3 -10 1 -7 10 7 8 14 27 32 43 40 15 8 30 17 33 20 3 3
16 11 29 18 20 12 25 12 32 0 7 -10 9 -9 9 4 0 10 9 22 19 28 26 13 34 13 25
-2 -4 -7 -3 -8 5 -4 6 4 9 11 6 16 -7 11 32 33 45 25 6 -3 10 1 10 9 0 9 3 15
8 14 4 -1 17 3 28 10 12 6 25 8 29 4 3 -4 5 0 3 8 -1 8 3 14 10 12 6 -1 12 2
12 7 0 5 16 15 35 22 19 7 35 17 35 21 0 4 9 8 20 8 11 0 20 4 20 10 0 12 75
51 84 43 3 -4 6 1 6 10 0 9 3 17 8 18 4 1 19 2 35 3 15 2 31 7 35 11 4 5 -1 5
-10 2 -10 -4 -18 -3 -18 1 0 11 150 83 160 77 5 -3 12 0 16 6 5 8 3 9 -6 4 -9
-5 -11 -4 -6 4 6 9 11 9 22 0 12 -10 13 -9 8 4 -4 12 -1 15 15 12 14 -3 18 0
14 11 -3 8 -2 14 3 12 5 -1 19 4 32 11 13 7 30 10 38 7 9 -4 18 4 24 20 9 23
12 24 27 13 9 -8 14 -9 10 -3 -8 14 11 31 33 30 8 -1 15 -6 15 -13 0 -6 3 -14
7 -18 3 -4 5 0 4 9 -1 8 -5 19 -9 22 -15 15 -6 25 16 18 12 -3 19 -3 15 1 -5
5 16 20 45 35 28 15 67 36 86 48 19 11 38 19 43 16 4 -3 8 0 8 6 0 6 5 8 10 5
6 -3 10 -1 10 5 0 6 5 8 10 5 6 -3 10 -1 10 4 0 6 9 11 20 11 11 0 20 4 20 9
0 9 78 51 94 51 4 0 4 -6 0 -12 -4 -8 -3 -10 2 -5 5 5 9 13 9 18 0 5 10 15 21
22 78 44 86 48 79 35 -3 -7 0 -5 8 4 8 10 17 15 20 11 4 -3 7 -1 7 6 0 7 5 9
10 6 6 -3 10 -1 10 6 0 6 8 9 20 6 13 -3 18 -1 13 6 -4 6 0 8 10 4 11 -4 14
-2 10 9 -3 10 0 12 10 9 8 -4 17 1 21 11 5 13 9 14 21 4 9 -7 18 -10 22 -6 3
3 1 6 -5 6 -7 0 -12 5 -12 11 0 5 5 7 10 4 6 -3 10 -1 10 4 0 6 9 11 19 11 11
0 21 3 23 8 5 11 82 46 97 43 7 -1 10 2 7 7 -3 5 6 14 20 21 20 9 24 9 18 -1
-4 -7 3 -3 15 10 22 22 24 22 36 5 13 -17 14 -16 8 5 -4 18 -2 21 12 15 12 -4
16 -3 12 4 -9 14 48 37 64 27 7 -4 10 -3 5 4 -8 13 23 31 43 24 8 -2 11 0 8 5
-8 13 38 37 57 30 9 -4 15 -3 13 1 -1 4 2 8 7 9 5 1 12 5 15 10 3 5 32 23 63
41 45 25 56 28 52 14 -4 -12 0 -10 13 6 15 18 21 20 31 10 11 -11 12 -9 6 6
-5 14 -4 17 4 12 7 -4 15 -1 18 8 3 9 10 13 15 10 5 -3 9 -1 9 5 0 6 7 7 17 4
11 -4 14 -3 9 6 -5 8 -3 11 5 9 8 -1 31 8 52 21 21 13 48 24 61 25 13 0 22 4
19 9 -8 14 29 20 39 6 8 -11 9 -10 4 3 -4 13 9 23 57 45 34 15 68 26 75 25 8
-2 11 1 7 7 -6 11 7 15 34 12 7 -2 11 2 8 6 -3 5 3 15 15 22 16 10 19 10 12
-1 -9 -15 25 9 38 27 8 10 13 -9 8 -30 -1 -5 2 -6 7 -2 4 5 9 13 9 18 1 5 2
13 3 18 1 9 49 26 64 23 4 -1 7 2 7 6 0 13 50 33 62 26 6 -4 8 -2 5 3 -8 13
50 36 66 26 5 -3 7 -2 4 4 -3 5 33 27 80 49 108 49 107 49 99 36 -3 -6 -2 -13
3 -17 6 -3 8 3 6 14 -3 14 4 22 25 29 16 6 31 8 34 5 3 -4 6 -1 6 6 0 8 6 11
16 7 8 -3 12 -2 9 3 -7 12 31 24 46 15 7 -4 9 -3 6 3 -4 6 7 16 23 23 17 7 33
17 36 21 7 12 4 11 -29 -7z m-2517 -1274 c0 -5 -2 -10 -4 -10 -3 0 -8 5 -11
10 -3 6 -1 10 4 10 6 0 11 -4 11 -10z m-6716 -399 c-6 -6 -34 20 -34 32 0 6 8
2 19 -9 10 -10 17 -21 15 -23z m1362 -63 c-1 -7 -6 -19 -10 -27 -7 -11 -5 -13
8 -8 10 4 15 3 11 -3 -3 -6 -3 -10 2 -10 4 -1 19 -11 33 -23 14 -12 23 -21 21
-20 -2 1 -12 -2 -21 -7 -14 -7 -22 -4 -34 15 -10 15 -23 23 -36 20 -17 -3 -19
-1 -10 15 6 10 14 22 20 25 5 3 7 12 3 20 -3 8 -1 15 5 15 6 0 9 -6 8 -12z
m-1183 -168 c-2 -3 -9 3 -14 12 -5 9 -16 24 -24 32 -8 8 -15 18 -15 23 0 4 14
-8 29 -27 16 -19 27 -37 24 -40z m160 -205 c-3 -9 -8 -14 -10 -11 -3 3 -2 9 2
15 9 16 15 13 8 -4z m1325 -10 c-3 -3 -9 2 -12 12 -6 14 -5 15 5 6 7 -7 10
-15 7 -18z m-38 -15 c0 -5 -2 -10 -4 -10 -3 0 -8 5 -11 10 -3 6 -1 10 4 10 6
0 11 -4 11 -10z m85 -30 c4 -6 1 -9 -6 -8 -6 2 -14 -3 -16 -10 -3 -6 1 -10 9
-9 7 2 10 2 5 0 -4 -3 -5 -8 -2 -13 3 -4 -2 -10 -10 -13 -10 -4 -12 -1 -8 10
4 11 3 14 -6 9 -17 -11 -9 16 9 31 19 15 18 15 25 3z m145 -190 c6 -11 8 -20
6 -20 -3 0 -10 9 -16 20 -6 11 -8 20 -6 20 3 0 10 -9 16 -20z m-1270 -50 c8
-5 11 -10 5 -10 -5 0 -17 5 -25 10 -8 5 -10 10 -5 10 6 0 17 -5 25 -10z m1320
-6 c0 -2 -7 -4 -15 -4 -8 0 -15 4 -15 10 0 5 7 7 15 4 8 -4 15 -8 15 -10z m45
-62 c-3 -3 -11 0 -18 7 -9 10 -8 11 6 5 10 -3 15 -9 12 -12z m30 -42 c3 -5 1
-10 -4 -10 -6 0 -11 5 -11 10 0 6 2 10 4 10 3 0 8 -4 11 -10z m-1301 -32 c-5
-7 -2 -9 7 -6 10 4 15 -1 16 -12 2 -17 0 -18 -18 -2 -21 18 -25 32 -8 32 5 0
7 -5 3 -12z m1329 -40 c3 -10 7 -10 20 1 10 7 17 9 17 5 0 -5 -9 -15 -20 -22
-12 -7 -18 -18 -14 -24 4 -7 3 -8 -4 -4 -6 4 -9 13 -5 22 3 8 2 14 -3 13 -18
-3 -25 1 -19 11 9 14 22 13 28 -2z m-1269 -40 c-5 -7 -2 -9 8 -6 9 4 15 0 15
-8 0 -8 -6 -13 -13 -10 -8 3 -16 1 -19 -4 -6 -9 8 -14 28 -11 4 0 7 -4 7 -10
0 -5 5 -7 10 -4 6 3 10 1 10 -5 0 -7 -6 -10 -13 -7 -8 3 -14 -1 -14 -8 0 -7
10 -12 23 -12 17 0 21 4 18 20 -2 11 0 17 3 13 11 -11 12 -35 2 -42 -23 -14
-50 -12 -59 5 -5 10 -6 22 -2 25 4 4 -1 12 -11 17 -9 6 -15 14 -12 20 4 5 1 9
-6 9 -7 0 -4 7 7 15 23 18 27 18 18 3z m126 -124 c0 -2 -7 -4 -15 -4 -8 0 -15
4 -15 10 0 5 7 7 15 4 8 -4 15 -8 15 -10z m1309 -20 c-10 -13 -10 -17 2 -26
12 -8 11 -9 -2 -5 -9 3 -22 0 -28 -6 -8 -8 -11 -8 -11 1 0 7 5 12 12 12 6 0 8
3 5 7 -4 3 1 12 11 19 23 18 27 17 11 -2z m29 -29 c-3 -3 -9 2 -12 12 -6 14
-5 15 5 6 7 -7 10 -15 7 -18z m-1303 -5 c3 -5 1 -10 -4 -10 -6 0 -11 5 -11 10
0 6 2 10 4 10 3 0 8 -4 11 -10z m1315 -25 c-7 -9 -9 -19 -5 -23 4 -4 10 -1 12
6 3 6 9 12 14 12 6 0 3 -10 -5 -22 -11 -15 -12 -25 -5 -34 7 -8 7 -14 -1 -19
-5 -3 -10 0 -10 8 0 8 -6 20 -14 27 -12 9 -13 17 -4 36 6 13 16 24 21 24 5 0
4 -7 -3 -15z m99 -132 c-12 -15 -12 -16 4 -10 25 9 41 -1 28 -17 -10 -11 0
-39 13 -37 19 3 27 -1 46 -21 31 -33 24 -40 -9 -8 -19 20 -36 28 -54 26 -15
-2 -24 0 -22 4 3 4 -4 15 -15 25 -18 16 -18 18 -2 40 9 13 19 21 21 19 2 -2
-2 -11 -10 -21z m-1289 3 c0 -3 -4 -8 -10 -11 -5 -3 -10 -1 -10 4 0 6 5 11 10
11 6 0 10 -2 10 -4z m1355 -46 c3 -6 -1 -7 -9 -4 -18 7 -21 14 -7 14 6 0 13
-4 16 -10z m-1313 -23 c3 4 3 2 2 -4 -2 -7 1 -13 6 -13 6 0 10 -5 10 -12 0 -6
-7 -4 -18 5 -19 18 -37 23 -28 9 3 -5 -1 -9 -8 -9 -11 0 -12 4 -3 18 8 13 15
15 23 8 7 -5 14 -6 16 -2z m1338 -59 c0 -5 -4 -7 -9 -3 -5 3 -12 1 -16 -5 -4
-6 -11 -8 -16 -5 -16 11 -10 20 16 21 14 1 25 -2 25 -8z m60 -98 c0 -5 -2 -10
-4 -10 -3 0 -8 5 -11 10 -3 6 -1 10 4 10 6 0 11 -4 11 -10z m140 -100 c0 -5
-2 -10 -4 -10 -3 0 -8 5 -11 10 -3 6 -1 10 4 10 6 0 11 -4 11 -10z m21 -37
c13 -16 12 -17 -3 -4 -10 7 -18 15 -18 17 0 8 8 3 21 -13z m-1287 -39 c3 -8 2
-12 -4 -9 -6 3 -10 10 -10 16 0 14 7 11 14 -7z m2026 -883 c0 -5 -7 -12 -16
-15 -14 -5 -15 -4 -4 9 14 17 20 19 20 6z m20 -111 c0 -5 -2 -10 -4 -10 -3 0
-8 5 -11 10 -3 6 -1 10 4 10 6 0 11 -4 11 -10z m80 -14 c0 -3 -4 -8 -10 -11
-5 -3 -10 -1 -10 4 0 6 5 11 10 11 6 0 10 -2 10 -4z m64 -120 c9 3 16 1 16 -6
0 -6 -4 -8 -10 -5 -5 3 -10 1 -10 -4 0 -6 4 -11 9 -11 14 0 23 -32 12 -43 -15
-15 -34 2 -21 18 8 10 5 18 -15 33 -14 11 -25 23 -25 27 0 4 6 2 14 -4 7 -6
21 -9 30 -5z m81 -65 c-6 -5 -25 10 -25 20 0 5 6 4 14 -3 8 -7 12 -15 11 -17z
m80 -111 c-9 -15 14 -41 29 -33 6 3 6 0 -1 -8 -18 -19 -16 -34 2 -19 9 7 17
11 20 9 2 -3 -4 -10 -15 -16 -14 -10 -21 -9 -30 2 -10 12 -10 15 0 15 9 0 8 6
-4 19 -16 17 -15 41 0 41 3 0 2 -5 -1 -10z m95 -104 c0 -3 -4 -8 -10 -11 -5
-3 -10 -1 -10 4 0 6 5 11 10 11 6 0 10 -2 10 -4z m0 -23 c8 6 6 2 -3 -10 -11
-12 -14 -24 -9 -27 6 -3 13 1 16 10 7 18 31 14 31 -5 0 -6 7 -16 15 -21 12 -7
12 -12 2 -22 -16 -16 -16 -31 1 -21 18 11 37 12 37 2 0 -5 -5 -9 -11 -9 -5 0
-7 -6 -3 -12 5 -9 2 -9 -9 1 -14 11 -17 11 -17 0 0 -7 -8 -2 -17 11 -10 14
-17 29 -15 34 2 5 -4 6 -13 2 -9 -3 -14 -2 -11 3 3 4 -6 18 -19 31 -24 23 -25
51 -1 31 9 -7 17 -7 26 2z m130 -153 c0 -5 -4 -10 -10 -10 -5 0 -10 5 -10 10
0 6 5 10 10 10 6 0 10 -4 10 -10z m164 -195 c3 -8 1 -15 -4 -15 -6 0 -10 7
-10 15 0 8 2 15 4 15 2 0 6 -7 10 -15z m-1322 -62 c-6 -3 -10 -9 -7 -14 4 -5
-1 -6 -10 -3 -14 6 -14 8 2 19 10 8 20 11 23 8 3 -3 -1 -8 -8 -10z m62 -39 c3
-8 2 -12 -4 -9 -6 3 -10 10 -10 16 0 14 7 11 14 -7z m41 -54 c3 -6 -1 -7 -9
-4 -18 7 -21 14 -7 14 6 0 13 -4 16 -10z m1365 -41 c0 -6 -4 -7 -10 -4 -5 3
-10 11 -10 16 0 6 5 7 10 4 6 -3 10 -11 10 -16z m47 -61 c-3 -8 -6 -5 -6 6 -1
11 2 17 5 13 3 -3 4 -12 1 -19z m-1302 -40 c10 -21 12 -34 5 -36 -5 -2 -7 -8
-4 -13 3 -6 11 -5 20 2 13 11 19 2 15 -23 -1 -8 15 -12 32 -9 5 1 6 -3 2 -9
-4 -7 -12 -7 -25 0 -25 14 -37 13 -22 -2 7 -7 12 -18 12 -26 0 -12 -3 -12 -15
-2 -9 7 -13 15 -10 18 3 3 -5 16 -17 29 -22 23 -22 25 -5 35 12 6 15 14 9 21
-11 14 -23 47 -17 47 2 0 11 -15 20 -32z m1445 -142 c0 -6 -7 -1 -15 10 -8 10
-15 23 -15 28 0 6 7 1 15 -10 8 -10 15 -23 15 -28z m10 -26 c0 -5 -6 -10 -12
-10 -7 -1 -2 -7 12 -15 22 -12 26 -12 32 3 6 15 7 15 7 -1 1 -10 -6 -20 -14
-23 -8 -4 -15 -10 -15 -15 0 -11 23 -7 33 6 4 7 10 6 15 -1 4 -6 14 -14 22
-18 8 -3 2 -4 -15 0 -29 5 -29 5 -10 -15 14 -16 20 -18 27 -9 4 8 6 -1 3 -20
-3 -27 -1 -32 11 -28 9 4 12 2 8 -5 -4 -8 1 -9 16 -4 15 5 20 4 16 -4 -4 -6
-14 -11 -23 -11 -9 0 -13 -3 -9 -7 8 -8 13 -10 46 -12 28 -2 25 -17 -3 -16
-25 0 -62 24 -52 33 3 3 -4 11 -15 19 -11 8 -17 20 -13 29 4 10 1 14 -8 12
-18 -4 -71 50 -57 58 6 4 -2 17 -18 31 -16 13 -23 22 -16 18 6 -3 12 -1 12 4
0 6 5 11 10 11 6 0 10 -4 10 -10z m120 -125 c11 -13 10 -14 -4 -9 -9 3 -16 10
-16 15 0 13 6 11 20 -6z m80 -110 c0 -5 -5 -3 -10 5 -5 8 -10 20 -10 25 0 6 5
3 10 -5 5 -8 10 -19 10 -25z m70 -94 c-8 -16 -6 -21 11 -26 15 -5 17 -10 10
-19 -6 -7 -8 -16 -4 -19 3 -4 12 1 20 11 12 16 13 16 7 -1 -5 -13 -2 -16 12
-11 18 5 18 5 2 -9 -10 -8 -15 -17 -11 -20 3 -4 1 -7 -5 -7 -7 0 -12 5 -12 11
0 5 -4 8 -9 5 -12 -8 -36 23 -37 48 0 22 13 56 22 56 2 0 0 -9 -6 -19z m-1334
-10 c-4 -5 -1 -12 4 -14 6 -3 5 -4 -2 -3 -15 3 -23 26 -8 26 6 0 9 -4 6 -9z
m43 -44 c8 -10 7 -17 -2 -27 -10 -10 -9 -12 4 -7 10 3 26 -4 40 -19 12 -13 18
-24 13 -24 -5 0 -15 9 -22 20 -10 16 -16 18 -31 10 -20 -10 -24 2 -8 27 4 7 0
16 -10 22 -10 6 -13 11 -7 11 6 0 16 -6 23 -13z m1398 -62 c0 -8 -4 -12 -9 -9
-5 3 -6 10 -3 15 9 13 12 11 12 -6z m-1311 -47 c10 -13 15 -20 10 -15 -5 4
-16 1 -25 -7 -13 -12 -19 -12 -34 -1 -12 9 -14 15 -7 20 6 4 17 2 25 -5 9 -7
15 -8 20 0 3 5 1 10 -4 10 -6 0 -11 5 -11 10 0 15 5 12 26 -12z m1447 -156
c-10 -10 -20 -17 -22 -16 -6 5 20 34 30 34 5 0 1 -8 -8 -18z m-1330 -36 c10 3
14 11 10 18 -3 6 -2 7 3 3 5 -5 9 -12 9 -15 3 -31 19 -53 36 -49 10 3 18 2 17
-2 -2 -20 3 -31 14 -25 7 5 8 3 3 -6 -6 -10 -11 -9 -21 5 -7 10 -20 15 -28 12
-9 -4 -15 -3 -14 1 4 14 -13 52 -23 52 -6 0 -8 -4 -4 -9 3 -5 1 -12 -3 -15 -5
-3 -19 9 -32 27 -20 27 -20 29 -3 14 11 -10 27 -15 36 -11z m1377 -16 c-6 -11
-13 -20 -16 -20 -2 0 0 9 6 20 6 11 13 20 16 20 2 0 0 -9 -6 -20z m-4570 -50
c0 -5 -2 -10 -4 -10 -3 0 -8 5 -11 10 -3 6 -1 10 4 10 6 0 11 -4 11 -10z
m3300 -30 c0 -5 -5 -10 -11 -10 -5 0 -7 5 -4 10 3 6 8 10 11 10 2 0 4 -4 4
-10z m20 -44 c-16 -16 -11 -29 5 -16 9 7 18 10 22 7 3 -4 -2 -9 -11 -13 -9 -3
-13 -10 -10 -16 3 -5 11 -5 19 2 17 14 32 -7 16 -23 -16 -16 -14 -27 5 -27 8
0 12 5 9 10 -3 6 -1 10 5 10 7 0 9 -8 4 -22 -6 -20 -5 -21 10 -9 10 9 16 10
16 2 0 -6 -6 -11 -12 -11 -7 -1 -3 -9 9 -19 18 -15 20 -20 8 -25 -9 -3 -28 11
-50 36 -29 35 -33 43 -20 51 8 4 15 13 15 19 0 7 -5 7 -14 -1 -11 -9 -18 -8
-32 6 -10 10 -22 18 -28 18 -6 0 -11 8 -11 18 0 9 5 17 10 16 6 -1 9 -5 7 -11
-1 -5 3 -8 10 -5 7 2 12 13 10 23 -2 16 -1 16 7 4 7 -9 7 -18 1 -24z m1452
-136 c-11 -19 -19 -25 -24 -17 -4 7 0 18 10 25 9 7 16 18 14 23 -1 6 2 8 7 5
6 -4 3 -18 -7 -36z m-1337 20 c3 -5 1 -10 -4 -10 -6 0 -11 5 -11 10 0 6 2 10
4 10 3 0 8 -4 11 -10z m66 -87 c12 -16 12 -17 -2 -6 -9 7 -19 10 -22 6 -4 -3
-7 -1 -7 5 0 17 16 15 31 -5z m155 -195 c4 -7 3 -8 -4 -4 -7 4 -12 3 -12 -2 0
-6 7 -13 16 -16 10 -4 13 -13 9 -25 -5 -17 -2 -19 22 -15 20 3 24 2 13 -5 -8
-5 -18 -7 -22 -5 -10 6 -11 -10 -1 -19 3 -4 12 -2 20 4 9 9 13 8 13 0 0 -6 -4
-11 -10 -11 -5 0 -9 -3 -9 -7 3 -21 -2 -33 -12 -28 -6 4 -8 13 -5 20 3 8 -11
30 -30 50 -19 20 -34 39 -34 43 0 4 7 -1 14 -10 14 -19 36 -24 36 -9 0 5 -7
11 -15 15 -8 3 -15 12 -15 21 0 18 16 20 26 3z"/>
<path d="M3677 7986 c10 -13 22 -22 26 -19 4 3 -2 13 -14 24 -30 26 -34 24
-12 -5z"/>
<path d="M4614 6802 c11 -12 21 -22 24 -22 3 0 2 3 -1 7 -4 3 -2 12 4 20 9 9
8 13 0 13 -6 0 -11 -5 -11 -11 0 -8 -6 -7 -17 2 -15 11 -14 10 1 -9z"/>
<path d="M6096 4964 c-3 -8 -2 -12 4 -9 9 6 14 -8 11 -27 -1 -11 17 -10 23 1
3 5 -1 14 -9 21 -8 7 -12 16 -9 21 3 5 1 9 -4 9 -6 0 -13 -7 -16 -16z"/>
<path d="M5269 4298 c11 -15 41 -15 41 -1 0 3 -6 3 -14 0 -7 -3 -20 0 -27 6
-11 10 -11 9 0 -5z"/>
<path d="M6761 4103 c7 -12 15 -20 18 -17 3 2 -3 12 -13 22 -17 16 -18 16 -5
-5z"/>
<path d="M6994 3815 c1 -8 8 -20 14 -25 8 -7 9 -7 3 1 -5 6 -7 18 -4 25 3 8 1
14 -5 14 -6 0 -9 -7 -8 -15z"/>
<path d="M6100 3245 c13 -14 26 -25 28 -25 3 0 -5 11 -18 25 -13 14 -26 25
-28 25 -3 0 5 -11 18 -25z"/>
<path d="M11055 9539 c-4 -6 -5 -12 -2 -15 2 -3 7 2 10 11 7 17 1 20 -8 4z"/>
<path d="M10986 9508 c3 -5 10 -6 15 -3 13 9 11 12 -6 12 -8 0 -12 -4 -9 -9z"/>
<path d="M10775 9410 c-3 -5 -1 -10 4 -10 6 0 11 5 11 10 0 6 -2 10 -4 10 -3
0 -8 -4 -11 -10z"/>
<path d="M10407 9349 c7 -7 15 -10 18 -7 3 3 -2 9 -12 12 -14 6 -15 5 -6 -5z"/>
<path d="M10575 9310 c-3 -6 1 -7 9 -4 18 7 21 14 7 14 -6 0 -13 -4 -16 -10z"/>
<path d="M10499 9278 c-5 -18 -6 -38 -1 -34 7 8 12 36 6 36 -2 0 -4 -1 -5 -2z"/>
<path d="M10350 9201 c0 -6 4 -13 10 -16 6 -3 7 1 4 9 -7 18 -14 21 -14 7z"/>
<path d="M10315 9189 c-4 -6 -4 -13 -1 -16 3 -4 6 -1 6 6 0 7 5 9 12 5 7 -4 8
-3 4 4 -9 15 -13 15 -21 1z"/>
<path d="M9876 9132 c-3 -5 1 -9 9 -9 8 0 12 4 9 9 -3 4 -7 8 -9 8 -2 0 -6 -4
-9 -8z"/>
<path d="M10205 9130 c3 -5 8 -10 11 -10 2 0 4 5 4 10 0 6 -5 10 -11 10 -5 0
-7 -4 -4 -10z"/>
<path d="M9910 8980 c-9 -6 -10 -10 -3 -10 6 0 15 5 18 10 8 12 4 12 -15 0z"/>
<path d="M9870 8960 c0 -5 5 -10 11 -10 5 0 7 5 4 10 -3 6 -8 10 -11 10 -2 0
-4 -4 -4 -10z"/>
<path d="M9810 8932 c0 -5 7 -9 15 -9 8 0 12 4 9 9 -3 4 -9 8 -15 8 -5 0 -9
-4 -9 -8z"/>
<path d="M9675 8850 c-3 -5 -2 -10 4 -10 5 0 13 5 16 10 3 6 2 10 -4 10 -5 0
-13 -4 -16 -10z"/>
<path d="M9636 8832 c-3 -5 1 -9 9 -9 8 0 12 4 9 9 -3 4 -7 8 -9 8 -2 0 -6 -4
-9 -8z"/>
<path d="M9591 8822 c-1 -7 -6 -10 -13 -6 -6 4 -8 3 -5 -4 8 -12 32 -10 44 3
4 4 3 5 -4 2 -6 -4 -14 -1 -16 5 -4 10 -6 10 -6 0z"/>
<path d="M9420 8716 c0 -2 7 -7 16 -10 8 -3 12 -2 9 4 -6 10 -25 14 -25 6z"/>
<path d="M9380 8696 c0 -2 7 -7 16 -10 8 -3 12 -2 9 4 -6 10 -25 14 -25 6z"/>
<path d="M9310 8670 c0 -5 5 -10 11 -10 5 0 7 5 4 10 -3 6 -8 10 -11 10 -2 0
-4 -4 -4 -10z"/>
<path d="M9194 8603 c-10 -7 -13 -13 -7 -13 7 0 15 5 18 10 4 6 10 8 15 5 5
-3 11 -2 14 3 8 13 -19 10 -40 -5z"/>
<path d="M8974 8489 c-4 -7 -3 -9 4 -5 6 3 15 -2 21 -11 6 -10 11 -13 11 -7 0
20 -27 37 -36 23z"/>
<path d="M8836 8403 c-6 -14 -5 -15 5 -6 7 7 10 15 7 18 -3 3 -9 -2 -12 -12z"/>
<path d="M8756 8372 c-3 -5 1 -9 9 -9 8 0 12 4 9 9 -3 4 -7 8 -9 8 -2 0 -6 -4
-9 -8z"/>
<path d="M2125 8330 c-4 -6 -10 -8 -14 -5 -5 2 -7 -10 -6 -27 2 -18 8 -34 14
-36 9 -3 9 -8 1 -17 -8 -9 -7 -14 4 -18 11 -4 13 -1 9 11 -6 15 -5 15 10 3 10
-8 20 -11 24 -7 3 3 1 6 -6 6 -7 0 -10 4 -6 9 3 5 1 12 -5 16 -7 4 -7 12 0 25
7 13 7 21 -2 26 -7 4 -8 3 -4 -4 4 -7 3 -12 -2 -12 -16 0 -22 13 -11 27 6 7 9
13 6 13 -3 0 -9 -5 -12 -10z m10 -48 c-3 -3 1 -12 7 -21 10 -12 7 -12 -8 2
-11 9 -21 24 -21 32 0 11 4 12 14 3 7 -6 11 -13 8 -16z"/>
<path d="M2050 8309 c0 -5 5 -7 10 -4 6 3 10 8 10 11 0 2 -4 4 -10 4 -5 0 -10
-5 -10 -11z"/>
<path d="M8617 8285 c-4 -8 -3 -16 1 -19 4 -3 9 4 9 15 2 23 -3 25 -10 4z"/>
<path d="M2075 8270 c3 -5 8 -10 11 -10 2 0 4 5 4 10 0 6 -5 10 -11 10 -5 0
-7 -4 -4 -10z"/>
<path d="M8477 8205 c-4 -8 -3 -16 1 -19 4 -3 9 4 9 15 2 23 -3 25 -10 4z"/>
<path d="M7870 8186 c0 -2 8 -10 18 -17 15 -13 16 -12 3 4 -13 16 -21 21 -21
13z"/>
<path d="M2235 8160 c-3 -5 -1 -10 4 -10 6 0 11 5 11 10 0 6 -2 10 -4 10 -3 0
-8 -4 -11 -10z"/>
<path d="M2230 8131 c0 -6 5 -13 10 -16 6 -4 8 -11 5 -16 -3 -5 2 -6 11 -2 11
4 15 3 11 -4 -4 -6 0 -18 8 -27 9 -8 16 -19 17 -23 1 -4 11 -7 22 -5 19 2 19
1 -3 -11 -15 -9 -20 -17 -12 -21 6 -4 11 -2 11 3 0 6 5 11 11 11 5 0 8 -4 5
-9 -3 -5 1 -12 10 -15 8 -3 12 -11 9 -16 -5 -8 -12 -7 -23 1 -11 9 -11 6 2 -7
13 -13 20 -15 23 -6 3 6 10 12 16 12 5 0 7 -3 4 -7 -4 -3 -1 -13 6 -21 10 -13
9 -15 -7 -9 -16 6 -17 5 -6 -8 15 -18 19 -16 25 14 2 14 0 19 -7 15 -7 -4 -8
-2 -4 5 4 6 12 9 17 5 5 -3 7 -10 4 -15 -4 -5 -1 -9 4 -9 21 0 11 27 -14 38
-14 6 -25 17 -25 25 0 17 -42 52 -59 49 -7 -2 -10 1 -7 6 3 5 -6 23 -21 40
-26 32 -43 41 -43 23z m120 -121 c6 -11 8 -20 6 -20 -3 0 -10 9 -16 20 -6 11
-8 20 -6 20 3 0 10 -9 16 -20z"/>
<path d="M8335 8130 c-3 -5 -1 -10 4 -10 6 0 11 5 11 10 0 6 -2 10 -4 10 -3 0
-8 -4 -11 -10z"/>
<path d="M2215 8099 c-4 -6 -5 -12 -2 -15 2 -3 7 2 10 11 7 17 1 20 -8 4z"/>
<path d="M2814 8079 c-3 -5 -9 -7 -13 -5 -4 3 -8 -1 -8 -9 0 -8 4 -15 9 -15 4
0 8 5 8 11 0 5 5 7 10 4 8 -5 7 -12 -2 -23 -10 -15 -10 -15 2 -4 8 7 16 17 16
23 1 5 2 12 3 15 0 3 10 -4 21 -17 14 -17 18 -19 14 -6 -3 9 -1 17 4 17 6 0
12 -7 14 -15 2 -13 5 -12 15 4 11 17 10 19 -2 15 -8 -4 -15 -1 -15 6 0 9 -3
10 -13 1 -8 -6 -17 -8 -21 -4 -11 11 -35 12 -42 2z"/>
<path d="M2929 8063 c-16 -18 -17 -22 -5 -13 18 14 19 13 13 -5 -7 -19 -7 -19
7 -1 9 11 22 16 31 12 13 -4 14 -2 5 14 -14 26 -22 25 -51 -7z m41 13 c0 -2
-7 -7 -16 -10 -8 -3 -12 -2 -9 4 6 10 25 14 25 6z"/>
<path d="M3329 8073 c17 -34 31 -37 55 -14 17 18 17 21 4 15 -11 -4 -18 -1
-18 6 0 9 -3 10 -13 1 -10 -8 -17 -7 -26 2 -11 10 -11 8 -2 -10z m41 -13 c0
-5 -4 -10 -10 -10 -5 0 -10 5 -10 10 0 6 5 10 10 10 6 0 10 -4 10 -10z"/>
<path d="M2235 8070 c-3 -5 -1 -10 4 -10 6 0 11 5 11 10 0 6 -2 10 -4 10 -3 0
-8 -4 -11 -10z"/>
<path d="M3015 8063 c-8 -22 -6 -30 4 -14 5 8 16 11 26 8 9 -4 13 -12 9 -18
-4 -8 -3 -9 4 -5 9 5 9 12 0 25 -13 21 -35 23 -43 4z"/>
<path d="M3070 8066 c7 -7 13 -7 20 0 6 6 3 10 -10 10 -13 0 -16 -4 -10 -10z"/>
<path d="M3107 8065 c-4 -8 -1 -17 5 -21 7 -4 8 -3 4 4 -4 7 -2 12 3 12 6 0
11 -5 11 -12 0 -6 2 -9 5 -6 7 7 -5 38 -15 38 -4 0 -10 -7 -13 -15z"/>
<path d="M3256 8063 c-4 -9 -4 -18 -1 -21 3 -3 5 0 5 6 0 7 5 12 11 12 5 0 7
-5 3 -12 -4 -7 -3 -8 4 -4 16 10 15 23 -2 29 -8 3 -17 -1 -20 -10z"/>
<path d="M3406 8063 c-6 -14 -5 -15 5 -6 7 7 10 15 7 18 -3 3 -9 -2 -12 -12z"/>
<path d="M3445 8072 c-25 -18 -36 -40 -24 -48 7 -4 9 -3 6 3 -9 14 19 37 32
28 7 -3 8 0 5 9 -7 18 -6 18 -19 8z"/>
<path d="M3496 8064 c-3 -7 2 -10 15 -7 17 5 24 -5 20 -30 -1 -5 3 -6 8 -2 14
8 -7 52 -24 52 -8 0 -16 -6 -19 -13z"/>
<path d="M3553 8059 c6 -10 16 -18 22 -18 5 1 17 1 25 0 13 -1 13 -2 0 -12
-13 -9 -13 -10 0 -6 8 2 13 11 11 18 -2 8 -4 20 -4 27 0 6 -5 12 -10 12 -5 0
-7 -6 -4 -13 3 -8 -1 -14 -8 -14 -8 0 -13 5 -12 10 1 5 -6 11 -15 12 -14 3
-15 0 -5 -16z"/>
<path d="M8204 8055 c-10 -8 -14 -15 -8 -15 6 0 17 7 24 15 16 19 9 19 -16 0z"/>
<path d="M8160 8030 c-9 -6 -10 -10 -3 -10 6 0 15 5 18 10 8 12 4 12 -15 0z"/>
<path d="M2390 7931 c0 -6 4 -12 10 -16 5 -3 8 -11 6 -18 -1 -7 -1 -9 1 -4 3
4 12 7 21 7 15 0 15 -2 2 -10 -13 -8 -12 -10 3 -10 10 0 16 -4 12 -10 -3 -5
-11 -8 -18 -6 -7 1 -9 1 -4 -1 4 -3 4 -10 0 -16 -5 -9 -3 -9 8 -1 8 6 20 13
27 15 8 3 2 17 -19 42 -30 36 -49 47 -49 28z"/>
<path d="M3670 7930 c0 -5 5 -10 10 -10 6 0 10 5 10 10 0 6 -4 10 -10 10 -5 0
-10 -4 -10 -10z"/>
<path d="M3711 7931 c-10 -6 -9 -10 4 -15 9 -3 21 -4 26 0 5 3 9 1 9 -5 0 -6
7 -8 15 -4 17 6 17 10 0 13 -5 1 -17 6 -26 10 -8 5 -21 5 -28 1z"/>
<path d="M7975 7910 c-3 -5 -1 -10 4 -10 6 0 11 5 11 10 0 6 -2 10 -4 10 -3 0
-8 -4 -11 -10z"/>
<path d="M2374 7899 c-3 -6 -2 -15 3 -20 5 -5 9 -1 9 11 0 23 -2 24 -12 9z"/>
<path d="M3710 7891 c14 -11 29 -21 34 -21 6 0 1 -6 -10 -14 -19 -14 -19 -14
1 -13 11 1 19 -3 18 -10 -2 -7 2 -13 7 -13 6 0 10 2 10 4 0 2 3 11 6 19 4 10
-4 21 -23 31 l-28 16 28 -6 c16 -4 27 -2 27 4 0 6 -12 10 -27 8 -16 -1 -37 1
-48 6 -15 7 -13 4 5 -11z m60 -41 c0 -5 -2 -10 -4 -10 -3 0 -8 5 -11 10 -3 6
-1 10 4 10 6 0 11 -4 11 -10z"/>
<path d="M7935 7889 c-4 -6 -5 -12 -2 -15 2 -3 7 2 10 11 7 17 1 20 -8 4z"/>
<path d="M3690 7876 c0 -2 7 -7 16 -10 8 -3 12 -2 9 4 -6 10 -25 14 -25 6z"/>
<path d="M2436 7812 c-3 -5 1 -9 9 -9 8 0 12 4 9 9 -3 4 -7 8 -9 8 -2 0 -6 -4
-9 -8z"/>
<path d="M2515 7810 c-3 -5 -1 -10 4 -10 6 0 11 5 11 10 0 6 -2 10 -4 10 -3 0
-8 -4 -11 -10z"/>
<path d="M7816 7808 c3 -5 10 -6 15 -3 13 9 11 12 -6 12 -8 0 -12 -4 -9 -9z"/>
<path d="M3755 7801 c-3 -5 -2 -12 3 -15 5 -3 9 1 9 9 0 17 -3 19 -12 6z"/>
<path d="M7748 7773 c6 -2 9 -10 6 -15 -4 -7 -2 -8 4 -4 18 11 14 26 -5 25
-11 0 -13 -3 -5 -6z"/>
<path d="M3870 7730 c0 -6 5 -10 11 -10 5 0 7 -5 4 -10 -4 -6 -11 -8 -16 -5
-5 3 -6 -1 -2 -11 6 -15 7 -15 15 0 8 14 12 15 25 4 14 -11 15 -11 5 8 -12 23
-42 40 -42 24z"/>
<path d="M3838 7723 c7 -3 16 -2 19 1 4 3 -2 6 -13 5 -11 0 -14 -3 -6 -6z"/>
<path d="M6840 7610 c-9 -6 -10 -10 -3 -10 6 0 15 5 18 10 8 12 4 12 -15 0z"/>
<path d="M7479 7603 c-13 -16 -12 -17 4 -4 16 13 21 21 13 21 -2 0 -10 -8 -17
-17z"/>
<path d="M3915 7599 c-4 -6 -5 -12 -2 -15 2 -3 7 2 10 11 7 17 1 20 -8 4z"/>
<path d="M2665 7592 c-19 -14 -14 -41 7 -37 12 3 18 -1 15 -8 -2 -7 -9 -12
-14 -12 -19 0 -23 -11 -4 -12 9 -1 23 7 29 18 9 14 9 19 1 19 -8 0 -8 4 0 14
9 11 8 15 -5 20 -19 7 -17 7 -29 -2z m20 -11 c3 -5 1 -12 -5 -16 -5 -3 -10 1
-10 9 0 18 6 21 15 7z"/>
<path d="M7426 7591 c-4 -5 3 -7 14 -4 23 6 26 13 6 13 -8 0 -17 -4 -20 -9z"/>
<path d="M4021 7554 c-6 -14 -8 -23 -4 -21 5 3 13 -1 20 -8 10 -10 9 -14 -2
-19 -17 -6 -20 -26 -4 -26 5 0 7 5 4 10 -3 6 -1 10 4 10 6 0 11 -4 11 -10 0
-5 4 -10 8 -10 4 0 8 14 7 30 0 21 -6 32 -19 36 -13 5 -15 8 -6 14 7 4 8 10 3
13 -6 4 -15 -5 -22 -19z"/>
<path d="M6745 7550 c-3 -6 1 -7 9 -4 18 7 21 14 7 14 -6 0 -13 -4 -16 -10z"/>
<path d="M3997 7519 c7 -7 15 -10 18 -7 3 3 -2 9 -12 12 -14 6 -15 5 -6 -5z"/>
<path d="M2732 7507 c-16 -21 -24 -43 -9 -24 15 18 32 24 22 7 -7 -12 15 -13
33 -2 9 6 6 12 -12 20 -18 8 -27 8 -34 -1z"/>
<path d="M2731 7454 c0 -11 3 -14 6 -6 3 7 2 16 -1 19 -3 4 -6 -2 -5 -13z"/>
<path d="M4030 7456 c0 -2 7 -7 16 -10 8 -3 12 -2 9 4 -6 10 -25 14 -25 6z"/>
<path d="M2775 7420 c-17 -19 -16 -19 10 -14 15 3 24 1 21 -5 -3 -5 3 -7 14
-4 11 3 20 10 20 15 0 5 -4 7 -9 4 -5 -4 -17 -3 -26 0 -13 5 -14 8 -3 15 7 5
8 9 2 9 -6 0 -19 -9 -29 -20z"/>
<path d="M2824 7382 c-13 -10 -16 -32 -4 -32 6 0 10 8 10 17 0 22 13 8 17 -18
2 -14 -1 -18 -9 -13 -10 5 -10 3 0 -7 11 -12 14 -12 22 1 6 9 5 18 -3 23 -8 6
-7 7 3 4 8 -2 14 -10 12 -17 -1 -7 2 -18 8 -25 7 -8 7 -15 1 -19 -5 -3 -12 -1
-14 4 -3 6 -4 5 -2 -2 1 -7 8 -12 14 -10 15 3 14 -11 -1 -28 -11 -12 -10 -12
3 -2 9 6 18 9 21 6 3 -2 8 2 11 10 3 8 0 20 -8 26 -8 6 -12 17 -10 23 3 7 1
17 -3 22 -13 19 -59 43 -68 37z"/>
<path d="M4135 7331 c-3 -5 0 -13 6 -17 7 -4 9 -3 5 4 -3 5 0 13 6 15 9 4 10
6 1 6 -6 1 -14 -3 -18 -8z"/>
<path d="M4190 7332 c0 -7 -4 -10 -10 -7 -5 3 -10 2 -10 -3 0 -6 7 -13 16 -16
8 -3 12 -10 9 -16 -3 -6 1 -13 9 -16 9 -3 14 -10 11 -14 -3 -5 2 -7 12 -6 21
3 29 46 9 46 -8 0 -22 10 -30 22 -9 12 -16 17 -16 10z m42 -47 c3 3 5 -1 5 -9
0 -11 -4 -12 -18 -3 -10 6 -16 13 -14 16 3 2 1 9 -3 16 -4 6 0 3 9 -7 9 -9 19
-15 21 -13z"/>
<path d="M6905 7269 c-3 -4 2 -6 10 -5 21 3 28 13 10 13 -9 0 -18 -4 -20 -8z"/>
<path d="M6195 7259 c-4 -6 -5 -12 -2 -15 2 -3 7 2 10 11 7 17 1 20 -8 4z"/>
<path d="M2918 7223 c7 -3 16 -2 19 1 4 3 -2 6 -13 5 -11 0 -14 -3 -6 -6z"/>
<path d="M4237 7223 c-11 -11 -8 -20 7 -20 8 0 12 6 9 14 -6 15 -7 15 -16 6z"/>
<path d="M6116 7207 c3 -10 9 -15 12 -12 3 3 0 11 -7 18 -10 9 -11 8 -5 -6z"/>
<path d="M2930 7190 c0 -5 5 -10 11 -10 5 0 7 5 4 10 -3 6 -8 10 -11 10 -2 0
-4 -4 -4 -10z"/>
<path d="M6750 7169 c0 -5 5 -7 10 -4 6 3 10 8 10 11 0 2 -4 4 -10 4 -5 0 -10
-5 -10 -11z"/>
<path d="M4275 7130 c3 -5 8 -10 11 -10 2 0 4 5 4 10 0 6 -5 10 -11 10 -5 0
-7 -4 -4 -10z"/>
<path d="M4365 7130 c-4 -6 -10 -8 -15 -5 -5 3 -12 0 -16 -7 -4 -7 -4 -10 0
-6 5 4 14 1 21 -5 11 -10 10 -15 -2 -29 -11 -13 -12 -16 -1 -14 31 4 40 17 24
35 -12 13 -13 20 -4 29 7 7 9 12 6 12 -4 0 -10 -5 -13 -10z"/>
<path d="M6675 7129 c-3 -4 2 -6 10 -5 21 3 28 13 10 13 -9 0 -18 -4 -20 -8z"/>
<path d="M6596 7072 c-3 -5 1 -9 9 -9 8 0 12 4 9 9 -3 4 -7 8 -9 8 -2 0 -6 -4
-9 -8z"/>
<path d="M5869 7053 c-13 -16 -12 -17 4 -4 9 7 17 15 17 17 0 8 -8 3 -21 -13z"/>
<path d="M6535 7030 c-3 -5 -1 -10 4 -10 6 0 11 5 11 10 0 6 -2 10 -4 10 -3 0
-8 -4 -11 -10z"/>
<path d="M3116 7015 c4 -8 13 -15 21 -15 8 0 11 -5 8 -10 -4 -6 -16 -8 -28 -5
-19 5 -20 5 -4 -5 9 -6 22 -8 27 -5 6 3 10 1 10 -4 0 -6 -4 -11 -10 -11 -5 0
-10 -5 -10 -11 0 -8 6 -7 17 2 9 8 18 13 20 12 12 -10 15 0 2 10 -16 12 -19
18 -19 38 0 5 -4 7 -10 4 -5 -3 -10 -1 -10 4 0 6 -4 11 -10 11 -5 0 -7 -7 -4
-15z"/>
<path d="M3075 7011 c-3 -5 0 -13 6 -17 8 -5 9 -3 4 6 -6 10 -4 12 9 7 10 -4
15 -3 11 3 -8 13 -22 13 -30 1z"/>
<path d="M5776 7012 c-3 -5 1 -9 9 -9 8 0 12 4 9 9 -3 4 -7 8 -9 8 -2 0 -6 -4
-9 -8z"/>
<path d="M6466 6993 c-6 -14 -5 -15 5 -6 7 7 10 15 7 18 -3 3 -9 -2 -12 -12z"/>
<path d="M5736 6988 c3 -5 10 -6 15 -3 13 9 11 12 -6 12 -8 0 -12 -4 -9 -9z"/>
<path d="M3158 6913 c7 -3 16 -2 19 1 4 3 -2 6 -13 5 -11 0 -14 -3 -6 -6z"/>
<path d="M3225 6890 c-3 -5 1 -10 10 -10 9 0 13 5 10 10 -3 6 -8 10 -10 10 -2
0 -7 -4 -10 -10z"/>
<path d="M3184 6868 c-4 -6 -3 -8 4 -5 5 4 18 4 27 1 12 -5 13 -9 5 -14 -7 -4
-1 -7 14 -7 33 0 33 3 -4 22 -35 18 -37 18 -46 3z"/>
<path d="M5520 6850 c0 -5 5 -10 11 -10 5 0 7 5 4 10 -3 6 -8 10 -11 10 -2 0
-4 -4 -4 -10z"/>
<path d="M4576 6768 c3 -5 10 -6 15 -3 13 9 11 12 -6 12 -8 0 -12 -4 -9 -9z"/>
<path d="M3335 6690 c3 -5 8 -10 11 -10 2 0 4 5 4 10 0 6 -5 10 -11 10 -5 0
-7 -4 -4 -10z"/>
<path d="M5259 6683 c-13 -16 -12 -17 4 -4 9 7 17 15 17 17 0 8 -8 3 -21 -13z"/>
<path d="M3394 6648 c-5 -7 -2 -8 6 -3 10 6 12 4 6 -10 -5 -15 -4 -16 9 -5 9
8 15 9 15 2 0 -6 -8 -15 -17 -21 -16 -9 -16 -10 2 -9 11 0 29 -3 39 -7 17 -7
17 -5 -4 23 -26 35 -46 46 -56 30z"/>
<path d="M3370 6630 c0 -5 5 -10 11 -10 5 0 7 5 4 10 -3 6 -8 10 -11 10 -2 0
-4 -4 -4 -10z"/>
<path d="M3436 6577 c3 -10 9 -15 12 -12 3 3 0 11 -7 18 -10 9 -11 8 -5 -6z"/>
<path d="M5817 6565 c-4 -8 -3 -16 1 -19 4 -3 9 4 9 15 2 23 -3 25 -10 4z"/>
<path d="M3493 6530 c-1 -11 2 -22 8 -25 5 -4 9 -1 9 5 0 6 6 8 13 4 6 -4 3 2
-7 14 -23 27 -21 26 -23 2z"/>
<path d="M4790 6511 c0 -6 4 -13 10 -16 6 -3 7 1 4 9 -7 18 -14 21 -14 7z"/>
<path d="M3545 6451 c-3 -5 -1 -12 5 -16 5 -3 10 -3 10 2 0 4 4 2 9 -5 7 -11
9 -10 14 3 4 9 3 13 -3 10 -6 -3 -10 -1 -10 4 0 13 -17 14 -25 2z"/>
<path d="M4885 6450 c-3 -6 1 -7 9 -4 18 7 21 14 7 14 -6 0 -13 -4 -16 -10z"/>
<path d="M3555 6391 c-3 -5 -2 -12 3 -15 5 -3 9 1 9 9 0 17 -3 19 -12 6z"/>
<path d="M4790 6389 c0 -5 5 -7 10 -4 6 3 10 8 10 11 0 2 -4 4 -10 4 -5 0 -10
-5 -10 -11z"/>
<path d="M3606 6372 c-4 -7 -2 -12 4 -12 6 0 8 -5 4 -12 -4 -6 -3 -8 3 -5 6 4
16 0 23 -8 7 -8 9 -15 5 -15 -4 0 -2 -6 5 -14 6 -8 19 -12 28 -10 13 4 13 2
-3 -12 -18 -15 -18 -16 -2 -10 10 3 23 6 29 6 6 0 5 6 -2 15 -7 9 -19 14 -26
11 -7 -3 -16 -1 -19 4 -4 6 3 10 14 10 18 0 17 2 -7 28 -15 15 -30 23 -33 18
-4 -4 -9 -2 -11 5 -3 10 -6 10 -12 1z m45 -29 c13 -16 12 -17 -3 -4 -10 7 -18
15 -18 17 0 8 8 3 21 -13z"/>
<path d="M5395 6290 c-3 -5 -1 -10 4 -10 6 0 11 5 11 10 0 6 -2 10 -4 10 -3 0
-8 -4 -11 -10z"/>
<path d="M3726 6275 c4 -8 10 -12 15 -9 11 6 2 24 -11 24 -5 0 -7 -7 -4 -15z"/>
<path d="M4576 6252 c-3 -5 1 -9 9 -9 8 0 12 4 9 9 -3 4 -7 8 -9 8 -2 0 -6 -4
-9 -8z"/>
<path d="M5356 6237 c3 -10 9 -15 12 -12 3 3 0 11 -7 18 -10 9 -11 8 -5 -6z"/>
<path d="M3739 6223 c-8 -9 -9 -14 -2 -10 6 4 13 1 16 -5 3 -7 4 -3 4 10 -1
26 -1 26 -18 5z"/>
<path d="M3720 6190 c-9 -6 -10 -10 -3 -10 6 0 15 5 18 10 8 12 4 12 -15 0z"/>
<path d="M3830 6152 c0 -6 -10 -9 -23 -8 -14 2 -24 -2 -24 -10 0 -7 11 -12 26
-10 14 1 31 -1 37 -6 7 -5 10 0 9 14 -2 21 -25 40 -25 20z"/>
<path d="M4116 6148 c3 -5 10 -6 15 -3 13 9 11 12 -6 12 -8 0 -12 -4 -9 -9z"/>
<path d="M5190 6136 c0 -2 7 -7 16 -10 8 -3 12 -2 9 4 -6 10 -25 14 -25 6z"/>
<path d="M3795 6101 c-3 -5 0 -13 6 -17 7 -4 9 -3 5 4 -3 5 0 13 6 15 9 4 10
6 1 6 -6 1 -14 -3 -18 -8z"/>
<path d="M4027 6097 c-3 -8 1 -14 8 -14 7 0 11 6 8 14 -3 7 -6 13 -8 13 -2 0
-5 -6 -8 -13z"/>
<path d="M4310 6106 c0 -2 8 -10 18 -17 15 -13 16 -12 3 4 -13 16 -21 21 -21
13z"/>
<path d="M4777 5845 c-4 -8 -3 -16 1 -19 4 -3 9 4 9 15 2 23 -3 25 -10 4z"/>
<path d="M3917 5809 c7 -7 15 -10 18 -7 3 3 -2 9 -12 12 -14 6 -15 5 -6 -5z"/>
<path d="M5270 5789 c0 -5 5 -7 10 -4 6 3 10 8 10 11 0 2 -4 4 -10 4 -5 0 -10
-5 -10 -11z"/>
<path d="M5240 5760 c-9 -6 -10 -10 -3 -10 6 0 15 5 18 10 8 12 4 12 -15 0z"/>
<path d="M5136 5717 c3 -10 9 -15 12 -12 3 3 0 11 -7 18 -10 9 -11 8 -5 -6z"/>
<path d="M3706 5655 c-11 -8 -15 -15 -9 -15 6 0 16 7 23 15 16 19 11 19 -14 0z"/>
<path d="M5085 5649 c-4 -6 -5 -12 -2 -15 2 -3 7 2 10 11 7 17 1 20 -8 4z"/>
<path d="M5556 5623 c-11 -12 -6 -25 8 -20 7 3 19 0 25 -6 8 -8 11 -8 11 1 0
14 -35 34 -44 25z"/>
<path d="M5056 5608 c3 -5 10 -6 15 -3 13 9 11 12 -6 12 -8 0 -12 -4 -9 -9z"/>
<path d="M5012 5570 c-7 -12 -18 -17 -29 -14 -15 5 -16 4 -3 -5 11 -8 20 -6
34 9 11 11 18 22 15 24 -3 3 -10 -4 -17 -14z"/>
<path d="M5540 5584 c0 -5 7 -18 15 -28 8 -11 15 -16 15 -10 0 5 -7 18 -15 28
-8 11 -15 16 -15 10z"/>
<path d="M4375 5550 c-3 -5 -1 -10 4 -10 6 0 11 5 11 10 0 6 -2 10 -4 10 -3 0
-8 -4 -11 -10z"/>
<path d="M5400 5530 c-9 -6 -10 -10 -3 -10 6 0 15 5 18 10 8 12 4 12 -15 0z"/>
<path d="M5590 5521 c0 -5 9 -13 20 -16 11 -3 20 -13 20 -21 0 -9 -5 -12 -12
-8 -7 4 -8 3 -4 -5 9 -14 26 -5 26 15 0 8 5 12 10 9 6 -4 7 -11 4 -17 -5 -7
-2 -9 8 -5 9 3 20 1 26 -5 8 -8 9 -4 5 11 -3 12 -11 20 -18 17 -7 -2 -18 1
-24 7 -6 6 -11 7 -11 3 0 -5 -11 -1 -25 8 -14 9 -25 12 -25 7z"/>
<path d="M5335 5470 c-3 -5 -1 -10 4 -10 6 0 11 5 11 10 0 6 -2 10 -4 10 -3 0
-8 -4 -11 -10z"/>
<path d="M4875 5460 c-3 -6 1 -7 9 -4 18 7 21 14 7 14 -6 0 -13 -4 -16 -10z"/>
<path d="M4190 5416 c0 -8 4 -17 9 -20 5 -4 7 3 4 14 -6 23 -13 26 -13 6z"/>
<path d="M5670 5386 c0 -2 8 -10 18 -17 15 -13 16 -12 3 4 -13 16 -21 21 -21
13z"/>
<path d="M4760 5370 c-13 -8 -12 -10 3 -10 9 0 17 5 17 10 0 12 -1 12 -20 0z"/>
<path d="M4719 5358 c-5 -18 -6 -38 -1 -34 7 8 12 36 6 36 -2 0 -4 -1 -5 -2z"/>
<path d="M5733 5315 c0 -8 4 -12 9 -9 5 3 6 10 3 15 -9 13 -12 11 -12 -6z"/>
<path d="M3237 5307 c3 -6 -3 -17 -13 -25 -10 -8 -13 -12 -5 -10 8 2 20 13 28
24 11 18 11 21 -1 21 -9 0 -12 -5 -9 -10z"/>
<path d="M3140 5256 c0 -2 8 -10 18 -17 15 -13 16 -12 3 4 -13 16 -21 21 -21
13z"/>
<path d="M5859 5213 c-10 -11 -10 -14 -1 -9 7 4 12 2 12 -4 0 -6 5 -8 10 -5 6
3 10 1 10 -4 0 -10 -14 -15 -33 -12 -5 1 -6 -3 -2 -9 3 -6 10 -8 15 -5 4 3 16
2 25 -1 13 -6 14 -9 3 -16 -8 -5 -4 -7 14 -4 15 3 31 0 34 -6 4 -7 2 -8 -4 -4
-7 4 -12 3 -12 -3 0 -6 -8 -8 -17 -5 -14 5 -15 4 -4 -4 8 -6 21 -8 29 -4 9 3
13 1 10 -4 -3 -5 -2 -18 3 -29 7 -15 8 -12 5 12 -2 18 0 36 6 39 6 4 1 12 -13
20 -13 7 -27 10 -31 8 -3 -2 -12 12 -19 31 -15 39 -21 42 -40 18z"/>
<path d="M4525 5167 c-15 -12 -16 -15 -4 -22 8 -5 11 -5 7 0 -4 4 0 14 10 21
23 18 11 18 -13 1z"/>
<path d="M4437 5109 c7 -7 15 -10 18 -7 3 3 -2 9 -12 12 -14 6 -15 5 -6 -5z"/>
<path d="M3735 5070 c3 -5 8 -10 11 -10 2 0 4 5 4 10 0 6 -5 10 -11 10 -5 0
-7 -4 -4 -10z"/>
<path d="M4875 5050 c-3 -5 -1 -10 4 -10 6 0 11 5 11 10 0 6 -2 10 -4 10 -3 0
-8 -4 -11 -10z"/>
<path d="M5946 5051 c9 -9 34 -9 34 -1 0 5 -9 8 -20 7 -10 -1 -17 -3 -14 -6z"/>
<path d="M4270 4949 c0 -5 5 -7 10 -4 6 3 10 8 10 11 0 2 -4 4 -10 4 -5 0 -10
-5 -10 -11z"/>
<path d="M4236 4942 c-2 -4 -1 -14 4 -22 7 -11 9 -9 7 8 -1 24 -3 26 -11 14z"/>
<path d="M3553 4923 c0 -9 4 -10 14 -2 7 6 13 12 13 14 0 1 -6 2 -13 2 -8 0
-14 -6 -14 -14z"/>
<path d="M2698 4908 c5 -5 16 -8 23 -6 8 3 3 7 -10 11 -17 4 -21 3 -13 -5z"/>
<path d="M3515 4910 c-3 -6 1 -7 9 -4 18 7 21 14 7 14 -6 0 -13 -4 -16 -10z"/>
<path d="M6077 4899 c7 -7 15 -10 18 -7 3 3 -2 9 -12 12 -14 6 -15 5 -6 -5z"/>
<path d="M2655 4871 c-3 -5 -2 -12 3 -15 5 -3 9 1 9 9 0 17 -3 19 -12 6z"/>
<path d="M4109 4813 c-13 -16 -12 -17 4 -4 16 13 21 21 13 21 -2 0 -10 -8 -17
-17z"/>
<path d="M2515 4770 c3 -5 8 -10 11 -10 2 0 4 5 4 10 0 6 -5 10 -11 10 -5 0
-7 -4 -4 -10z"/>
<path d="M4930 4766 c0 -2 7 -7 16 -10 8 -3 12 -2 9 4 -6 10 -25 14 -25 6z"/>
<path d="M2495 4750 c-3 -5 -1 -10 4 -10 6 0 11 5 11 10 0 6 -2 10 -4 10 -3 0
-8 -4 -11 -10z"/>
<path d="M4924 4739 c-4 -8 -3 -9 4 -5 7 4 12 1 12 -8 0 -10 -6 -13 -17 -9
-13 4 -11 0 4 -11 13 -10 20 -23 17 -31 -7 -18 7 -20 24 -3 16 16 16 -4 0 -22
-11 -12 -10 -12 4 -2 13 10 17 10 21 0 2 -7 7 -10 11 -7 7 7 -47 93 -64 104
-5 3 -12 0 -16 -6z m31 -29 c-3 -5 -1 -10 6 -10 7 0 10 -3 6 -6 -9 -9 -28 6
-22 17 4 5 8 9 11 9 3 0 2 -4 -1 -10z"/>
<path d="M3310 4730 c0 -5 5 -10 11 -10 5 0 7 5 4 10 -3 6 -8 10 -11 10 -2 0
-4 -4 -4 -10z"/>
<path d="M4040 4730 c-9 -6 -10 -10 -3 -10 6 0 15 5 18 10 8 12 4 12 -15 0z"/>
<path d="M4010 4710 c0 -5 5 -10 11 -10 5 0 7 5 4 10 -3 6 -8 10 -11 10 -2 0
-4 -4 -4 -10z"/>
<path d="M2416 4692 c-3 -5 1 -9 9 -9 8 0 12 4 9 9 -3 4 -7 8 -9 8 -2 0 -6 -4
-9 -8z"/>
<path d="M3990 4690 c0 -5 5 -10 11 -10 5 0 7 5 4 10 -3 6 -8 10 -11 10 -2 0
-4 -4 -4 -10z"/>
<path d="M2376 4668 c3 -5 10 -6 15 -3 13 9 11 12 -6 12 -8 0 -12 -4 -9 -9z"/>
<path d="M6260 4655 c0 -2 6 -8 13 -14 10 -8 14 -7 14 2 0 8 -6 14 -14 14 -7
0 -13 -1 -13 -2z"/>
<path d="M3913 4615 c0 -8 4 -12 9 -9 5 3 6 10 3 15 -9 13 -12 11 -12 -6z"/>
<path d="M2325 4609 c-4 -6 -5 -12 -2 -15 2 -3 7 2 10 11 7 17 1 20 -8 4z"/>
<path d="M3875 4580 c-3 -6 1 -7 9 -4 18 7 21 14 7 14 -6 0 -13 -4 -16 -10z"/>
<path d="M3090 4569 c0 -5 5 -7 10 -4 6 3 10 8 10 11 0 2 -4 4 -10 4 -5 0 -10
-5 -10 -11z"/>
<path d="M6385 4571 c-6 -11 9 -23 19 -14 9 9 7 23 -3 23 -6 0 -12 -4 -16 -9z"/>
<path d="M2235 4561 c-6 -11 13 -26 22 -17 4 3 1 6 -6 6 -7 0 -9 5 -6 10 3 6
4 10 1 10 -3 0 -7 -4 -11 -9z"/>
<path d="M6389 4493 c-13 -17 -13 -17 6 -3 11 8 22 16 24 17 2 2 0 3 -6 3 -6
0 -17 -8 -24 -17z"/>
<path d="M5109 4499 c-6 -31 -6 -38 3 -36 6 1 13 -4 16 -12 3 -8 0 -11 -7 -7
-6 4 -11 2 -11 -3 0 -6 5 -12 10 -12 6 -1 15 -3 20 -4 6 -1 17 -3 26 -4 8 0
12 -6 9 -11 -4 -6 -10 -8 -14 -6 -4 3 -8 -2 -8 -10 0 -10 4 -11 11 -4 15 15
30 12 17 -4 -10 -12 -8 -13 9 -9 13 4 17 9 11 17 -4 6 -7 19 -6 29 2 9 -1 15
-6 11 -10 -6 -61 30 -53 38 2 3 -2 11 -11 18 -8 7 -15 11 -16 9z m45 -57 c3
-5 -1 -9 -9 -9 -8 0 -12 4 -9 9 3 4 7 8 9 8 2 0 6 -4 9 -8z"/>
<path d="M6430 4489 c0 -5 5 -7 10 -4 6 3 10 8 10 11 0 2 -4 4 -10 4 -5 0 -10
-5 -10 -11z"/>
<path d="M3736 4472 c-2 -4 -1 -14 4 -22 7 -11 9 -9 7 8 -1 24 -3 26 -11 14z"/>
<path d="M5075 4470 c-3 -5 -1 -10 4 -10 6 0 11 5 11 10 0 6 -2 10 -4 10 -3 0
-8 -4 -11 -10z"/>
<path d="M2090 4429 c0 -5 5 -7 10 -4 6 3 10 8 10 11 0 2 -4 4 -10 4 -5 0 -10
-5 -10 -11z"/>
<path d="M2066 4412 c-3 -5 1 -9 9 -9 8 0 12 4 9 9 -3 4 -7 8 -9 8 -2 0 -6 -4
-9 -8z"/>
<path d="M6478 4393 c7 -3 16 -2 19 1 4 3 -2 6 -13 5 -11 0 -14 -3 -6 -6z"/>
<path d="M3636 4375 c-3 -8 -1 -15 4 -15 6 0 10 7 10 15 0 8 -2 15 -4 15 -2 0
-6 -7 -10 -15z"/>
<path d="M6506 4373 c-6 -14 -5 -15 5 -6 7 7 10 15 7 18 -3 3 -9 -2 -12 -12z"/>
<path d="M5170 4350 c0 -5 5 -10 11 -10 5 0 7 5 4 10 -3 6 -8 10 -11 10 -2 0
-4 -4 -4 -10z"/>
<path d="M1961 4324 c0 -11 3 -14 6 -6 3 7 2 16 -1 19 -3 4 -6 -2 -5 -13z"/>
<path d="M6620 4270 c-10 -6 -11 -10 -2 -10 6 0 11 -3 10 -7 -6 -23 15 -50 37
-50 29 0 32 9 10 27 -9 7 -14 19 -11 26 3 7 -2 15 -10 18 -19 7 -16 8 -34 -4z
m26 -17 c-3 -3 5 -14 17 -24 18 -14 19 -17 5 -15 -22 3 -28 9 -33 35 -2 13 0
19 6 15 6 -3 8 -8 5 -11z"/>
<path d="M3510 4239 c0 -5 5 -7 10 -4 6 3 10 8 10 11 0 2 -4 4 -10 4 -5 0 -10
-5 -10 -11z"/>
<path d="M4039 4203 c-13 -16 -12 -17 4 -4 9 7 17 15 17 17 0 8 -8 3 -21 -13z"/>
<path d="M6656 4175 c-3 -8 -1 -15 4 -15 6 0 10 7 10 15 0 8 -2 15 -4 15 -2 0
-6 -7 -10 -15z"/>
<path d="M3426 4172 c-3 -5 1 -9 9 -9 8 0 12 4 9 9 -3 4 -7 8 -9 8 -2 0 -6 -4
-9 -8z"/>
<path d="M1736 4147 c3 -10 9 -15 12 -12 3 3 0 11 -7 18 -10 9 -11 8 -5 -6z"/>
<path d="M5364 4128 l-19 -23 22 18 c14 12 23 15 28 8 3 -6 2 -11 -3 -11 -14
0 -23 -28 -11 -35 5 -4 9 -3 8 2 -3 19 2 27 10 15 7 -11 9 -11 14 1 3 8 -2 22
-12 31 -16 15 -19 14 -37 -6z"/>
<path d="M5325 4130 c-3 -6 1 -7 9 -4 18 7 21 14 7 14 -6 0 -13 -4 -16 -10z"/>
<path d="M2575 4121 c-3 -5 -2 -12 3 -15 5 -3 9 1 9 9 0 17 -3 19 -12 6z"/>
<path d="M1710 4110 c0 -5 5 -10 10 -10 6 0 10 5 10 10 0 6 -4 10 -10 10 -5 0
-10 -4 -10 -10z"/>
<path d="M1620 4050 c0 -5 5 -10 11 -10 5 0 7 5 4 10 -3 6 -8 10 -11 10 -2 0
-4 -4 -4 -10z"/>
<path d="M1597 4023 c-10 -9 -9 -23 1 -23 5 0 9 7 9 15 0 17 -1 18 -10 8z"/>
<path d="M1570 3990 c0 -5 5 -10 11 -10 5 0 7 5 4 10 -3 6 -8 10 -11 10 -2 0
-4 -4 -4 -10z"/>
<path d="M6795 3990 c-3 -5 -1 -10 4 -10 6 0 11 5 11 10 0 6 -2 10 -4 10 -3 0
-8 -4 -11 -10z"/>
<path d="M6890 3903 c0 -18 34 -33 51 -22 12 7 12 9 -1 10 -8 1 -19 1 -24 0
-5 -1 -13 4 -17 11 -6 9 -9 10 -9 1z"/>
<path d="M5535 3890 c-3 -5 -1 -10 4 -10 6 0 11 5 11 10 0 6 -2 10 -4 10 -3 0
-8 -4 -11 -10z"/>
<path d="M5603 3863 c-15 -5 -17 -23 -4 -23 5 0 11 7 15 15 3 8 4 15 3 14 -1
0 -8 -3 -14 -6z"/>
<path d="M3095 3851 c-3 -5 0 -13 6 -17 7 -4 9 -3 5 4 -3 6 2 13 11 15 16 4
16 5 1 6 -9 0 -19 -3 -23 -8z"/>
<path d="M5606 3813 c-6 -14 -5 -15 5 -6 7 7 10 15 7 18 -3 3 -9 -2 -12 -12z"/>
<path d="M1361 3803 c-7 -8 -11 -16 -8 -19 2 -2 10 2 17 11 17 20 9 27 -9 8z"/>
<path d="M3002 3768 c-15 -15 -15 -28 0 -28 6 0 8 3 5 7 -4 3 -2 12 4 20 14
16 7 17 -9 1z"/>
<path d="M1296 3757 c3 -10 9 -15 12 -12 3 3 0 11 -7 18 -10 9 -11 8 -5 -6z"/>
<path d="M6990 3750 c0 -5 5 -10 11 -10 5 0 7 5 4 10 -3 6 -8 10 -11 10 -2 0
-4 -4 -4 -10z"/>
<path d="M7056 3724 c-9 -23 -7 -27 10 -20 8 3 12 2 9 -3 -3 -5 -1 -13 5 -16
8 -5 7 -12 -2 -23 -10 -12 -10 -14 -1 -8 7 4 23 0 35 -8 12 -9 17 -16 11 -16
-6 0 -14 -7 -17 -16 -5 -14 -4 -15 9 -4 14 12 20 7 15 -15 -1 -5 5 -4 12 4 10
11 10 14 0 18 -6 3 -10 9 -6 14 3 5 -2 12 -11 15 -12 5 -13 9 -5 14 9 5 6 10
-9 15 -18 5 -20 9 -10 21 7 9 8 14 1 14 -6 0 -17 7 -25 15 -13 13 -16 13 -21
-1z"/>
<path d="M5690 3695 c0 -5 5 -17 10 -25 5 -8 10 -10 10 -5 0 6 -5 17 -10 25
-5 8 -10 11 -10 5z"/>
<path d="M7053 3675 c0 -8 4 -12 9 -9 5 3 6 10 3 15 -9 13 -12 11 -12 -6z"/>
<path d="M1180 3661 c0 -6 4 -13 10 -16 6 -3 7 1 4 9 -7 18 -14 21 -14 7z"/>
<path d="M1140 3630 c-9 -6 -10 -10 -3 -10 6 0 15 5 18 10 8 12 4 12 -15 0z"/>
<path d="M2856 3617 c3 -10 9 -15 12 -12 3 3 0 11 -7 18 -10 9 -11 8 -5 -6z"/>
<path d="M5783 3623 c-14 -5 -18 -24 -5 -22 20 3 32 -2 26 -13 -4 -7 -3 -8 4
-4 9 5 9 13 2 27 -6 10 -12 19 -13 18 -1 0 -8 -3 -14 -6z"/>
<path d="M1107 3609 c7 -9 10 -19 6 -22 -3 -4 -1 -7 5 -7 17 0 15 16 -5 31
-16 12 -17 12 -6 -2z"/>
<path d="M7156 3605 c-3 -9 0 -23 8 -30 19 -20 29 4 11 28 -11 16 -13 16 -19
2z"/>
<path d="M2819 3588 c14 -19 32 -15 30 5 0 8 -2 8 -6 -1 -4 -10 -8 -10 -21 0
-15 12 -16 11 -3 -4z"/>
<path d="M1093 3565 c0 -8 4 -12 9 -9 5 3 6 10 3 15 -9 13 -12 11 -12 -6z"/>
<path d="M2794 3569 c-4 -7 -3 -9 4 -5 5 3 13 0 15 -6 4 -9 6 -10 6 -1 1 17
-16 25 -25 12z"/>
<path d="M1055 3559 c-4 -6 -5 -12 -2 -15 2 -3 7 2 10 11 7 17 1 20 -8 4z"/>
<path d="M2770 3529 c-22 -18 -22 -19 -3 -10 12 6 25 16 28 21 9 15 3 12 -25
-11z"/>
<path d="M5870 3546 c0 -2 8 -10 18 -17 15 -13 16 -12 3 4 -13 16 -21 21 -21
13z"/>
<path d="M1016 3528 c3 -5 10 -6 15 -3 13 9 11 12 -6 12 -8 0 -12 -4 -9 -9z"/>
<path d="M5836 3497 c3 -10 9 -15 12 -12 3 3 0 11 -7 18 -10 9 -11 8 -5 -6z"/>
<path d="M5873 3455 c0 -8 4 -12 9 -9 5 3 6 10 3 15 -9 13 -12 11 -12 -6z"/>
<path d="M7289 3455 c-1 -3 -2 -9 -3 -14 0 -5 -4 -13 -8 -17 -5 -4 -8 -12 -8
-18 1 -13 23 23 26 42 2 11 -5 18 -7 7z"/>
<path d="M2631 3391 c-10 -6 -9 -10 3 -14 8 -3 18 -2 21 3 8 13 -9 20 -24 11z"/>
<path d="M5936 3387 c3 -10 9 -15 12 -12 3 3 0 11 -7 18 -10 9 -11 8 -5 -6z"/>
<path d="M7310 3390 c0 -5 7 -10 16 -10 8 0 12 5 9 10 -3 6 -10 10 -16 10 -5
0 -9 -4 -9 -10z"/>
<path d="M5955 3360 c-3 -5 -1 -10 4 -10 6 0 11 5 11 10 0 6 -2 10 -4 10 -3 0
-8 -4 -11 -10z"/>
<path d="M2575 3350 c-3 -5 -1 -10 4 -10 6 0 11 5 11 10 0 6 -2 10 -4 10 -3 0
-8 -4 -11 -10z"/>
<path d="M7368 3326 c-15 -11 -13 -14 12 -31 16 -11 27 -22 26 -25 -2 -3 1
-14 5 -25 9 -19 9 -19 5 2 -2 12 2 24 10 27 14 5 20 27 7 24 -5 0 -16 2 -26 7
-13 5 -15 10 -7 15 9 5 8 9 -2 12 -8 3 -21 0 -30 -6z m20 -5 c-2 -5 6 -17 17
-26 11 -9 13 -13 5 -9 -27 13 -40 26 -34 35 7 12 15 12 12 0z"/>
<path d="M6017 3281 c-4 -17 -3 -21 5 -13 5 5 8 16 6 23 -3 8 -7 3 -11 -10z"/>
<path d="M2527 3279 c7 -7 15 -10 18 -7 3 3 -2 9 -12 12 -14 6 -15 5 -6 -5z"/>
<path d="M753 3273 c4 -3 2 -12 -4 -20 -9 -9 -8 -13 0 -13 6 0 11 2 11 4 0 2
3 11 6 20 4 10 1 16 -7 16 -7 0 -9 -3 -6 -7z"/>
<path d="M7370 3270 c0 -5 5 -10 11 -10 5 0 7 5 4 10 -3 6 -8 10 -11 10 -2 0
-4 -4 -4 -10z"/>
<path d="M2494 3252 c3 -6 -2 -15 -11 -21 -10 -6 -13 -11 -7 -11 20 0 37 27
23 36 -7 4 -9 3 -5 -4z"/>
<path d="M3200 3250 c-9 -6 -10 -10 -3 -10 6 0 15 5 18 10 8 12 4 12 -15 0z"/>
<path d="M2450 3211 c0 -6 4 -13 10 -16 6 -3 7 1 4 9 -7 18 -14 21 -14 7z"/>
<path d="M7428 3213 c6 -2 10 -8 7 -13 -3 -4 2 -11 10 -14 13 -4 14 -2 5 14
-6 11 -16 20 -23 19 -9 0 -9 -2 1 -6z"/>
<path d="M6113 3189 c-14 -6 -12 -8 10 -8 19 -1 27 -5 24 -13 -6 -17 11 -48
26 -48 9 0 9 2 0 8 -7 4 -10 21 -8 39 4 33 -8 39 -52 22z"/>
<path d="M2405 3170 c-3 -5 -1 -10 4 -10 6 0 11 5 11 10 0 6 -2 10 -4 10 -3 0
-8 -4 -11 -10z"/>
<path d="M7510 3167 c0 -9 4 -18 9 -21 5 -4 8 1 7 9 -3 21 -16 31 -16 12z"/>
<path d="M2385 3140 c-4 -6 -11 -7 -17 -4 -7 4 -8 2 -4 -4 10 -16 23 -15 30 3
6 17 0 20 -9 5z"/>
<path d="M6190 3120 c0 -11 5 -20 11 -20 5 0 7 6 3 13 -6 10 -4 10 7 0 22 -21
34 -15 14 7 -10 11 -22 20 -27 20 -4 0 -8 -9 -8 -20z"/>
<path d="M7553 3125 c0 -8 4 -15 9 -15 4 0 8 7 8 15 0 8 -4 15 -8 15 -5 0 -9
-7 -9 -15z"/>
<path d="M511 3037 c-13 -21 -12 -21 5 -5 10 10 16 20 13 22 -3 3 -11 -5 -18
-17z"/>
<path d="M6210 3030 c0 -5 5 -10 11 -10 5 0 7 5 4 10 -3 6 -8 10 -11 10 -2 0
-4 -4 -4 -10z"/>
<path d="M481 3004 c0 -11 3 -14 6 -6 3 7 2 16 -1 19 -3 4 -6 -2 -5 -13z"/>
<path d="M6310 3011 c0 -5 7 -12 16 -15 14 -5 15 -4 4 9 -14 17 -20 19 -20 6z"/>
<path d="M440 2986 c7 -7 13 -7 20 0 6 6 3 10 -10 10 -13 0 -16 -4 -10 -10z"/>
<path d="M345 2802 c2 -3 0 -13 -6 -23 -6 -13 -6 -19 1 -19 5 0 10 8 10 18 1
15 2 15 17 -3 11 -14 14 -15 10 -3 -8 22 2 30 18 15 8 -8 10 -16 4 -24 -7 -7
-6 -14 1 -18 6 -4 10 -3 9 2 -1 4 0 10 1 13 1 3 3 14 4 25 2 17 -4 20 -35 20
-21 1 -36 -1 -34 -3z"/>
<path d="M507 2803 c-3 -5 1 -17 9 -28 8 -10 14 -13 14 -7 0 7 5 12 11 12 5 0
7 -6 3 -12 -5 -9 -2 -9 9 1 22 17 22 35 1 27 -9 -4 -22 -2 -29 4 -7 6 -15 7
-18 3z"/>
<path d="M1066 2801 c-4 -5 -2 -12 4 -16 6 -4 7 -12 4 -18 -5 -8 -3 -8 7 1 20
18 34 15 18 -5 -13 -16 -13 -16 11 0 29 20 44 22 34 5 -6 -10 -5 -10 8 -1 8 7
17 11 20 8 2 -3 5 1 5 9 0 15 -38 16 -49 1 -5 -6 -12 -4 -18 5 -5 8 -10 11
-10 6 0 -5 -6 -3 -14 3 -9 8 -16 8 -20 2z"/>
<path d="M1316 2802 c-3 -5 -28 -8 -56 -7 -30 1 -50 -3 -50 -9 0 -6 -5 -4 -10
4 -7 12 -9 10 -7 -8 1 -21 17 -33 17 -13 0 6 9 9 20 8 11 -1 20 -6 20 -11 0
-5 6 -2 13 9 10 13 16 15 21 6 6 -9 13 -8 27 5 21 19 26 6 7 -15 -9 -9 -9 -12
-1 -7 6 3 14 0 16 -6 4 -10 6 -10 6 0 1 7 5 11 9 8 4 -2 8 4 8 14 0 11 -2 17
-5 15 -2 -3 -10 0 -17 6 -7 5 -15 6 -18 1z"/>
<path d="M1435 2800 c-4 -6 -10 -8 -15 -5 -4 3 -16 -3 -27 -13 -10 -9 -13 -13
-6 -8 8 5 19 4 27 -3 10 -8 16 -9 21 -1 3 5 11 10 16 10 6 0 7 -4 4 -10 -3 -5
-2 -10 2 -10 5 0 14 10 22 23 7 12 10 19 6 15 -4 -4 -16 -3 -26 2 -12 7 -20 7
-24 0z m15 -4 c0 -2 -6 -9 -14 -15 -11 -9 -16 -9 -22 0 -4 7 -3 9 4 5 6 -3 13
-2 17 4 6 10 15 14 15 6z"/>
<path d="M1785 2801 c-3 -6 -11 -9 -16 -5 -11 6 -39 -13 -39 -27 0 -5 5 -9 11
-9 5 0 7 5 4 10 -6 10 7 14 32 11 13 -2 28 17 20 25 -3 3 -8 0 -12 -5z"/>
<path d="M2265 2801 c-3 -6 -11 -9 -16 -5 -11 6 -39 -13 -39 -27 0 -5 5 -9 11
-9 5 0 7 5 4 10 -6 10 7 14 32 11 13 -2 28 17 20 25 -3 3 -8 0 -12 -5z"/>
<path d="M6825 2801 c-3 -6 -11 -9 -16 -5 -11 6 -39 -13 -39 -28 0 -5 7 -3 15
6 9 8 22 13 29 10 14 -5 32 13 23 22 -3 3 -8 0 -12 -5z"/>
<path d="M7065 2801 c-3 -6 -11 -9 -16 -5 -11 6 -39 -13 -39 -27 0 -5 5 -9 11
-9 5 0 7 5 4 10 -6 10 7 14 32 11 13 -2 28 17 20 25 -3 3 -8 0 -12 -5z"/>
<path d="M7545 2801 c-3 -6 -11 -9 -16 -5 -11 6 -39 -13 -39 -27 0 -5 5 -9 11
-9 5 0 7 5 4 10 -6 10 7 14 32 11 13 -2 28 17 20 25 -3 3 -8 0 -12 -5z"/>
<path d="M7786 2801 c-4 -5 -2 -12 4 -16 6 -4 7 -12 4 -18 -5 -8 -3 -8 7 1 20
18 34 15 18 -5 -13 -16 -13 -16 11 0 29 20 44 22 34 5 -6 -10 -5 -10 8 -1 8 7
17 11 20 8 2 -3 5 1 5 9 0 15 -38 16 -49 1 -5 -6 -12 -4 -18 5 -5 8 -10 11
-10 6 0 -5 -6 -3 -14 3 -9 8 -16 8 -20 2z"/>
<path d="M316 2788 c5 -7 2 -9 -8 -6 -8 4 -15 0 -15 -7 0 -10 5 -11 19 -4 20
11 24 29 7 29 -5 0 -7 -5 -3 -12z"/>
<path d="M583 2779 c-1 -10 5 -20 13 -23 7 -3 13 0 11 6 -1 6 4 13 12 16 8 2
11 0 8 -5 -3 -5 0 -10 6 -10 7 0 14 10 15 21 1 17 -1 18 -8 6 -5 -8 -10 -10
-10 -4 0 18 -46 12 -47 -7z"/>
<path d="M665 2781 c2 -9 4 -20 4 -25 1 -6 7 -1 15 10 15 19 15 19 30 -1 15
-18 15 -18 9 -1 -6 18 -5 18 23 0 15 -11 25 -14 21 -7 -4 6 -3 14 3 18 5 3 10
0 10 -7 0 -9 3 -9 10 2 9 13 11 13 19 0 5 -8 7 -18 4 -24 -3 -5 -1 -6 5 -2 8
5 8 13 1 29 -8 17 -19 23 -44 23 -26 0 -32 -3 -23 -13 7 -9 7 -13 0 -13 -6 0
-16 8 -21 18 -8 13 -10 14 -11 2 0 -9 -3 -11 -8 -5 -12 17 -50 14 -47 -4z"/>
<path d="M834 2784 c9 -6 14 -13 11 -16 -3 -2 2 -5 10 -5 10 0 12 4 5 12 -5 7
-8 14 -5 16 2 3 -5 5 -16 5 -18 0 -18 -2 -5 -12z"/>
<path d="M870 2795 c0 -5 5 -17 10 -25 6 -9 10 -10 10 -3 0 6 9 11 20 10 11
-1 20 -6 20 -11 0 -5 6 -1 14 9 13 18 14 18 24 -2 6 -11 8 -24 4 -28 -4 -5 -2
-5 5 -1 9 5 9 13 2 30 -9 19 -18 23 -50 22 -21 0 -39 -5 -39 -11 0 -5 -5 -3
-10 5 -5 8 -10 11 -10 5z"/>
<path d="M1030 2785 c-7 -8 -10 -18 -6 -22 3 -3 6 -1 6 5 0 19 20 14 21 -5 0
-10 3 -13 5 -6 3 7 1 19 -4 28 -8 15 -10 15 -22 0z"/>
<path d="M1500 2785 c-6 -7 -2 -11 11 -11 10 0 19 4 19 9 0 4 5 5 10 2 6 -4 7
-12 3 -18 -4 -7 0 -6 10 2 9 7 17 17 17 21 0 11 -60 7 -70 -5z"/>
<path d="M1586 2784 c-6 -14 11 -30 21 -20 4 3 0 6 -7 6 -9 0 -8 4 4 13 16 12
16 14 3 14 -9 0 -18 -6 -21 -13z"/>
<path d="M1626 2783 c-3 -8 -2 -11 3 -8 5 3 17 -5 25 -17 9 -12 16 -17 16 -11
0 7 -5 15 -11 18 -6 4 -8 13 -6 19 3 7 -1 13 -9 13 -7 0 -16 -7 -18 -14z"/>
<path d="M1805 2782 c-3 -8 -3 -17 0 -20 3 -3 5 -1 5 5 0 14 52 12 62 -2 5 -7
8 -7 8 0 0 31 -64 46 -75 17z"/>
<path d="M1925 2789 c-4 -5 -1 -9 5 -9 6 0 8 -4 5 -10 -3 -5 -2 -10 2 -10 5 0
13 8 19 18 10 15 8 18 -7 19 -10 1 -21 -2 -24 -8z"/>
<path d="M1980 2785 c-6 -7 -2 -11 11 -11 10 0 19 4 19 9 0 4 5 5 10 2 6 -4 7
-12 3 -18 -4 -7 0 -6 10 2 9 7 17 17 17 21 0 11 -60 7 -70 -5z"/>
<path d="M2066 2784 c-6 -14 11 -30 21 -20 4 3 0 6 -7 6 -9 0 -8 4 4 13 16 12
16 14 3 14 -9 0 -18 -6 -21 -13z"/>
<path d="M2106 2783 c-3 -8 -2 -11 3 -8 5 3 17 -5 25 -17 9 -12 16 -17 16 -11
0 7 -5 15 -11 18 -6 4 -8 13 -6 19 3 7 -1 13 -9 13 -7 0 -16 -7 -18 -14z"/>
<path d="M2285 2782 c-3 -8 -3 -17 0 -20 3 -3 5 -1 5 5 0 14 52 12 62 -2 5 -7
8 -7 8 0 0 31 -64 46 -75 17z"/>
<path d="M2405 2789 c-4 -5 -1 -9 5 -9 6 0 8 -4 5 -10 -3 -5 -2 -10 2 -10 5 0
13 8 19 18 10 15 8 18 -7 19 -10 1 -21 -2 -24 -8z"/>
<path d="M2460 2785 c-6 -7 -2 -11 11 -11 10 0 19 4 19 9 0 4 5 5 10 2 6 -4 7
-12 3 -18 -4 -7 0 -6 10 2 9 7 17 17 17 21 0 11 -60 7 -70 -5z"/>
<path d="M2550 2788 c0 -4 0 -11 0 -15 0 -15 23 -8 25 8 2 9 -4 16 -11 16 -8
0 -14 -4 -14 -9z"/>
<path d="M2590 2792 c0 -2 9 -15 20 -29 11 -14 20 -21 20 -15 0 6 -5 14 -11
17 -6 4 -8 13 -6 19 3 7 -1 13 -9 13 -8 0 -14 -2 -14 -5z"/>
<path d="M2700 2786 c-13 -13 -13 -26 1 -26 5 0 7 5 4 10 -10 17 17 11 30 -6
11 -15 12 -15 12 0 0 9 -4 16 -9 16 -5 0 -7 4 -4 8 7 12 -21 11 -34 -2z"/>
<path d="M2755 2790 c3 -5 8 -10 11 -10 2 0 4 5 4 10 0 6 -5 10 -11 10 -5 0
-7 -4 -4 -10z"/>
<path d="M6483 2793 c-7 -3 -13 -9 -13 -14 0 -4 7 -5 17 -2 9 4 14 2 10 -3 -3
-6 12 -10 37 -10 35 1 42 4 38 16 -5 12 -3 13 10 3 8 -7 18 -10 21 -6 15 14 5
21 -25 19 -20 -2 -32 -8 -30 -16 1 -6 -3 -10 -10 -7 -7 2 -12 9 -11 14 2 10
-24 13 -44 6z"/>
<path d="M6625 2782 c-3 -8 -3 -17 0 -20 3 -3 5 0 5 6 0 7 5 12 11 12 5 0 8
-4 5 -9 -3 -5 1 -12 9 -15 12 -4 13 -2 6 13 -6 10 -8 20 -6 23 3 3 -2 5 -10 5
-8 0 -17 -7 -20 -15z"/>
<path d="M6670 2791 c0 -3 4 -12 9 -19 6 -11 9 -9 13 5 3 12 0 20 -8 20 -8 0
-14 -3 -14 -6z"/>
<path d="M6841 2773 c-7 -16 -7 -24 1 -29 7 -5 8 -2 3 6 -6 10 -4 12 10 6 15
-5 16 -4 5 9 -15 18 0 20 20 3 8 -7 11 -9 7 -4 -4 5 -3 14 3 21 6 8 2 11 -15
11 -15 0 -27 -8 -34 -23z"/>
<path d="M6906 2783 c-3 -8 -2 -11 3 -8 5 3 17 -5 25 -17 9 -12 16 -17 16 -11
0 7 -5 15 -11 18 -6 4 -8 13 -6 19 3 7 -1 13 -9 13 -7 0 -16 -7 -18 -14z"/>
<path d="M7085 2782 c-3 -8 -3 -17 0 -20 3 -3 5 -1 5 5 0 14 52 12 62 -2 5 -7
8 -7 8 0 0 31 -64 46 -75 17z"/>
<path d="M7205 2789 c-4 -5 -1 -9 5 -9 6 0 8 -4 5 -10 -3 -5 -2 -10 2 -10 5 0
13 8 19 18 10 15 8 18 -7 19 -10 1 -21 -2 -24 -8z"/>
<path d="M7260 2785 c-6 -7 -2 -11 11 -11 10 0 19 4 19 9 0 4 5 5 10 2 6 -4 7
-12 3 -18 -4 -7 0 -6 10 2 9 7 17 17 17 21 0 11 -60 7 -70 -5z"/>
<path d="M7346 2784 c-6 -14 11 -30 21 -20 4 3 0 6 -7 6 -9 0 -8 4 4 13 16 12
16 14 3 14 -9 0 -18 -6 -21 -13z"/>
<path d="M7386 2783 c-3 -8 -2 -11 3 -8 5 3 17 -5 25 -17 9 -12 16 -17 16 -11
0 7 -5 15 -11 18 -6 4 -8 13 -6 19 3 7 -1 13 -9 13 -7 0 -16 -7 -18 -14z"/>
<path d="M7565 2782 c-3 -8 -3 -17 0 -20 3 -3 5 -1 5 5 0 14 52 12 62 -2 5 -7
8 -7 8 0 0 31 -64 46 -75 17z"/>
<path d="M7750 2785 c-7 -8 -10 -18 -6 -22 3 -3 6 -1 6 5 0 19 20 14 21 -5 0
-10 3 -13 5 -6 3 7 1 19 -4 28 -8 15 -10 15 -22 0z"/>
<path d="M7913 2782 c1 -21 17 -32 17 -12 0 12 31 10 40 -2 3 -4 11 1 17 10 9
16 6 18 -23 18 -19 0 -34 -5 -34 -11 0 -5 -5 -3 -10 5 -7 12 -9 10 -7 -8z"/>
<path d="M8001 2778 c-14 -22 -14 -28 -1 -28 6 0 9 5 8 11 -2 6 3 14 11 17 10
3 11 0 5 -9 -6 -11 -5 -12 8 -2 8 7 17 11 20 8 2 -3 5 1 5 8 0 19 -43 16 -56
-5z"/>
<path d="M8073 2779 c2 -24 9 -24 23 -1 10 15 8 18 -7 19 -12 1 -17 -5 -16
-18z"/>
<path d="M8126 2784 c-11 -7 -18 -16 -15 -18 2 -2 13 2 23 10 11 7 18 16 15
18 -2 2 -13 -2 -23 -10z"/>
<path d="M495 2750 c3 -5 8 -10 11 -10 2 0 4 5 4 10 0 6 -5 10 -11 10 -5 0 -7
-4 -4 -10z"/>
<path d="M1508 2753 c7 -3 16 -2 19 1 4 3 -2 6 -13 5 -11 0 -14 -3 -6 -6z"/>
<path d="M1988 2753 c7 -3 16 -2 19 1 4 3 -2 6 -13 5 -11 0 -14 -3 -6 -6z"/>
<path d="M2468 2753 c7 -3 16 -2 19 1 4 3 -2 6 -13 5 -11 0 -14 -3 -6 -6z"/>
<path d="M7268 2753 c7 -3 16 -2 19 1 4 3 -2 6 -13 5 -11 0 -14 -3 -6 -6z"/>
</g>
</svg>
